<?xml version="1.0" standalone="no"?>
<!DOCTYPE svg PUBLIC "-//W3C//DTD SVG 1.1//EN" "http://www.w3.org/Graphics/SVG/1.1/DTD/svg11.dtd" >
<svg xmlns="http://www.w3.org/2000/svg" xmlns:xlink="http://www.w3.org/1999/xlink" version="1.1">
<metadata>
Created by FontForge 20170731 at Tue Feb 27 09:30:30 2018
 By Aleksey,,,
Philipp Neumeyer
</metadata>
<defs>
<font id="Arnold_v0.1-Regular" horiz-adv-x="650" >
  <font-face 
    font-family="Arnold_v0.1"
    font-weight="400"
    font-stretch="normal"
    units-per-em="1000"
    panose-1="0 0 5 0 0 0 0 0 0 0"
    ascent="820"
    descent="-180"
    x-height="550"
    cap-height="680"
    bbox="-650 -190 732 1010"
    underline-thickness="50"
    underline-position="-200"
    unicode-range="U+0020-F8FF"
  />
<missing-glyph 
d="M0 -180v1000h650v-1000h-650zM494 108q39 0 64.5 27.5t25.5 70.5q0 41 -22 64t-61 23q-19 0 -34 -12.5t-15 -30.5t13.5 -30.5t31.5 -12.5q17 0 29 12.5t12 28.5q0 8 -3 16q29 -12 29 -60q0 -37 -19 -57.5t-50 -20.5q-34 0 -55 20.5t-44 72.5q-35 79 -64 95v5q64 5 96 36
t32 75q0 43 -39 73.5t-110 30.5h-206v-18h78l7 -7v-370l-7 -7h-78v-18h185v18h-70l-8 7v174h70q34 0 50.5 -20t44.5 -83q25 -55 50 -78.5t67 -23.5zM212 331v178l8 7h88q63 0 96.5 -25.5t33.5 -62.5q0 -40 -33 -68.5t-92 -28.5h-101z" />
    <glyph glyph-name=".notdef" 
d="M0 -180v1000h650v-1000h-650zM494 108q39 0 64.5 27.5t25.5 70.5q0 41 -22 64t-61 23q-19 0 -34 -12.5t-15 -30.5t13.5 -30.5t31.5 -12.5q17 0 29 12.5t12 28.5q0 8 -3 16q29 -12 29 -60q0 -37 -19 -57.5t-50 -20.5q-34 0 -55 20.5t-44 72.5q-35 79 -64 95v5q64 5 96 36
t32 75q0 43 -39 73.5t-110 30.5h-206v-18h78l7 -7v-370l-7 -7h-78v-18h185v18h-70l-8 7v174h70q34 0 50.5 -20t44.5 -83q25 -55 50 -78.5t67 -23.5zM212 331v178l8 7h88q63 0 96.5 -25.5t33.5 -62.5q0 -40 -33 -68.5t-92 -28.5h-101z" />
    <glyph glyph-name=".null" horiz-adv-x="0" 
 />
    <glyph glyph-name="nonmarkingreturn" horiz-adv-x="333" 
 />
    <glyph glyph-name="space" unicode=" " 
 />
    <glyph glyph-name="exclam" unicode="!" 
d="M272 710h106l-12 -450h-79zM325 -9q-37 0 -63.5 26.5t-26.5 63.5t26.5 63.5t63.5 26.5t63.5 -26.5t26.5 -63.5t-26.5 -63.5t-63.5 -26.5z" />
    <glyph glyph-name="quotedbl" unicode="&#x22;" 
d="M146 340l-9 340h126l-9 -340h-108zM396 340l-9 340h126l-9 -340h-108z" />
    <glyph glyph-name="numbersign" unicode="#" 
d="M595 443h-97l-30 -206h107v-77h-118l-24 -160h-82l24 160h-152l-24 -160h-82l24 160h-86v77h97l30 206h-107v77h118l24 160h82l-24 -160h152l24 160h82l-24 -160h86v-77zM386 237l30 206h-152l-30 -206h152z" />
    <glyph glyph-name="dollar" unicode="$" 
d="M564 181q0 -80 -54 -125t-150 -54l-5 -102h-90l5 101q-117 6 -190 42l27 84q74 -39 166 -45l11 230q-44 18 -72.5 33t-59.5 38t-46.5 53.5t-15.5 67.5q0 80 57 124.5t153 50.5l5 101h90l-5 -103q88 -8 154 -40l-26 -81q-56 30 -131 39l-11 -228q43 -18 71 -33t57.5 -37.5
t44.5 -51.5t15 -64zM183 512q0 -60 105 -107l9 193q-114 -8 -114 -86zM363 83q108 12 108 90q0 32 -25.5 55.5t-73.5 45.5z" />
    <glyph glyph-name="percent" unicode="%" 
d="M163 365q-131 0 -131 161q0 86 37.5 125t97.5 39q131 0 131 -162q0 -86 -37.5 -124.5t-97.5 -38.5zM383 370l-52 32l172 278h98zM166 428q57 0 57 98q0 58 -15.5 79t-43.5 21q-57 0 -57 -98q0 -58 15.5 -79t43.5 -21zM483 -10q-131 0 -131 161q0 86 37.5 125t97.5 39
q131 0 131 -162q0 -86 -37.5 -124.5t-97.5 -38.5zM49 0l218 310l52 -32l-172 -278h-98zM486 53q57 0 57 98q0 58 -15.5 79t-43.5 21q-57 0 -57 -98q0 -58 15.5 -79t43.5 -21z" />
    <glyph glyph-name="ampersand" unicode="&#x26;" 
d="M625 80v-91q-78 29 -153 71q-69 -77 -195 -77q-91 0 -147 37.5t-56 118.5q0 87 91 160q-107 122 -107 214q0 88 58.5 136t165.5 48q103 0 157.5 -41t54.5 -115q0 -25 -5.5 -47t-21 -43t-26 -35t-38 -34.5t-37.5 -28.5t-44 -30t-41 -26q71 -66 165 -125q22 65 22 186l88 1
q0 -141 -40 -228q69 -35 109 -51zM146 518q0 -75 86 -172q4 3 28 18t29.5 19t25.5 18t26 20t20.5 19t19.5 22t12.5 22t10 25.5t2.5 26.5q0 82 -131 82q-64 0 -96.5 -23.5t-32.5 -76.5zM283 59q78 0 120 42q-105 67 -188 147q-55 -50 -55 -103q0 -43 28 -64.5t95 -21.5z" />
    <glyph glyph-name="quotesingle" unicode="'" 
d="M271 340l-9 340h126l-9 -340h-108z" />
    <glyph glyph-name="parenleft" unicode="(" 
d="M478 698q-44 0 -74 -7.5t-56 -28.5t-40.5 -59.5t-23 -100.5t-8.5 -152q0 -96 8.5 -162t23 -106.5t40.5 -62.5t55.5 -29.5t74.5 -7.5v-82q-60 0 -101 8.5t-81 35.5t-63.5 74.5t-37.5 128t-14 193.5q0 108 14 186.5t38 127t62.5 77t81.5 39t101 10.5v-82z" />
    <glyph glyph-name="parenright" unicode=")" 
d="M172 780q60 0 101 -8.5t81 -35.5t63.5 -74.5t37.5 -128t14 -193.5q0 -108 -14 -186.5t-38 -127t-62.5 -77t-81.5 -39t-101 -10.5v82q44 0 74 7.5t56 28.5t40.5 59.5t23 100.5t8.5 152q0 96 -8.5 162t-23 106.5t-40.5 62.5t-55.5 29.5t-74.5 7.5v82z" />
    <glyph glyph-name="asterisk" unicode="*" 
d="M580 629l-182 -101l177 -88l-42 -74l-177 106l12 -213h-91l12 212l-172 -107l-42 74l181 90l-186 103l43 74l176 -123l-12 227h91l-12 -228l181 122z" />
    <glyph glyph-name="plus" unicode="+" 
d="M575 380v-81h-208v-209h-83v209h-209v81h209v210h83v-210h208z" />
    <glyph glyph-name="comma" unicode="," 
d="M267 180h134l-74 -340h-111z" />
    <glyph glyph-name="hyphen" unicode="-" 
d="M135 346h380v-81h-380v81z" />
    <glyph glyph-name="period" unicode="." 
d="M325 -9q-37 0 -63.5 26.5t-26.5 63.5t26.5 63.5t63.5 26.5t63.5 -26.5t26.5 -63.5t-26.5 -63.5t-63.5 -26.5z" />
    <glyph glyph-name="slash" unicode="/" 
d="M67 -100l419 880h99l-419 -880h-99z" />
    <glyph glyph-name="zero" unicode="0" 
d="M328 690q128 0 188.5 -83t60.5 -266q0 -351 -255 -351q-127 0 -188 82t-61 262q0 356 255 356zM326 608q-90 0 -124.5 -60t-34.5 -209q0 -26 2 -64l296 237q-16 51 -49 73.5t-90 22.5zM324 72q90 0 124.5 59.5t34.5 204.5q0 52 -3 92l-300 -240q14 -62 48 -89t96 -27z
" />
    <glyph glyph-name="one" unicode="1" 
d="M416 82h172v-82h-476v82h212v430l-212 -81v89l212 81v79h92v-598z" />
    <glyph glyph-name="two" unicode="2" 
d="M221 82h363v-82h-492v92q13 8 40 25q162 97 226 154q113 102 113 211q0 62 -33.5 94t-114.5 32q-88 0 -122.5 -37t-34.5 -112q0 -39 8 -61l-95 7q-4 30 -4 64q0 102 65.5 161.5t187.5 59.5q56 0 99 -12t68.5 -31.5t42 -46.5t22 -53t5.5 -55q0 -52 -18 -100t-44.5 -83.5
t-66 -71t-70.5 -57.5t-71 -49q-14 -9 -20 -13l-54 -24v-12z" />
    <glyph glyph-name="three" unicode="3" 
d="M447 355q64 -23 92.5 -60.5t28.5 -98.5q0 -92 -70 -149t-214 -57q-136 0 -230 45l26 78q96 -42 212 -42q99 0 141.5 30t42.5 90q0 111 -174 111h-185v81h237h3q52 21 74.5 50t22.5 70q0 57 -38 81.5t-119 24.5q-113 0 -207 -47l-24 75q101 53 238 53q114 0 178 -45.5
t64 -136.5q0 -97 -99 -153z" />
    <glyph glyph-name="four" unicode="4" 
d="M599 222v-82h-98v-140h-92v140h-342v92l247 448h95l-210 -381l-57 -77h267v458h92v-458h98z" />
    <glyph glyph-name="five" unicode="5" 
d="M332 418q125 -21 182 -67.5t57 -138.5q0 -97 -68.5 -159.5t-205.5 -62.5q-135 0 -220 45l26 78q81 -42 202 -42q174 0 174 135q0 57 -42.5 87t-136.5 47l-177 32l4 308h422v-82h-332l-3 -159z" />
    <glyph glyph-name="six" unicode="6" 
d="M339 393q120 -14 179.5 -61t59.5 -138q0 -90 -58 -147t-179 -57q-126 0 -191.5 75t-65.5 244q0 82 16.5 148.5t52 120.5t98 83.5t147.5 29.5q91 0 170 -25l-25 -80q-78 24 -153 24q-102 0 -149.5 -52.5t-59.5 -145.5zM349 71q137 0 137 115q0 59 -38 87.5t-131 39.5
l-141 17v-16q0 -136 40.5 -189.5t132.5 -53.5z" />
    <glyph glyph-name="seven" unicode="7" 
d="M569 680v-92l-225 -506h155v-82h-402v82h146l200 439l53 77h-409v82h482z" />
    <glyph glyph-name="eight" unicode="8" 
d="M406 335q70 -33 110 -73.5t40 -99.5q0 -86 -62.5 -132.5t-170.5 -46.5q-107 0 -168 41.5t-61 124.5q0 60 38.5 101t108.5 78q-82 36 -127.5 77t-45.5 104q0 88 69.5 138t191.5 50q253 0 253 -172q0 -63 -46 -106t-130 -84zM160 513q0 -25 12.5 -45.5t39.5 -38.5t51 -30
t65 -29q80 37 121 70t41 81q0 47 -39 71t-129 24q-162 0 -162 -103zM328 62q76 0 106 25t30 71q0 44 -37 74.5t-107 61.5q-65 -32 -99.5 -64.5t-34.5 -76.5q0 -91 142 -91z" />
    <glyph glyph-name="nine" unicode="9" 
d="M309 691q126 0 191.5 -83.5t65.5 -245.5q0 -372 -284 -372q-111 0 -190 25l25 84q81 -28 173 -28q94 0 133.5 50t47.5 138l-160 19q-124 15 -181.5 61.5t-57.5 137.5q0 95 61.5 154.5t175.5 59.5zM333 358l141 -17v16q0 130 -40 191.5t-133 61.5q-70 0 -103.5 -35
t-33.5 -90q0 -59 36.5 -87t132.5 -40z" />
    <glyph glyph-name="colon" unicode=":" 
d="M325 332q-37 0 -63.5 26t-26.5 64t26.5 64t63.5 26t63.5 -26t26.5 -64t-26.5 -64t-63.5 -26zM325 -9q-37 0 -63.5 26.5t-26.5 63.5t26.5 63.5t63.5 26.5t63.5 -26.5t26.5 -63.5t-26.5 -63.5t-63.5 -26.5z" />
    <glyph glyph-name="semicolon" unicode=";" 
d="M325 332q-37 0 -63.5 26t-26.5 64t26.5 64t63.5 26t63.5 -26t26.5 -64t-26.5 -64t-63.5 -26zM267 180h134l-74 -340h-111z" />
    <glyph glyph-name="less" unicode="&#x3c;" 
d="M565 508l-398 -162v-10l398 -161v-99l-480 216v98l480 216v-98z" />
    <glyph glyph-name="equal" unicode="=" 
d="M75 500h500v-81h-500v81zM75 260h500v-81h-500v81z" />
    <glyph glyph-name="greater" unicode="&#x3e;" 
d="M85 606l480 -216v-98l-480 -216v98l398 162v10l-398 161v99z" />
    <glyph glyph-name="question" unicode="?" 
d="M257 230l-25 82q53 19 91 36t73.5 39.5t54 49t18.5 56.5q0 116 -164 116q-99 0 -192 -48l-24 76q94 53 218 53q120 0 186 -49.5t66 -142.5q0 -51 -23.5 -93t-70 -74t-94 -54.5t-114.5 -46.5zM307 -9q-37 0 -63.5 26.5t-26.5 63.5t26.5 63.5t63.5 26.5t63.5 -26.5
t26.5 -63.5t-26.5 -63.5t-63.5 -26.5z" />
    <glyph glyph-name="at" unicode="@" 
d="M559 62l24 -62q-87 -41 -195 -41q-159 0 -241 99.5t-82 277.5q0 180 87 276.5t222 96.5q105 0 153 -48t48 -148v-349h-76l6 61q-88 -67 -163 -67q-54 0 -95.5 37t-41.5 93q0 75 73 115t219 56v44q0 75 -26 107t-104 32q-105 0 -165 -75.5t-60 -230.5q0 -309 253 -309
q80 0 164 35zM285 294q0 -29 21 -47t48 -18q59 0 143 59v107q-113 -12 -162.5 -34.5t-49.5 -66.5z" />
    <glyph glyph-name="A" unicode="A" 
d="M509 0l-69 233h-234l-68 -233h-93l207 680h146l207 -680h-96zM230 314h186l-55 184l-24 102h-29l-24 -102z" />
    <glyph glyph-name="B" unicode="B" 
d="M485 348q105 -39 105 -152q0 -92 -57.5 -144t-169.5 -52h-264v680h226q114 0 169 -44.5t55 -137.5q0 -72 -64 -150zM315 599h-124v-225h215q49 57 49 117q0 54 -31.5 81t-108.5 27zM355 81q84 0 112.5 27.5t28.5 81.5q0 47 -24 75t-87 28h-194v-212h164z" />
    <glyph glyph-name="C" unicode="C" 
d="M376 -10q-136 0 -218 82.5t-82 261.5q0 95 27 166.5t73 111.5t98.5 59t111.5 19q110 0 195 -45l-26 -79q-44 23 -81 32.5t-96 9.5q-40 0 -75.5 -13.5t-66 -43t-48.5 -84t-18 -128.5q0 -144 55 -205.5t153 -61.5q86 0 177 47l24 -76q-94 -53 -203 -53z" />
    <glyph glyph-name="D" unicode="D" 
d="M287 680q155 0 231.5 -82t76.5 -252q0 -346 -327 -346h-174v680h193zM260 81q134 0 187.5 61t53.5 199q0 137 -51 197.5t-170 60.5h-94v-518h74z" />
    <glyph glyph-name="E" unicode="E" 
d="M548 599h-342v-219h332v-81h-332v-218h342v-81h-434v680h434v-81z" />
    <glyph glyph-name="F" unicode="F" 
d="M548 599h-342v-219h332v-81h-332v-299h-92v680h434v-81z" />
    <glyph glyph-name="G" unicode="G" 
d="M480 84v262h92v-319q-96 -37 -213 -37q-62 0 -112.5 17.5t-91.5 56t-63.5 107t-22.5 163.5t27 166t74 111.5t103 59.5t121 19q107 0 190 -38l-26 -81q-89 37 -172 37q-100 0 -161.5 -62.5t-61.5 -206.5q0 -78 15 -131.5t43 -82.5t61.5 -41t78.5 -12q70 0 119 12z" />
    <glyph glyph-name="H" unicode="H" 
d="M470 680h92v-680h-92v299h-290v-299h-92v680h92v-300h290v300z" />
    <glyph glyph-name="I" unicode="I" 
d="M563 598h-192v-516h192v-82h-476v82h192v516h-192v82h476v-82z" />
    <glyph glyph-name="J" unicode="J" 
d="M552 680v-419q0 -82 -19 -137.5t-55 -83.5t-76.5 -39t-95.5 -11q-120 0 -206 45l27 82q89 -46 188 -46q33 0 56 6.5t45 24.5t33 56.5t11 97.5v342h-306v82h398z" />
    <glyph glyph-name="K" unicode="K" 
d="M476 0l-174 337l-96 -89v-248h-92v680h92v-225l-10 -106l366 333l1 -117l-186 -170l209 -395h-110z" />
    <glyph glyph-name="L" unicode="L" 
d="M216 83h342v-83h-434v680h92v-597z" />
    <glyph glyph-name="M" unicode="M" 
d="M560 680v-680h-82v350l8 250h-9l-23 -110l-68 -230h-111l-76 230l-25 110h-10l8 -250v-350h-82v680h133l88 -269l16 -71h9l15 71l79 269h130z" />
    <glyph glyph-name="N" unicode="N" 
d="M470 680h85v-680h-142l-228 577h-10l5 -577h-85v680h142l229 -577h9z" />
    <glyph glyph-name="O" unicode="O" 
d="M322 -10q-127 0 -199.5 84.5t-72.5 259.5q0 179 77.5 267.5t200.5 88.5q127 0 199.5 -85.5t72.5 -263.5q0 -176 -77.5 -263.5t-200.5 -87.5zM324 72q90 0 136 62.5t46 201.5q0 145 -45.5 208.5t-134.5 63.5q-90 0 -136 -63.5t-46 -205.5t45.5 -204.5t134.5 -62.5z" />
    <glyph glyph-name="P" unicode="P" 
d="M324 680q118 0 186.5 -57t68.5 -166q0 -116 -73.5 -176.5t-193.5 -60.5h-112v-220h-92v680h216zM304 301q92 0 136.5 36.5t44.5 113.5q0 148 -171 148h-114v-298h104z" />
    <glyph glyph-name="Q" unicode="Q" 
d="M628 -73l-1 -109l-292 172h-13q-127 0 -199.5 84.5t-72.5 259.5q0 179 77.5 267.5t200.5 88.5q127 0 199.5 -85.5t72.5 -263.5q0 -249 -157 -325l56 -17zM144 339q0 -142 45.5 -204.5t134.5 -62.5q90 0 136 62.5t46 201.5q0 145 -45.5 208.5t-134.5 63.5
q-90 0 -136 -63.5t-46 -205.5z" />
    <glyph glyph-name="R" unicode="R" 
d="M487 0l-149 253h-147v-253h-92v680h216q130 0 192 -47t62 -152q0 -123 -132 -207l164 -274h-114zM191 599v-265h195q89 55 89 140q0 65 -39.5 95t-130.5 30h-114z" />
    <glyph glyph-name="S" unicode="S" 
d="M309 -10q-142 0 -229 41l27 86q89 -46 208 -46q156 0 156 95q0 32 -28 58.5t-70.5 45t-92 42t-92 47.5t-70.5 63.5t-28 88.5q0 85 66.5 132t175.5 47q125 0 212 -41l-26 -83q-83 43 -193 43q-142 0 -142 -90q0 -33 28 -60.5t70.5 -46t92 -42.5t92 -47.5t70.5 -62
t28 -86.5q0 -91 -70.5 -137.5t-184.5 -46.5z" />
    <glyph glyph-name="T" unicode="T" 
d="M583 680v-84h-212v-596h-92v596h-212v84h516z" />
    <glyph glyph-name="U" unicode="U" 
d="M473 680h92v-399q0 -151 -64.5 -221t-178.5 -70q-117 0 -177 67.5t-60 216.5v406h92v-401q0 -115 34 -161t113 -46q80 0 114.5 46.5t34.5 157.5v404z" />
    <glyph glyph-name="V" unicode="V" 
d="M500 680h93l-193 -680h-150l-193 680h96l136 -498l23 -102h31l23 102z" />
    <glyph glyph-name="W" unicode="W" 
d="M508 680h82l-90 -680h-130l-29 190l-12 150h-8l-12 -150l-29 -190h-130l-90 680h82l44 -350l24 -250h12l22 189l23 151h116l23 -151l22 -189h12l24 250z" />
    <glyph glyph-name="X" unicode="X" 
d="M494 0l-162 311h-17l-159 -311h-99l191 356l-186 324h97l160 -283h16l161 283h92l-187 -322l192 -358h-99z" />
    <glyph glyph-name="Y" unicode="Y" 
d="M371 292v-210h192v-82h-476v82h192v210l-242 388h103l132 -220l50 -100h12l51 100l132 220h96z" />
    <glyph glyph-name="Z" unicode="Z" 
d="M180 82h391v-82h-492v92l336 449l44 43v14h-370v82h472v-92l-336 -449l-45 -43v-14z" />
    <glyph glyph-name="bracketleft" unicode="[" 
d="M503 698h-202v-716h202v-82h-294v880h294v-82z" />
    <glyph glyph-name="backslash" unicode="\" 
d="M487 -100l-424 880h99l424 -880h-99z" />
    <glyph glyph-name="bracketright" unicode="]" 
d="M441 780v-880h-294v82h202v716h-202v82h294z" />
    <glyph glyph-name="asciicircum" unicode="^" 
d="M457 340l-129 285h-11l-129 -285h-102l174 365h130l174 -365h-107z" />
    <glyph glyph-name="underscore" unicode="_" 
d="M25 -44h600v-81h-600v81z" />
    <glyph glyph-name="a" unicode="a" 
d="M335 561q65 0 107 -15t61.5 -45.5t25.5 -61.5t6 -78l-5 -361h-75v66q-84 -79 -193 -77q-82 1 -127 41t-45 110q0 78 83.5 118t269.5 54l1 39q0 31 -3 50.5t-13.5 39.5t-35.5 29.5t-64 9.5q-101 0 -192 -47l-24 75q94 53 223 53zM274 68q86 -1 166 59l2 112
q-140 -11 -201 -33.5t-61 -63.5q0 -72 94 -74z" />
    <glyph glyph-name="b" unicode="b" 
d="M366 561q102 -1 155.5 -69.5t53.5 -195.5q0 -306 -273 -306q-108 0 -197 29v801h90v-240l-8 -85q84 68 179 66zM309 71q90 0 132.5 53.5t42.5 161.5q0 192 -129 194q-77 1 -160 -52v-343q49 -14 114 -14z" />
    <glyph glyph-name="c" unicode="c" 
d="M351 -10q-128 0 -196 70t-68 209q0 143 76.5 217t197.5 74q115 0 200 -45l-26 -81q-87 45 -182 45q-82 0 -128 -51t-46 -154q0 -105 42 -154t132 -49t182 51l24 -79q-94 -53 -208 -53z" />
    <glyph glyph-name="d" unicode="d" 
d="M455 820h90v-820h-78v59q-84 -72 -183 -70q-102 1 -155.5 69.5t-53.5 195.5q0 306 273 306q57 0 107 -8v268zM295 70q77 -1 160 52v343q-49 14 -114 14q-90 0 -132.5 -53.5t-42.5 -161.5q0 -192 129 -194z" />
    <glyph glyph-name="e" unicode="e" 
d="M178 280v-6q0 -104 43.5 -153.5t131.5 -49.5q91 0 182 47l24 -75q-94 -53 -208 -53q-125 0 -194.5 70.5t-69.5 208.5q0 136 73.5 213.5t185.5 77.5q122 0 177 -72.5t38 -207.5h-383zM340 482q-127 0 -155 -130h290q-1 68 -34 99t-101 31z" />
    <glyph glyph-name="f" unicode="f" 
d="M429 749q-56 0 -83 -18.5t-27 -66.5q0 -28 12 -83.5t16 -90.5h216v-80h-213v-330h213v-80h-476v80h173v330h-173v80h170q-3 23 -15.5 79t-12.5 90q0 88 56.5 129.5t148.5 41.5q89 0 159 -28l-26 -81q-56 28 -138 28z" />
    <glyph glyph-name="g" unicode="g" 
d="M459 111q74 -6 110 -32t36 -81q0 -80 -75.5 -134t-205.5 -54q-110 0 -171.5 36t-61.5 103q0 60 78 114q-52 11 -75 32.5t-23 60.5q0 60 90 102q-50 42 -50 116q0 85 66 135.5t162 50.5q59 0 107 -20l40 140h96l-70 -191q49 -44 49 -108q0 -81 -65.5 -126t-162.5 -45
q-63 0 -106 14q-68 -29 -68 -57q0 -16 15.5 -24.5t50.5 -11.5zM337 484q-68 0 -101.5 -28t-33.5 -76q0 -101 133 -101q68 0 101.5 26.5t33.5 71.5q0 51 -34 79t-99 28zM329 -114q94 0 139 28.5t45 68.5q0 26 -18.5 38.5t-69.5 16.5l-180 15q-62 -46 -62 -90q0 -77 146 -77z
" />
    <glyph glyph-name="h" unicode="h" 
d="M368 561q93 0 136 -46t43 -136v-379h-90v366q0 60 -24.5 87t-75.5 27q-79 0 -160 -52v-428h-90v820h90v-240l-8 -86q82 67 179 67z" />
    <glyph glyph-name="i" unicode="i" 
d="M335 640q-37 0 -63.5 26t-26.5 64t26.5 64t63.5 26t63.5 -26t26.5 -64t-26.5 -64t-63.5 -26zM390 80h183v-80h-476v80h203v390h-203v80h293v-470z" />
    <glyph glyph-name="j" unicode="j" 
d="M375 820q37 0 63.5 -26t26.5 -64t-26.5 -64t-63.5 -26t-63.5 26t-26.5 64t26.5 64t63.5 26zM97 550h323v-440q0 -149 -64 -220.5t-198 -71.5v85q90 0 131 51.5t41 170.5v345h-233v80z" />
    <glyph glyph-name="k" unicode="k" 
d="M457 0l-159 289l-87 -68v-221h-90v820h90v-408l-10 -105l327 256l1 -104l-154 -122l187 -337h-105z" />
    <glyph glyph-name="l" unicode="l" 
d="M370 80h193v-80h-476v80h193v740h90v-740z" />
    <glyph glyph-name="m" unicode="m" 
d="M470 561q62 0 91.5 -36.5t29.5 -115.5v-409h-80v376q0 65 -11.5 89.5t-49.5 24.5q-39 0 -87 -41q2 -24 2 -40v-409h-80v376q0 65 -11.5 89.5t-49.5 24.5q-39 0 -85 -39v-451h-80v550h66l1 -48q56 59 118 59q76 0 103 -55q64 55 123 55z" />
    <glyph glyph-name="n" unicode="n" 
d="M368 561q93 0 136 -46t43 -136v-379h-90v366q0 60 -24.5 87t-75.5 27q-79 0 -160 -52v-428h-90v550h76v-61q84 72 185 72z" />
    <glyph glyph-name="o" unicode="o" 
d="M322 -11q-116 0 -181.5 75t-65.5 205q0 135 70 213.5t183 78.5q117 0 182 -75.5t65 -209.5q0 -132 -70 -209.5t-183 -77.5zM324 70q80 0 120 53.5t40 147.5q0 209 -158 209q-80 0 -120 -54.5t-40 -151.5t39 -150.5t119 -53.5z" />
    <glyph glyph-name="p" unicode="p" 
d="M366 561q102 -1 155.5 -69.5t53.5 -195.5q0 -306 -273 -306q-57 0 -107 8v-178h-90v730h76v-61q86 74 185 72zM309 71q90 0 132.5 53.5t42.5 161.5q0 192 -129 194q-77 1 -160 -52v-343q49 -14 114 -14z" />
    <glyph glyph-name="q" unicode="q" 
d="M455 680h90v-860h-90v150l8 85q-84 -68 -179 -66q-102 1 -155.5 69.5t-53.5 195.5q0 306 273 306q57 0 116 -9zM295 70q77 -1 160 52v343q-49 14 -114 14q-90 0 -132.5 -53.5t-42.5 -161.5q0 -192 129 -194z" />
    <glyph glyph-name="r" unicode="r" 
d="M330 80h243v-80h-476v80h143v470h80l-2 -106l244 119l1 -89l-233 -113v-281z" />
    <glyph glyph-name="s" unicode="s" 
d="M314 -10q-130 0 -224 42l27 84q94 -46 201 -46q151 0 151 75q0 30 -38 51t-92.5 35.5t-108.5 32t-92 52.5t-38 85q0 76 62.5 117.5t172.5 41.5q106 0 199 -39l-26 -82q-85 41 -173 41q-144 0 -144 -69q0 -25 27.5 -43.5t68.5 -29t88.5 -26t88.5 -32.5t68.5 -49t27.5 -76
q0 -83 -66 -124t-180 -41z" />
    <glyph glyph-name="t" unicode="t" 
d="M541 108l24 -75q-75 -43 -189 -43q-105 0 -141 50.5t-34 149.5l6 280h-135v80h136l3 130h93l-17 -130h258v-80h-246l-6 -270q-2 -62 15 -95.5t71 -33.5q91 0 162 37z" />
    <glyph glyph-name="u" unicode="u" 
d="M453 550h90v-550h-76v61q-84 -72 -185 -72q-93 0 -136 46t-43 136v379h90v-366q0 -60 24.5 -87t75.5 -27q79 0 160 52v428z" />
    <glyph glyph-name="v" unicode="v" 
d="M491 550h92l-193 -550h-130l-193 550h97l111 -329l41 -141h23l41 141z" />
    <glyph glyph-name="w" unicode="w" 
d="M543 550h80l-96 -550h-121l-65 369l-11 101h-9l-11 -101l-65 -369h-122l-96 550h85l59 -359l12 -111h12l11 110l59 360h126l59 -360l11 -110h11l12 109z" />
    <glyph glyph-name="x" unicode="x" 
d="M479 0l-150 238h-11l-147 -238h-99l188 288l-185 262h99l147 -215h13l147 215h94l-185 -260l188 -290h-99z" />
    <glyph glyph-name="y" unicode="y" 
d="M370 11v-111h158v-80h-406v80h158v111l-213 539h97l115 -299l39 -124h20l40 124l113 299h92z" />
    <glyph glyph-name="z" unicode="z" 
d="M193 80h371v-80h-472v100l361 370h-351v80h452v-100z" />
    <glyph glyph-name="braceleft" unicode="{" 
d="M419 699q-82 0 -112.5 -12.5t-30.5 -37.5q0 -24 30.5 -48.5t67 -42.5t67 -47t30.5 -61q0 -81 -130 -106v-8q130 -25 130 -105q0 -28 -30.5 -57t-67 -49t-67 -45t-30.5 -46q0 -26 30.5 -39.5t112.5 -13.5h84v-81h-85q-115 0 -173 27t-58 100q0 33 20 62t48.5 49t56.5 37
t48 33.5t20 31.5q0 25 -40.5 42.5t-105.5 17.5h-69v80h69q63 0 104.5 18.5t41.5 41.5q0 17 -30 37.5t-66.5 38.5t-66.5 54t-30 80q0 130 231 130h85v-81h-84z" />
    <glyph glyph-name="bar" unicode="|" 
d="M279 -100v880h92v-880h-92z" />
    <glyph glyph-name="braceright" unicode="}" 
d="M416 380h69v-80h-69q-63 0 -104.5 -18.5t-41.5 -41.5q0 -17 30 -37.5t66.5 -38.5t66.5 -54t30 -80q0 -130 -231 -130h-85v81h84q82 0 112.5 12.5t30.5 37.5q0 24 -30.5 48.5t-67 42.5t-67 47t-30.5 61q0 81 130 106v8q-130 25 -130 105q0 28 30.5 57t67 49t67 45t30.5 46
q0 26 -30.5 39.5t-112.5 13.5h-84v81h85q115 0 173 -27t58 -100q0 -33 -20 -62t-48.5 -49t-56.5 -37t-48 -33.5t-20 -31.5q0 -25 40.5 -42.5t105.5 -17.5z" />
    <glyph glyph-name="asciitilde" unicode="~" 
d="M504 425l76 -30l-22 -59q-24 -66 -90 -66q-26 0 -80 12l-205 48l-37 -76l-76 30l22 59q24 66 90 66q28 0 81 -13l204 -47z" />
    <glyph glyph-name="exclamdown" unicode="&#xa1;" 
d="M325 689q37 0 63.5 -26.5t26.5 -63.5t-26.5 -63.5t-63.5 -26.5t-63.5 26.5t-26.5 63.5t26.5 63.5t63.5 26.5zM378 -30h-106l12 450h79z" />
    <glyph glyph-name="cent" unicode="&#xa2;" 
d="M525 192l24 -79q-78 -44 -171 -52l-7 -161h-90l7 163q-103 14 -157 83t-54 193q0 132 65 205t172 84l7 152h90l-7 -153q82 -7 147 -42l-26 -81q-68 34 -125 41l-18 -402q70 7 143 49zM169 344q0 -175 123 -198l18 401q-141 -19 -141 -203z" />
    <glyph glyph-name="sterling" unicode="&#xa3;" 
d="M229 82h329v-82h-494v82h86v197h-86v81h86v91q0 127 60.5 183t171.5 56q99 0 172 -32l-26 -79q-70 30 -154 30q-71 0 -101 -34t-30 -129v-86h305v-81h-305v-140z" />
    <glyph glyph-name="yen" unicode="&#xa5;" 
d="M371 341v-13h222v-81h-222v-92h222v-81h-222v-74h-92v74h-222v81h222v92h-222v81h222v13l-242 339h103l132 -186l51 -86h10l51 86l132 186h97z" />
    <glyph glyph-name="brokenbar" unicode="&#xa6;" 
d="M279 780h92v-320h-92v320zM279 220h92v-320h-92v320z" />
    <glyph glyph-name="section" unicode="&#xa7;" 
d="M208 50l-44 178q-48 193 -48 298q0 90 56.5 142t153.5 52q122 0 208 -45l-26 -78q-83 43 -184 43q-55 0 -84.5 -29t-29.5 -85q0 -92 47 -279l50 -197h-99zM324 -190q-122 0 -208 45l26 78q83 -43 184 -43q55 0 84.5 29t29.5 85q0 92 -47 279l-50 197h99l44 -178
q48 -193 48 -298q0 -90 -56.5 -142t-153.5 -52z" />
    <glyph glyph-name="copyright" unicode="&#xa9;" 
d="M322 10q-135 0 -218.5 82t-83.5 242q0 164 88.5 250t219.5 86q135 0 218.5 -83t83.5 -246q0 -161 -89 -246t-219 -85zM324 76q104 0 168 66t64 194q0 133 -63.5 200.5t-166.5 67.5q-105 0 -168.5 -67t-63.5 -198q0 -263 230 -263zM332 147q-81 0 -125.5 47.5t-44.5 141.5
q0 97 49.5 147t126.5 50q71 0 128 -30l-24 -68q-51 29 -109 29q-95 0 -95 -125q0 -64 22.5 -93.5t72.5 -29.5q57 0 110 32l21 -66q-62 -35 -132 -35z" />
    <glyph glyph-name="guillemotleft" unicode="&#xab;" 
d="M63 360l245 188v-101l-165 -123v-23l165 -123v-100l-245 188v94zM568 447l-165 -123v-23l165 -123v-100l-245 188v94l245 188v-101z" />
    <glyph glyph-name="logicalnot" unicode="&#xac;" 
d="M75 420h500v-250h-88v169h-412v81z" />
    <glyph glyph-name="registered" unicode="&#xae;" 
d="M328 754q126 0 206 -79t80 -214q0 -133 -83.5 -214t-208.5 -81q-126 0 -206 79t-80 214q0 133 83.5 214t208.5 81zM324 219q106 0 167.5 65.5t61.5 171.5q0 112 -60.5 178.5t-166.5 66.5t-167.5 -66t-61.5 -171q0 -112 60.5 -178.5t166.5 -66.5zM454 530q0 -61 -68 -104
l84 -139h-70l-73 123h-54v-123h-59v346h110q66 0 98 -24t32 -79zM273 580v-117h80q42 25 42 63q0 29 -18.5 41.5t-58.5 12.5h-45z" />
    <glyph glyph-name="degree" unicode="&#xb0;" 
d="M327 720q89 0 147.5 -54.5t58.5 -141.5t-59.5 -143t-150.5 -56q-89 0 -147.5 53.5t-58.5 141.5q0 87 59.5 143.5t150.5 56.5zM323 644q-54 0 -87 -32t-33 -88q0 -59 33.5 -91.5t90.5 -32.5q54 0 87 32t33 88q0 59 -33.5 91.5t-90.5 32.5z" />
    <glyph glyph-name="plusminus" unicode="&#xb1;" 
d="M367 410h208v-81h-208v-179h-83v179h-209v81h209v180h83v-180zM75 0v81h500v-81h-500z" />
    <glyph glyph-name="paragraph" unicode="&#xb6;" 
d="M91 479q1 103 55.5 152t173.5 49v-418q-114 0 -172 54t-57 163zM500 680v-580q0 -137 -69 -207t-193 -75v87q92 5 132 54.5t40 155.5v565h90z" />
    <glyph glyph-name="periodcentered" unicode="&#xb7;" 
d="M325 206q-37 0 -63.5 26t-26.5 64t26.5 64t63.5 26t63.5 -26t26.5 -64t-26.5 -64t-63.5 -26z" />
    <glyph glyph-name="guillemotright" unicode="&#xbb;" 
d="M82 448v100l245 -188v-94l-245 -188v101l165 123v23zM342 548l245 -188v-94l-245 -188v101l165 123v23l-165 123v100z" />
    <glyph glyph-name="questiondown" unicode="&#xbf;" 
d="M343 689q37 0 63.5 -26.5t26.5 -63.5t-26.5 -63.5t-63.5 -26.5t-63.5 26.5t-26.5 63.5t26.5 63.5t63.5 26.5zM393 450l25 -82q-53 -19 -91 -36t-73.5 -39.5t-54 -49t-18.5 -56.5q0 -116 164 -116q99 0 192 48l24 -76q-94 -53 -218 -53q-120 0 -186 49.5t-66 142.5
q0 51 23.5 93t70 74t94 54.5t114.5 46.5z" />
    <glyph glyph-name="Agrave" unicode="&#xc0;" 
d="M368 730h-93l-136 140h108zM509 0l-69 233h-234l-68 -233h-93l207 680h146l207 -680h-96zM230 314h186l-55 184l-24 102h-29l-24 -102z" />
    <glyph glyph-name="Aacute" unicode="&#xc1;" 
d="M507 870l-136 -140h-93l121 140h108zM509 0l-69 233h-234l-68 -233h-93l207 680h146l207 -680h-96zM230 314h186l-55 184l-24 102h-29l-24 -102z" />
    <glyph glyph-name="Acircumflex" unicode="&#xc2;" 
d="M317 811l-70 -81h-94l119 140h102l119 -140h-98l-70 81h-8zM509 0l-69 233h-234l-68 -233h-93l207 680h146l207 -680h-96zM230 314h186l-55 184l-24 102h-29l-24 -102z" />
    <glyph glyph-name="Atilde" unicode="&#xc3;" 
d="M237 793l-35 -65l-67 27l22 46q32 66 79 66q35 0 99 -28l74 -32l35 65l67 -27l-22 -46q-32 -66 -79 -66q-36 0 -99 28zM509 0l-69 233h-234l-68 -233h-93l207 680h146l207 -680h-96zM230 314h186l-55 184l-24 102h-29l-24 -102z" />
    <glyph glyph-name="Adieresis" unicode="&#xc4;" 
d="M218 728q-35 0 -56 20.5t-21 51.5t21 52t56 21t56.5 -21t21.5 -52t-21.5 -51.5t-56.5 -20.5zM427 728q-35 0 -56 20.5t-21 51.5t21 52t56 21t56.5 -21t21.5 -52t-21.5 -51.5t-56.5 -20.5zM509 0l-69 233h-234l-68 -233h-93l207 680h146l207 -680h-96zM230 314h186
l-55 184l-24 102h-29l-24 -102z" />
    <glyph glyph-name="Aring" unicode="&#xc5;" 
d="M509 0l-69 233h-234l-68 -233h-93l197 646q-36 27 -36 81q0 51 33 78.5t87 27.5q51 0 82.5 -26t31.5 -78q0 -50 -33 -78l198 -651h-96zM323 776q-45 0 -45 -47q0 -49 45 -49t45 47q0 49 -45 49zM230 314h186l-55 184l-24 102h-29l-24 -102z" />
    <glyph glyph-name="AE" unicode="&#xc6;" 
d="M582 599h-165v-219h155v-81h-155v-218h165v-81h-254v223h-137l-60 -223h-90l193 680h348v-81zM213 304h115v296h-39l-23 -102z" />
    <glyph glyph-name="Ccedilla" unicode="&#xc7;" 
d="M579 43q-78 -44 -168 -52l-20 -37q50 -22 50 -60q0 -26 -36 -74h-76q28 41 28 56q0 12 -10.5 20t-46.5 21l37 75q-120 10 -190.5 93.5t-70.5 248.5q0 95 27 166.5t73 111.5t98.5 59t111.5 19q110 0 195 -45l-26 -79q-44 23 -81 32.5t-96 9.5q-40 0 -75.5 -13.5t-66 -43
t-48.5 -84t-18 -128.5q0 -144 55 -205.5t153 -61.5q86 0 177 47z" />
    <glyph glyph-name="Egrave" unicode="&#xc8;" 
d="M380 730h-93l-136 140h108zM548 599h-342v-219h332v-81h-332v-218h342v-81h-434v680h434v-81z" />
    <glyph glyph-name="Eacute" unicode="&#xc9;" 
d="M519 870l-136 -140h-93l121 140h108zM548 599h-342v-219h332v-81h-332v-218h342v-81h-434v680h434v-81z" />
    <glyph glyph-name="Ecircumflex" unicode="&#xca;" 
d="M329 811l-70 -81h-94l119 140h102l119 -140h-98l-70 81h-8zM548 599h-342v-219h332v-81h-332v-218h342v-81h-434v680h434v-81z" />
    <glyph glyph-name="Edieresis" unicode="&#xcb;" 
d="M230 728q-35 0 -56 20.5t-21 51.5t21 52t56 21t56.5 -21t21.5 -52t-21.5 -51.5t-56.5 -20.5zM439 728q-35 0 -56 20.5t-21 51.5t21 52t56 21t56.5 -21t21.5 -52t-21.5 -51.5t-56.5 -20.5zM548 599h-342v-219h332v-81h-332v-218h342v-81h-434v680h434v-81z" />
    <glyph glyph-name="Igrave" unicode="&#xcc;" 
d="M370 730h-93l-136 140h108zM563 598h-192v-516h192v-82h-476v82h192v516h-192v82h476v-82z" />
    <glyph glyph-name="Iacute" unicode="&#xcd;" 
d="M509 870l-136 -140h-93l121 140h108zM563 598h-192v-516h192v-82h-476v82h192v516h-192v82h476v-82z" />
    <glyph glyph-name="Icircumflex" unicode="&#xce;" 
d="M319 811l-70 -81h-94l119 140h102l119 -140h-98l-70 81h-8zM563 598h-192v-516h192v-82h-476v82h192v516h-192v82h476v-82z" />
    <glyph glyph-name="Idieresis" unicode="&#xcf;" 
d="M220 728q-35 0 -56 20.5t-21 51.5t21 52t56 21t56.5 -21t21.5 -52t-21.5 -51.5t-56.5 -20.5zM429 728q-35 0 -56 20.5t-21 51.5t21 52t56 21t56.5 -21t21.5 -52t-21.5 -51.5t-56.5 -20.5zM563 598h-192v-516h192v-82h-476v82h192v516h-192v82h476v-82z" />
    <glyph glyph-name="Eth" unicode="&#xd0;" 
d="M287 680q155 0 231.5 -82t76.5 -252q0 -346 -327 -346h-174v300h-90v80h90v300h193zM260 81q134 0 187.5 61t53.5 199q0 137 -51 197.5t-170 60.5h-94v-219h128v-80h-128v-219h74z" />
    <glyph glyph-name="Ntilde" unicode="&#xd1;" 
d="M239 793l-35 -65l-67 27l22 46q32 66 79 66q35 0 99 -28l74 -32l35 65l67 -27l-22 -46q-32 -66 -79 -66q-36 0 -99 28zM470 680h85v-680h-142l-228 577h-10l5 -577h-85v680h142l229 -577h9z" />
    <glyph glyph-name="Ograve" unicode="&#xd2;" 
d="M372 740h-93l-136 140h108zM322 -10q-127 0 -199.5 84.5t-72.5 259.5q0 179 77.5 267.5t200.5 88.5q127 0 199.5 -85.5t72.5 -263.5q0 -176 -77.5 -263.5t-200.5 -87.5zM324 72q90 0 136 62.5t46 201.5q0 145 -45.5 208.5t-134.5 63.5q-90 0 -136 -63.5t-46 -205.5
t45.5 -204.5t134.5 -62.5z" />
    <glyph glyph-name="Oacute" unicode="&#xd3;" 
d="M282 740l121 140h108l-136 -140h-93zM322 -10q-127 0 -199.5 84.5t-72.5 259.5q0 179 77.5 267.5t200.5 88.5q127 0 199.5 -85.5t72.5 -263.5q0 -176 -77.5 -263.5t-200.5 -87.5zM324 72q90 0 136 62.5t46 201.5q0 145 -45.5 208.5t-134.5 63.5q-90 0 -136 -63.5
t-46 -205.5t45.5 -204.5t134.5 -62.5z" />
    <glyph glyph-name="Ocircumflex" unicode="&#xd4;" 
d="M399 740l-70 81h-8l-70 -81h-94l119 140h102l119 -140h-98zM322 -10q-127 0 -199.5 84.5t-72.5 259.5q0 179 77.5 267.5t200.5 88.5q127 0 199.5 -85.5t72.5 -263.5q0 -176 -77.5 -263.5t-200.5 -87.5zM324 72q90 0 136 62.5t46 201.5q0 145 -45.5 208.5t-134.5 63.5
q-90 0 -136 -63.5t-46 -205.5t45.5 -204.5t134.5 -62.5z" />
    <glyph glyph-name="Otilde" unicode="&#xd5;" 
d="M448 882l67 -27l-22 -46q-32 -66 -79 -66q-36 0 -99 28l-74 32l-35 -65l-67 27l22 46q32 66 79 66q35 0 99 -28l74 -32zM322 -10q-127 0 -199.5 84.5t-72.5 259.5q0 179 77.5 267.5t200.5 88.5q127 0 199.5 -85.5t72.5 -263.5q0 -176 -77.5 -263.5t-200.5 -87.5zM324 72
q90 0 136 62.5t46 201.5q0 145 -45.5 208.5t-134.5 63.5q-90 0 -136 -63.5t-46 -205.5t45.5 -204.5t134.5 -62.5z" />
    <glyph glyph-name="Odieresis" unicode="&#xd6;" 
d="M222 738q-35 0 -56 20.5t-21 51.5t21 52t56 21t56.5 -21t21.5 -52t-21.5 -51.5t-56.5 -20.5zM431 738q-35 0 -56 20.5t-21 51.5t21 52t56 21t56.5 -21t21.5 -52t-21.5 -51.5t-56.5 -20.5zM322 -10q-127 0 -199.5 84.5t-72.5 259.5q0 179 77.5 267.5t200.5 88.5
q127 0 199.5 -85.5t72.5 -263.5q0 -176 -77.5 -263.5t-200.5 -87.5zM324 72q90 0 136 62.5t46 201.5q0 145 -45.5 208.5t-134.5 63.5q-90 0 -136 -63.5t-46 -205.5t45.5 -204.5t134.5 -62.5z" />
    <glyph glyph-name="multiply" unicode="&#xd7;" 
d="M552 171l-57 -58l-170 171l-170 -170l-55 56l169 169l-170 170l57 58l171 -170l169 169l55 -56l-169 -169z" />
    <glyph glyph-name="Oslash" unicode="&#xd8;" 
d="M526 607q74 -90 74 -266t-77.5 -263.5t-200.5 -87.5q-77 0 -135 31l-57 -99l-70 40l64 111q-74 88 -74 261q0 179 77.5 267.5t200.5 88.5q77 0 135 -31l57 99l70 -40zM144 339q0 -123 28 -183l250 432q-37 20 -96 20q-90 0 -136 -63.5t-46 -205.5zM324 72q90 0 136 62.5
t46 201.5q0 126 -28 188l-250 -432q37 -20 96 -20z" />
    <glyph glyph-name="Ugrave" unicode="&#xd9;" 
d="M370 730h-93l-136 140h108zM473 680h92v-399q0 -151 -64.5 -221t-178.5 -70q-117 0 -177 67.5t-60 216.5v406h92v-401q0 -115 34 -161t113 -46q80 0 114.5 46.5t34.5 157.5v404z" />
    <glyph glyph-name="Uacute" unicode="&#xda;" 
d="M280 730l121 140h108l-136 -140h-93zM473 680h92v-399q0 -151 -64.5 -221t-178.5 -70q-117 0 -177 67.5t-60 216.5v406h92v-401q0 -115 34 -161t113 -46q80 0 114.5 46.5t34.5 157.5v404z" />
    <glyph glyph-name="Ucircumflex" unicode="&#xdb;" 
d="M397 730l-70 81h-8l-70 -81h-94l119 140h102l119 -140h-98zM473 680h92v-399q0 -151 -64.5 -221t-178.5 -70q-117 0 -177 67.5t-60 216.5v406h92v-401q0 -115 34 -161t113 -46q80 0 114.5 46.5t34.5 157.5v404z" />
    <glyph glyph-name="Udieresis" unicode="&#xdc;" 
d="M220 728q-35 0 -56 20.5t-21 51.5t21 52t56 21t56.5 -21t21.5 -52t-21.5 -51.5t-56.5 -20.5zM429 728q-35 0 -56 20.5t-21 51.5t21 52t56 21t56.5 -21t21.5 -52t-21.5 -51.5t-56.5 -20.5zM473 680h92v-399q0 -151 -64.5 -221t-178.5 -70q-117 0 -177 67.5t-60 216.5v406
h92v-401q0 -115 34 -161t113 -46q80 0 114.5 46.5t34.5 157.5v404z" />
    <glyph glyph-name="Yacute" unicode="&#xdd;" 
d="M509 870l-136 -140h-93l121 140h108zM371 292v-210h192v-82h-476v82h192v210l-242 388h103l132 -220l50 -100h12l51 100l132 220h96z" />
    <glyph glyph-name="Thorn" unicode="&#xde;" 
d="M324 565q118 0 186.5 -54t68.5 -159q0 -112 -73 -169.5t-194 -57.5h-112v-125h-92v680h92v-115h124zM304 206q93 0 137 33.5t44 106.5q0 138 -171 138h-114v-278h104z" />
    <glyph glyph-name="germandbls" unicode="&#xdf;" 
d="M485 292q110 -30 110 -132q0 -74 -58.5 -122t-167.5 -48q-59 0 -108 9v76q51 -9 112 -9q128 0 128 89q0 41 -31 62t-118 21h-85v77h130q85 36 85 93q0 75 -127 74q-96 -2 -170 -39v-443h-89v579q0 133 60 192t174 59q90 0 160 -28l-26 -81q-56 28 -138 28q-79 0 -110 -37
t-31 -122l-7 -73q84 44 187 44q101 -1 155 -37.5t54 -106.5q0 -82 -89 -125z" />
    <glyph glyph-name="agrave" unicode="&#xe0;" 
d="M370 650h-93l-126 170h108zM335 561q65 0 107 -15t61.5 -45.5t25.5 -61.5t6 -78l-5 -361h-75v66q-84 -79 -193 -77q-82 1 -127 41t-45 110q0 78 83.5 118t269.5 54l1 39q0 31 -3 50.5t-13.5 39.5t-35.5 29.5t-64 9.5q-101 0 -192 -47l-24 75q94 53 223 53zM274 68
q86 -1 166 59l2 112q-140 -11 -201 -33.5t-61 -63.5q0 -72 94 -74z" />
    <glyph glyph-name="aacute" unicode="&#xe1;" 
d="M483 820l-126 -170h-93l111 170h108zM335 561q65 0 107 -15t61.5 -45.5t25.5 -61.5t6 -78l-5 -361h-75v66q-84 -79 -193 -77q-82 1 -127 41t-45 110q0 78 83.5 118t269.5 54l1 39q0 31 -3 50.5t-13.5 39.5t-35.5 29.5t-64 9.5q-101 0 -192 -47l-24 75q94 53 223 53z
M274 68q86 -1 166 59l2 112q-140 -11 -201 -33.5t-61 -63.5q0 -72 94 -74z" />
    <glyph glyph-name="acircumflex" unicode="&#xe2;" 
d="M312 752l-73 -102h-92l119 170h102l119 -170h-94l-73 102h-8zM335 561q65 0 107 -15t61.5 -45.5t25.5 -61.5t6 -78l-5 -361h-75v66q-84 -79 -193 -77q-82 1 -127 41t-45 110q0 78 83.5 118t269.5 54l1 39q0 31 -3 50.5t-13.5 39.5t-35.5 29.5t-64 9.5q-101 0 -192 -47
l-24 75q94 53 223 53zM274 68q86 -1 166 59l2 112q-140 -11 -201 -33.5t-61 -63.5q0 -72 94 -74z" />
    <glyph glyph-name="atilde" unicode="&#xe3;" 
d="M232 721l-33 -62l-76 30l22 49q17 37 35 50t45 13q32 0 96 -24l81 -30l33 62l76 -30l-22 -49q-17 -37 -35 -50t-45 -13q-32 0 -96 24zM335 561q65 0 107 -15t61.5 -45.5t25.5 -61.5t6 -78l-5 -361h-75v66q-84 -79 -193 -77q-82 1 -127 41t-45 110q0 78 83.5 118t269.5 54
l1 39q0 31 -3 50.5t-13.5 39.5t-35.5 29.5t-64 9.5q-101 0 -192 -47l-24 75q94 53 223 53zM274 68q86 -1 166 59l2 112q-140 -11 -201 -33.5t-61 -63.5q0 -72 94 -74z" />
    <glyph glyph-name="adieresis" unicode="&#xe4;" 
d="M212 654q-34 0 -57.5 24t-23.5 58t23.5 57.5t57.5 23.5t58 -23.5t24 -57.5t-24 -58t-58 -24zM421 654q-34 0 -57.5 24t-23.5 58t23.5 57.5t57.5 23.5t58 -23.5t24 -57.5t-23.5 -58t-58.5 -24zM335 561q65 0 107 -15t61.5 -45.5t25.5 -61.5t6 -78l-5 -361h-75v66
q-84 -79 -193 -77q-82 1 -127 41t-45 110q0 78 83.5 118t269.5 54l1 39q0 31 -3 50.5t-13.5 39.5t-35.5 29.5t-64 9.5q-101 0 -192 -47l-24 75q94 53 223 53zM274 68q86 -1 166 59l2 112q-140 -11 -201 -33.5t-61 -63.5q0 -72 94 -74z" />
    <glyph glyph-name="aring" unicode="&#xe5;" 
d="M315 631q-52 0 -83.5 26t-31.5 77q0 50 33 78t86 28q52 0 83.5 -26.5t31.5 -77.5q0 -50 -33 -77.5t-86 -27.5zM316 783q-44 0 -44 -47q0 -49 46 -49q44 0 44 47q0 49 -46 49zM335 561q65 0 107 -15t61.5 -45.5t25.5 -61.5t6 -78l-5 -361h-75v66q-84 -79 -193 -77
q-82 1 -127 41t-45 110q0 78 83.5 118t269.5 54l1 39q0 31 -3 50.5t-13.5 39.5t-35.5 29.5t-64 9.5q-101 0 -192 -47l-24 75q94 53 223 53zM274 68q86 -1 166 59l2 112q-140 -11 -201 -33.5t-61 -63.5q0 -72 94 -74z" />
    <glyph glyph-name="ae" unicode="&#xe6;" 
d="M462 69q53 0 109 33l21 -67q-63 -43 -134 -43q-86 0 -131 73q-62 -73 -127 -73q-72 0 -110.5 38.5t-38.5 109.5t61 108.5t172 54.5l1 68q1 57 -10.5 83.5t-45.5 26.5q-48 0 -132 -50l-24 75q89 53 163 53q79 0 104 -70q48 69 114 69q83 0 117.5 -74t17.5 -214h-222
q1 -201 95 -201zM449 481q-34 0 -54 -31t-26 -110h143q6 141 -63 141zM201 69q47 0 99 58q-13 43 -16 106q-77 -13 -113 -32t-36 -59q0 -34 17.5 -53.5t48.5 -19.5z" />
    <glyph glyph-name="ccedilla" unicode="&#xe7;" 
d="M559 43q-78 -43 -165 -51l-21 -38q50 -22 50 -60q0 -26 -36 -74h-76q28 41 28 56q0 12 -10.5 20t-46.5 21l37 74q-112 8 -172 78t-60 200q0 143 76.5 217t197.5 74q115 0 200 -45l-26 -81q-87 45 -182 45q-82 0 -128 -51t-46 -154q0 -105 42 -154t132 -49t182 51z" />
    <glyph glyph-name="egrave" unicode="&#xe8;" 
d="M396 650h-93l-126 170h108zM178 280v-6q0 -104 43.5 -153.5t131.5 -49.5q91 0 182 47l24 -75q-94 -53 -208 -53q-125 0 -194.5 70.5t-69.5 208.5q0 136 73.5 213.5t185.5 77.5q122 0 177 -72.5t38 -207.5h-383zM340 482q-127 0 -155 -130h290q-1 68 -34 99t-101 31z" />
    <glyph glyph-name="eacute" unicode="&#xe9;" 
d="M509 820l-126 -170h-93l111 170h108zM178 280v-6q0 -104 43.5 -153.5t131.5 -49.5q91 0 182 47l24 -75q-94 -53 -208 -53q-125 0 -194.5 70.5t-69.5 208.5q0 136 73.5 213.5t185.5 77.5q122 0 177 -72.5t38 -207.5h-383zM340 482q-127 0 -155 -130h290q-1 68 -34 99
t-101 31z" />
    <glyph glyph-name="ecircumflex" unicode="&#xea;" 
d="M338 752l-73 -102h-92l119 170h102l119 -170h-94l-73 102h-8zM178 280v-6q0 -104 43.5 -153.5t131.5 -49.5q91 0 182 47l24 -75q-94 -53 -208 -53q-125 0 -194.5 70.5t-69.5 208.5q0 136 73.5 213.5t185.5 77.5q122 0 177 -72.5t38 -207.5h-383zM340 482
q-127 0 -155 -130h290q-1 68 -34 99t-101 31z" />
    <glyph glyph-name="edieresis" unicode="&#xeb;" 
d="M238 654q-34 0 -57.5 24t-23.5 58t23.5 57.5t57.5 23.5t58 -23.5t24 -57.5t-24 -58t-58 -24zM447 654q-34 0 -57.5 24t-23.5 58t23.5 57.5t57.5 23.5t58 -23.5t24 -57.5t-23.5 -58t-58.5 -24zM178 280v-6q0 -104 43.5 -153.5t131.5 -49.5q91 0 182 47l24 -75
q-94 -53 -208 -53q-125 0 -194.5 70.5t-69.5 208.5q0 136 73.5 213.5t185.5 77.5q122 0 177 -72.5t38 -207.5h-383zM340 482q-127 0 -155 -130h290q-1 68 -34 99t-101 31z" />
    <glyph glyph-name="igrave" unicode="&#xec;" 
d="M388 650h-93l-126 170h108zM390 80h183v-80h-476v80h203v390h-203v80h293v-470z" />
    <glyph glyph-name="iacute" unicode="&#xed;" 
d="M501 820l-126 -170h-93l111 170h108zM390 80h183v-80h-476v80h203v390h-203v80h293v-470z" />
    <glyph glyph-name="icircumflex" unicode="&#xee;" 
d="M330 752l-73 -102h-92l119 170h102l119 -170h-94l-73 102h-8zM390 80h183v-80h-476v80h203v390h-203v80h293v-470z" />
    <glyph glyph-name="idieresis" unicode="&#xef;" 
d="M230 654q-34 0 -57.5 24t-23.5 58t23.5 57.5t57.5 23.5t58 -23.5t24 -57.5t-24 -58t-58 -24zM439 654q-34 0 -57.5 24t-23.5 58t23.5 57.5t57.5 23.5t58 -23.5t24 -57.5t-23.5 -58t-58.5 -24zM390 80h183v-80h-476v80h203v390h-203v80h293v-470z" />
    <glyph glyph-name="eth" unicode="&#xf0;" 
d="M410 703q165 -196 165 -427q0 -133 -68 -210t-185 -77q-116 0 -181.5 75t-65.5 205q0 146 72 218.5t198 72.5q33 0 68 -9q-28 49 -78 109l-133 -77l-39 67l119 68q-45 48 -102 102h116q48 -46 60 -59l120 69l38 -67zM324 70q160 0 160 201q0 107 -30 193q-48 15 -113 15
q-175 0 -175 -205q0 -97 39 -150.5t119 -53.5z" />
    <glyph glyph-name="ntilde" unicode="&#xf1;" 
d="M242 721l-33 -62l-76 30l22 49q17 37 35 50t45 13q32 0 96 -24l81 -30l33 62l76 -30l-22 -49q-17 -37 -35 -50t-45 -13q-32 0 -96 24zM368 561q93 0 136 -46t43 -136v-379h-90v366q0 60 -24.5 87t-75.5 27q-79 0 -160 -52v-428h-90v550h76v-61q84 72 185 72z" />
    <glyph glyph-name="ograve" unicode="&#xf2;" 
d="M378 650h-93l-126 170h108zM322 -11q-116 0 -181.5 75t-65.5 205q0 135 70 213.5t183 78.5q117 0 182 -75.5t65 -209.5q0 -132 -70 -209.5t-183 -77.5zM324 70q80 0 120 53.5t40 147.5q0 209 -158 209q-80 0 -120 -54.5t-40 -151.5t39 -150.5t119 -53.5z" />
    <glyph glyph-name="oacute" unicode="&#xf3;" 
d="M272 650l111 170h108l-126 -170h-93zM322 -11q-116 0 -181.5 75t-65.5 205q0 135 70 213.5t183 78.5q117 0 182 -75.5t65 -209.5q0 -132 -70 -209.5t-183 -77.5zM324 70q80 0 120 53.5t40 147.5q0 209 -158 209q-80 0 -120 -54.5t-40 -151.5t39 -150.5t119 -53.5z" />
    <glyph glyph-name="ocircumflex" unicode="&#xf4;" 
d="M401 650l-73 102h-8l-73 -102h-92l119 170h102l119 -170h-94zM322 -11q-116 0 -181.5 75t-65.5 205q0 135 70 213.5t183 78.5q117 0 182 -75.5t65 -209.5q0 -132 -70 -209.5t-183 -77.5zM324 70q80 0 120 53.5t40 147.5q0 209 -158 209q-80 0 -120 -54.5t-40 -151.5
t39 -150.5t119 -53.5z" />
    <glyph glyph-name="otilde" unicode="&#xf5;" 
d="M443 809l76 -30l-22 -49q-17 -37 -35 -50t-45 -13q-32 0 -96 24l-81 30l-33 -62l-76 30l22 49q17 37 35 50t45 13q32 0 96 -24l81 -30zM322 -11q-116 0 -181.5 75t-65.5 205q0 135 70 213.5t183 78.5q117 0 182 -75.5t65 -209.5q0 -132 -70 -209.5t-183 -77.5zM324 70
q80 0 120 53.5t40 147.5q0 209 -158 209q-80 0 -120 -54.5t-40 -151.5t39 -150.5t119 -53.5z" />
    <glyph glyph-name="odieresis" unicode="&#xf6;" 
d="M220 654q-34 0 -57.5 24t-23.5 58t23.5 57.5t57.5 23.5t58 -23.5t24 -57.5t-24 -58t-58 -24zM429 654q-34 0 -57.5 24t-23.5 58t23.5 57.5t57.5 23.5t58 -23.5t24 -57.5t-23.5 -58t-58.5 -24zM322 -11q-116 0 -181.5 75t-65.5 205q0 135 70 213.5t183 78.5
q117 0 182 -75.5t65 -209.5q0 -132 -70 -209.5t-183 -77.5zM324 70q80 0 120 53.5t40 147.5q0 209 -158 209q-80 0 -120 -54.5t-40 -151.5t39 -150.5t119 -53.5z" />
    <glyph glyph-name="divide" unicode="&#xf7;" 
d="M262 460l1 160h124l-14 -160h-111zM75 299v81h500v-81h-500zM262 59l1 160h124l-14 -160h-111z" />
    <glyph glyph-name="oslash" unicode="&#xf8;" 
d="M499 497q76 -76 76 -221q0 -132 -70 -209.5t-183 -77.5q-57 0 -105 20l-55 -96l-69 40l58 100q-76 74 -76 216q0 135 70 213.5t183 78.5q57 0 105 -20l55 96l69 -40zM166 274q0 -98 29 -145l197 342q-28 9 -66 9q-80 0 -120 -54.5t-40 -151.5zM324 70q80 0 120 53.5
t40 147.5q0 102 -29 149l-197 -341q28 -9 66 -9z" />
    <glyph glyph-name="ugrave" unicode="&#xf9;" 
d="M378 650h-93l-126 170h108zM453 550h90v-550h-76v61q-84 -72 -185 -72q-93 0 -136 46t-43 136v379h90v-366q0 -60 24.5 -87t75.5 -27q79 0 160 52v428z" />
    <glyph glyph-name="uacute" unicode="&#xfa;" 
d="M491 820l-126 -170h-93l111 170h108zM453 550h90v-550h-76v61q-84 -72 -185 -72q-93 0 -136 46t-43 136v379h90v-366q0 -60 24.5 -87t75.5 -27q79 0 160 52v428z" />
    <glyph glyph-name="ucircumflex" unicode="&#xfb;" 
d="M320 752l-73 -102h-92l119 170h102l119 -170h-94l-73 102h-8zM453 550h90v-550h-76v61q-84 -72 -185 -72q-93 0 -136 46t-43 136v379h90v-366q0 -60 24.5 -87t75.5 -27q79 0 160 52v428z" />
    <glyph glyph-name="udieresis" unicode="&#xfc;" 
d="M220 654q-34 0 -57.5 24t-23.5 58t23.5 57.5t57.5 23.5t58 -23.5t24 -57.5t-24 -58t-58 -24zM429 654q-34 0 -57.5 24t-23.5 58t23.5 57.5t57.5 23.5t58 -23.5t24 -57.5t-23.5 -58t-58.5 -24zM453 550h90v-550h-76v61q-84 -72 -185 -72q-93 0 -136 46t-43 136v379h90
v-366q0 -60 24.5 -87t75.5 -27q79 0 160 52v428z" />
    <glyph glyph-name="yacute" unicode="&#xfd;" 
d="M499 820l-126 -170h-93l111 170h108zM370 11v-111h158v-80h-406v80h158v111l-213 539h97l115 -299l39 -124h20l40 124l113 299h92z" />
    <glyph glyph-name="thorn" unicode="&#xfe;" 
d="M366 561q102 -1 155.5 -69.5t53.5 -195.5q0 -306 -273 -306q-57 0 -107 8v-178h-90v1000h90v-240l-8 -85q84 68 179 66zM309 71q90 0 132.5 53.5t42.5 161.5q0 192 -129 194q-77 1 -160 -52v-343q49 -14 114 -14z" />
    <glyph glyph-name="ydieresis" unicode="&#xff;" 
d="M228 654q-34 0 -57.5 24t-23.5 58t23.5 57.5t57.5 23.5t58 -23.5t24 -57.5t-24 -58t-58 -24zM437 654q-34 0 -57.5 24t-23.5 58t23.5 57.5t57.5 23.5t58 -23.5t24 -57.5t-23.5 -58t-58.5 -24zM370 11v-111h158v-80h-406v80h158v111l-213 539h97l115 -299l39 -124h20
l40 124l113 299h92z" />
    <glyph glyph-name="Amacron" unicode="&#x100;" 
d="M478 826v-73h-310v73h310zM509 0l-69 233h-234l-68 -233h-93l207 680h146l207 -680h-96zM230 314h186l-55 184l-24 102h-29l-24 -102z" />
    <glyph glyph-name="amacron" unicode="&#x101;" 
d="M477 766v-73h-320v73h320zM335 561q65 0 107 -15t61.5 -45.5t25.5 -61.5t6 -78l-5 -361h-75v66q-84 -79 -193 -77q-82 1 -127 41t-45 110q0 78 83.5 118t269.5 54l1 39q0 31 -3 50.5t-13.5 39.5t-35.5 29.5t-64 9.5q-101 0 -192 -47l-24 75q94 53 223 53zM274 68
q86 -1 166 59l2 112q-140 -11 -201 -33.5t-61 -63.5q0 -72 94 -74z" />
    <glyph glyph-name="Abreve" unicode="&#x102;" 
d="M322 730q-158 0 -162 140h86q6 -67 77 -67t77 67h86q-2 -70 -45 -105t-119 -35zM509 0l-69 233h-234l-68 -233h-93l207 680h146l207 -680h-96zM230 314h186l-55 184l-24 102h-29l-24 -102z" />
    <glyph glyph-name="abreve" unicode="&#x103;" 
d="M314 651q-155 0 -159 160h88q2 -43 18.5 -64.5t55.5 -21.5t55.5 21.5t18.5 64.5h88q-2 -79 -44.5 -119.5t-120.5 -40.5zM335 561q65 0 107 -15t61.5 -45.5t25.5 -61.5t6 -78l-5 -361h-75v66q-84 -79 -193 -77q-82 1 -127 41t-45 110q0 78 83.5 118t269.5 54l1 39
q0 31 -3 50.5t-13.5 39.5t-35.5 29.5t-64 9.5q-101 0 -192 -47l-24 75q94 53 223 53zM274 68q86 -1 166 59l2 112q-140 -11 -201 -33.5t-61 -63.5q0 -72 94 -74z" />
    <glyph glyph-name="Aogonek" unicode="&#x104;" 
d="M510 -92q0 -21 36 -21q28 0 59 6v-76q-39 -7 -70 -7q-110 0 -110 77q0 29 18 53.5t66 60.5l-69 232h-234l-68 -233h-93l207 680h146l207 -680q-58 -42 -76.5 -60.5t-18.5 -31.5zM230 314h186l-55 184l-24 102h-29l-24 -102z" />
    <glyph glyph-name="aogonek" unicode="&#x105;" 
d="M335 561q65 0 107 -15t61.5 -45.5t25.5 -61.5t6 -78l-5 -361q-58 -42 -76.5 -60.5t-18.5 -31.5q0 -21 36 -21q27 0 59 6v-76q-39 -7 -70 -7q-110 0 -110 77q0 31 21.5 58t83.5 72v49q-84 -79 -193 -77q-82 1 -127 41t-45 110q0 78 83.5 118t269.5 54l1 39q0 31 -3 50.5
t-13.5 39.5t-35.5 29.5t-64 9.5q-101 0 -192 -47l-24 75q94 53 223 53zM274 68q86 -1 166 59l2 112q-140 -11 -201 -33.5t-61 -63.5q0 -72 94 -74z" />
    <glyph glyph-name="Cacute" unicode="&#x106;" 
d="M340 740l121 140h108l-136 -140h-93zM376 -10q-136 0 -218 82.5t-82 261.5q0 95 27 166.5t73 111.5t98.5 59t111.5 19q110 0 195 -45l-26 -79q-44 23 -81 32.5t-96 9.5q-40 0 -75.5 -13.5t-66 -43t-48.5 -84t-18 -128.5q0 -144 55 -205.5t153 -61.5q86 0 177 47l24 -76
q-94 -53 -203 -53z" />
    <glyph glyph-name="cacute" unicode="&#x107;" 
d="M309 650l111 170h108l-126 -170h-93zM351 -10q-128 0 -196 70t-68 209q0 143 76.5 217t197.5 74q115 0 200 -45l-26 -81q-87 45 -182 45q-82 0 -128 -51t-46 -154q0 -105 42 -154t132 -49t182 51l24 -79q-94 -53 -208 -53z" />
    <glyph glyph-name="Ccircumflex" unicode="&#x108;" 
d="M457 740l-70 81h-8l-70 -81h-94l119 140h102l119 -140h-98zM376 -10q-136 0 -218 82.5t-82 261.5q0 95 27 166.5t73 111.5t98.5 59t111.5 19q110 0 195 -45l-26 -79q-44 23 -81 32.5t-96 9.5q-40 0 -75.5 -13.5t-66 -43t-48.5 -84t-18 -128.5q0 -144 55 -205.5t153 -61.5
q86 0 177 47l24 -76q-94 -53 -203 -53z" />
    <glyph glyph-name="ccircumflex" unicode="&#x109;" 
d="M438 650l-73 102h-8l-73 -102h-92l119 170h102l119 -170h-94zM351 -10q-128 0 -196 70t-68 209q0 143 76.5 217t197.5 74q115 0 200 -45l-26 -81q-87 45 -182 45q-82 0 -128 -51t-46 -154q0 -105 42 -154t132 -49t182 51l24 -79q-94 -53 -208 -53z" />
    <glyph glyph-name="Cdotaccent" unicode="&#x10a;" 
d="M385 730q-38 0 -61.5 23t-23.5 57t23.5 57t61.5 23t61.5 -23t23.5 -57t-23.5 -57t-61.5 -23zM376 -10q-136 0 -218 82.5t-82 261.5q0 95 27 166.5t73 111.5t98.5 59t111.5 19q110 0 195 -45l-26 -79q-44 23 -81 32.5t-96 9.5q-40 0 -75.5 -13.5t-66 -43t-48.5 -84
t-18 -128.5q0 -144 55 -205.5t153 -61.5q86 0 177 47l24 -76q-94 -53 -203 -53z" />
    <glyph glyph-name="cdotaccent" unicode="&#x10b;" 
d="M362 640q-38 0 -64 26t-26 64t26 64t64 26t64 -26t26 -64t-26 -64t-64 -26zM351 -10q-128 0 -196 70t-68 209q0 143 76.5 217t197.5 74q115 0 200 -45l-26 -81q-87 45 -182 45q-82 0 -128 -51t-46 -154q0 -105 42 -154t132 -49t182 51l24 -79q-94 -53 -208 -53z" />
    <glyph glyph-name="Ccaron" unicode="&#x10c;" 
d="M313 880l70 -81h8l70 81h94l-119 -140h-102l-119 140h98zM376 -10q-136 0 -218 82.5t-82 261.5q0 95 27 166.5t73 111.5t98.5 59t111.5 19q110 0 195 -45l-26 -79q-44 23 -81 32.5t-96 9.5q-40 0 -75.5 -13.5t-66 -43t-48.5 -84t-18 -128.5q0 -144 55 -205.5t153 -61.5
q86 0 177 47l24 -76q-94 -53 -203 -53z" />
    <glyph glyph-name="ccaron" unicode="&#x10d;" 
d="M286 820l73 -102h8l73 102h92l-119 -170h-102l-119 170h94zM351 -10q-128 0 -196 70t-68 209q0 143 76.5 217t197.5 74q115 0 200 -45l-26 -81q-87 45 -182 45q-82 0 -128 -51t-46 -154q0 -105 42 -154t132 -49t182 51l24 -79q-94 -53 -208 -53z" />
    <glyph glyph-name="Dcaron" unicode="&#x10e;" 
d="M356 730h-102l-119 140h98l70 -81h8l70 81h94zM287 680q155 0 231.5 -82t76.5 -252q0 -346 -327 -346h-174v680h193zM260 81q134 0 187.5 61t53.5 199q0 137 -51 197.5t-170 60.5h-94v-518h74z" />
    <glyph glyph-name="dcaron" unicode="&#x10f;" 
d="M455 552v268h90v-820h-78v59q-84 -72 -183 -70q-102 1 -155.5 69.5t-53.5 195.5q0 306 273 306q57 0 107 -8zM634 820h98l-37 -210h-84zM295 70q77 -1 160 52v343q-49 14 -114 14q-90 0 -132.5 -53.5t-42.5 -161.5q0 -192 129 -194z" />
    <glyph glyph-name="Dcroat" unicode="&#x110;" 
d="M287 680q155 0 231.5 -82t76.5 -252q0 -346 -327 -346h-174v300h-90v80h90v300h193zM260 81q134 0 187.5 61t53.5 199q0 137 -51 197.5t-170 60.5h-94v-219h128v-80h-128v-219h74z" />
    <glyph glyph-name="dcroat" unicode="&#x111;" 
d="M635 724v-80h-90v-644h-78v59q-84 -72 -183 -70q-102 1 -155.5 69.5t-53.5 195.5q0 306 273 306q57 0 107 -8v92h-130v80h130v96h90v-96h90zM295 70q77 -1 160 52v343q-49 14 -114 14q-90 0 -132.5 -53.5t-42.5 -161.5q0 -192 129 -194z" />
    <glyph glyph-name="Emacron" unicode="&#x112;" 
d="M490 826v-73h-310v73h310zM548 599h-342v-219h332v-81h-332v-218h342v-81h-434v680h434v-81z" />
    <glyph glyph-name="emacron" unicode="&#x113;" 
d="M503 766v-73h-320v73h320zM178 280v-6q0 -104 43.5 -153.5t131.5 -49.5q91 0 182 47l24 -75q-94 -53 -208 -53q-125 0 -194.5 70.5t-69.5 208.5q0 136 73.5 213.5t185.5 77.5q122 0 177 -72.5t38 -207.5h-383zM340 482q-127 0 -155 -130h290q-1 68 -34 99t-101 31z" />
    <glyph glyph-name="Edotaccent" unicode="&#x116;" 
d="M335 720q-38 0 -61.5 23t-23.5 57t23.5 57t61.5 23t61.5 -23t23.5 -57t-23.5 -57t-61.5 -23zM548 599h-342v-219h332v-81h-332v-218h342v-81h-434v680h434v-81z" />
    <glyph glyph-name="edotaccent" unicode="&#x117;" 
d="M343 640q-37 0 -63.5 26t-26.5 64t26.5 64t63.5 26t63.5 -26t26.5 -64t-26.5 -64t-63.5 -26zM178 280v-6q0 -104 43.5 -153.5t131.5 -49.5q91 0 182 47l24 -75q-94 -53 -208 -53q-125 0 -194.5 70.5t-69.5 208.5q0 136 73.5 213.5t185.5 77.5q122 0 177 -72.5t38 -207.5
h-383zM340 482q-127 0 -155 -130h290q-1 68 -34 99t-101 31z" />
    <glyph glyph-name="Eogonek" unicode="&#x118;" 
d="M548 599h-342v-219h332v-81h-332v-218h342v-81q-58 -42 -76.5 -60.5t-18.5 -31.5q0 -21 36 -21q27 0 59 6v-76q-39 -7 -70 -7q-110 0 -110 77q0 29 17 53t65 60h-336v680h434v-81z" />
    <glyph glyph-name="eogonek" unicode="&#x119;" 
d="M178 280v-6q0 -104 43.5 -153.5t131.5 -49.5q91 0 182 47l24 -75q-69 -71 -89 -96.5t-20 -38.5q0 -21 36 -21q28 0 59 6v-76q-39 -7 -70 -7q-110 0 -110 77q0 25 14.5 49t52.5 61q-35 -7 -81 -7q-125 0 -194.5 70.5t-69.5 208.5q0 136 73.5 213.5t185.5 77.5
q122 0 177 -72.5t38 -207.5h-383zM340 482q-127 0 -155 -130h290q-1 68 -34 99t-101 31z" />
    <glyph glyph-name="Ecaron" unicode="&#x11a;" 
d="M386 730h-102l-119 140h98l70 -81h8l70 81h94zM548 599h-342v-219h332v-81h-332v-218h342v-81h-434v680h434v-81z" />
    <glyph glyph-name="ecaron" unicode="&#x11b;" 
d="M394 650h-102l-119 170h94l73 -102h8l73 102h92zM178 280v-6q0 -104 43.5 -153.5t131.5 -49.5q91 0 182 47l24 -75q-94 -53 -208 -53q-125 0 -194.5 70.5t-69.5 208.5q0 136 73.5 213.5t185.5 77.5q122 0 177 -72.5t38 -207.5h-383zM340 482q-127 0 -155 -130h290
q-1 68 -34 99t-101 31z" />
    <glyph glyph-name="Gcircumflex" unicode="&#x11c;" 
d="M386 821l-70 -81h-94l119 140h102l119 -140h-98l-70 81h-8zM480 84v262h92v-319q-96 -37 -213 -37q-62 0 -112.5 17.5t-91.5 56t-63.5 107t-22.5 163.5t27 166t74 111.5t103 59.5t121 19q107 0 190 -38l-26 -81q-89 37 -172 37q-100 0 -161.5 -62.5t-61.5 -206.5
q0 -78 15 -131.5t43 -82.5t61.5 -41t78.5 -12q70 0 119 12z" />
    <glyph glyph-name="gcircumflex" unicode="&#x11d;" 
d="M459 111q74 -6 110 -32t36 -81q0 -80 -75.5 -134t-205.5 -54q-110 0 -171.5 36t-61.5 103q0 60 78 114q-52 11 -75 32.5t-23 60.5q0 60 90 102q-50 42 -50 116q0 85 66 135.5t162 50.5q59 0 107 -20l31 110h-68l-73 102h-8l-73 -102h-92l119 170h102l101 -144l1 4h96
l-70 -191q49 -44 49 -108q0 -81 -65.5 -126t-162.5 -45q-63 0 -106 14q-68 -29 -68 -57q0 -16 15.5 -24.5t50.5 -11.5zM337 484q-68 0 -101.5 -28t-33.5 -76q0 -101 133 -101q68 0 101.5 26.5t33.5 71.5q0 51 -34 79t-99 28zM329 -114q94 0 139 28.5t45 68.5
q0 26 -18.5 38.5t-69.5 16.5l-180 15q-62 -46 -62 -90q0 -77 146 -77z" />
    <glyph glyph-name="Gbreve" unicode="&#x11e;" 
d="M391 740q-158 0 -162 140h86q6 -67 77 -67t77 67h86q-2 -70 -45 -105t-119 -35zM480 84v262h92v-319q-96 -37 -213 -37q-62 0 -112.5 17.5t-91.5 56t-63.5 107t-22.5 163.5t27 166t74 111.5t103 59.5t121 19q107 0 190 -38l-26 -81q-89 37 -172 37q-100 0 -161.5 -62.5
t-61.5 -206.5q0 -78 15 -131.5t43 -82.5t61.5 -41t78.5 -12q70 0 119 12z" />
    <glyph glyph-name="gbreve" unicode="&#x11f;" 
d="M330 651q-155 0 -159 160h88q2 -43 18.5 -64.5t55.5 -21.5t55.5 21.5t18.5 64.5h88q-2 -79 -44.5 -119.5t-120.5 -40.5zM459 111q74 -6 110 -32t36 -81q0 -80 -75.5 -134t-205.5 -54q-110 0 -171.5 36t-61.5 103q0 60 78 114q-52 11 -75 32.5t-23 60.5q0 60 90 102
q-50 42 -50 116q0 85 66 135.5t162 50.5q59 0 107 -20l40 140h96l-70 -191q49 -44 49 -108q0 -81 -65.5 -126t-162.5 -45q-63 0 -106 14q-68 -29 -68 -57q0 -16 15.5 -24.5t50.5 -11.5zM337 484q-68 0 -101.5 -28t-33.5 -76q0 -101 133 -101q68 0 101.5 26.5t33.5 71.5
q0 51 -34 79t-99 28zM329 -114q94 0 139 28.5t45 68.5q0 26 -18.5 38.5t-69.5 16.5l-180 15q-62 -46 -62 -90q0 -77 146 -77z" />
    <glyph glyph-name="Gdotaccent" unicode="&#x120;" 
d="M392 730q-38 0 -61.5 23t-23.5 57t23.5 57t61.5 23t61.5 -23t23.5 -57t-23.5 -57t-61.5 -23zM480 84v262h92v-319q-96 -37 -213 -37q-62 0 -112.5 17.5t-91.5 56t-63.5 107t-22.5 163.5t27 166t74 111.5t103 59.5t121 19q107 0 190 -38l-26 -81q-89 37 -172 37
q-100 0 -161.5 -62.5t-61.5 -206.5q0 -78 15 -131.5t43 -82.5t61.5 -41t78.5 -12q70 0 119 12z" />
    <glyph glyph-name="gdotaccent" unicode="&#x121;" 
d="M333 640q-37 0 -63.5 26t-26.5 64t26.5 64t63.5 26t63.5 -26t26.5 -64t-26.5 -64t-63.5 -26zM459 111q74 -6 110 -32t36 -81q0 -80 -75.5 -134t-205.5 -54q-110 0 -171.5 36t-61.5 103q0 60 78 114q-52 11 -75 32.5t-23 60.5q0 60 90 102q-50 42 -50 116q0 85 66 135.5
t162 50.5q59 0 107 -20l40 140h96l-70 -191q49 -44 49 -108q0 -81 -65.5 -126t-162.5 -45q-63 0 -106 14q-68 -29 -68 -57q0 -16 15.5 -24.5t50.5 -11.5zM337 484q-68 0 -101.5 -28t-33.5 -76q0 -101 133 -101q68 0 101.5 26.5t33.5 71.5q0 51 -34 79t-99 28zM329 -114
q94 0 139 28.5t45 68.5q0 26 -18.5 38.5t-69.5 16.5l-180 15q-62 -46 -62 -90q0 -77 146 -77z" />
    <glyph glyph-name="Gcommaaccent" unicode="&#x122;" 
d="M480 84v262h92v-319q-96 -37 -213 -37q-62 0 -112.5 17.5t-91.5 56t-63.5 107t-22.5 163.5t27 166t74 111.5t103 59.5t121 19q107 0 190 -38l-26 -81q-89 37 -172 37q-100 0 -161.5 -62.5t-61.5 -206.5q0 -78 15 -131.5t43 -82.5t61.5 -41t78.5 -12q70 0 119 12z
M279 -180l33 130h98l-44 -130h-87z" />
    <glyph glyph-name="gcommaaccent" unicode="&#x123;" 
d="M403 820l-43 -170h-98l57 170h84zM459 111q74 -6 110 -32t36 -81q0 -80 -75.5 -134t-205.5 -54q-110 0 -171.5 36t-61.5 103q0 60 78 114q-52 11 -75 32.5t-23 60.5q0 60 90 102q-50 42 -50 116q0 85 66 135.5t162 50.5q59 0 107 -20l40 140h96l-70 -191q49 -44 49 -108
q0 -81 -65.5 -126t-162.5 -45q-63 0 -106 14q-68 -29 -68 -57q0 -16 15.5 -24.5t50.5 -11.5zM337 484q-68 0 -101.5 -28t-33.5 -76q0 -101 133 -101q68 0 101.5 26.5t33.5 71.5q0 51 -34 79t-99 28zM329 -114q94 0 139 28.5t45 68.5q0 26 -18.5 38.5t-69.5 16.5l-180 15
q-62 -46 -62 -90q0 -77 146 -77z" />
    <glyph glyph-name="Hcircumflex" unicode="&#x124;" 
d="M319 811l-70 -81h-94l119 140h102l119 -140h-98l-70 81h-8zM470 680h92v-680h-92v299h-290v-299h-92v680h92v-300h290v300z" />
    <glyph glyph-name="hcircumflex" unicode="&#x125;" 
d="M154 951h-8l-70 -81h-94l119 140h102l119 -140h-98zM368 561q93 0 136 -46t43 -136v-379h-90v366q0 60 -24.5 87t-75.5 27q-79 0 -160 -52v-428h-90v820h90v-240l-8 -86q82 67 179 67z" />
    <glyph glyph-name="Hbar" unicode="&#x126;" 
d="M640 550v-78h-90v-472h-92v269h-266v-269h-92v472h-90v78h90v130h92v-130h266v130h92v-130h90zM458 350v122h-266v-122h266z" />
    <glyph glyph-name="hbar" unicode="&#x127;" 
d="M368 561q93 0 136 -46t43 -136v-379h-90v366q0 60 -24.5 87t-75.5 27q-79 0 -160 -52v-428h-90v644h-82v80h82v96h90v-96h138v-80h-138v-64l-8 -86q82 67 179 67z" />
    <glyph glyph-name="Itilde" unicode="&#x128;" 
d="M239 793l-35 -65l-67 27l22 46q32 66 79 66q35 0 99 -28l74 -32l35 65l67 -27l-22 -46q-32 -66 -79 -66q-36 0 -99 28zM563 598h-192v-516h192v-82h-476v82h192v516h-192v82h476v-82z" />
    <glyph glyph-name="itilde" unicode="&#x129;" 
d="M250 721l-33 -62l-76 30l22 49q17 37 35 50t45 13q32 0 96 -24l81 -30l33 62l76 -30l-22 -49q-17 -37 -35 -50t-45 -13q-32 0 -96 24zM390 80h183v-80h-476v80h203v390h-203v80h293v-470z" />
    <glyph glyph-name="Imacron" unicode="&#x12a;" 
d="M480 826v-73h-310v73h310zM563 598h-192v-516h192v-82h-476v82h192v516h-192v82h476v-82z" />
    <glyph glyph-name="imacron" unicode="&#x12b;" 
d="M495 766v-73h-320v73h320zM390 80h183v-80h-476v80h203v390h-203v80h293v-470z" />
    <glyph glyph-name="Iogonek" unicode="&#x12e;" 
d="M563 598h-192v-516h192v-82q-58 -42 -76.5 -60.5t-18.5 -31.5q0 -21 36 -21q28 0 59 6v-76q-39 -7 -70 -7q-110 0 -110 77q0 29 17 53t65 60h-378v82h192v516h-192v82h476v-82z" />
    <glyph glyph-name="iogonek" unicode="&#x12f;" 
d="M335 640q-37 0 -63.5 26t-26.5 64t26.5 64t63.5 26t63.5 -26t26.5 -64t-26.5 -64t-63.5 -26zM573 0q-58 -42 -76.5 -60.5t-18.5 -31.5q0 -21 36 -21q28 0 59 6v-76q-39 -7 -70 -7q-110 0 -110 77q0 29 17 53t65 60h-378v80h203v390h-203v80h293v-470h183v-80z" />
    <glyph glyph-name="Idotaccent" unicode="&#x130;" 
d="M325 720q-38 0 -61.5 23t-23.5 57t23.5 57t61.5 23t61.5 -23t23.5 -57t-23.5 -57t-61.5 -23zM563 598h-192v-516h192v-82h-476v82h192v516h-192v82h476v-82z" />
    <glyph glyph-name="dotlessi" unicode="&#x131;" 
d="M390 80h183v-80h-476v80h203v390h-203v80h293v-470z" />
    <glyph glyph-name="IJ" unicode="&#x132;" 
d="M88 0v680h92v-680h-92zM562 680v-469q0 -120 -46 -170.5t-129 -50.5q-81 0 -147 29l30 80q59 -28 113 -28q45 0 66 31.5t21 113.5v382h-186v82h278z" />
    <glyph glyph-name="ij" unicode="&#x133;" 
d="M145 820q37 0 63.5 -26t26.5 -64t-26.5 -64t-63.5 -26t-63.5 26t-26.5 64t26.5 64t63.5 26zM505 820q37 0 63.5 -26t26.5 -64t-26.5 -64t-63.5 -26t-63.5 26t-26.5 64t26.5 64t63.5 26zM100 0v550h90v-550h-90zM307 550h243v-440q0 -149 -64 -220.5t-198 -71.5v85
q90 0 131 51.5t41 170.5v345h-153v80z" />
    <glyph glyph-name="Jcircumflex" unicode="&#x134;" 
d="M347 811l-70 -81h-94l119 140h102l119 -140h-98l-70 81h-8zM552 680v-419q0 -82 -19 -137.5t-55 -83.5t-76.5 -39t-95.5 -11q-120 0 -206 45l27 82q89 -46 188 -46q33 0 56 6.5t45 24.5t33 56.5t11 97.5v342h-306v82h398z" />
    <glyph glyph-name="jcircumflex" unicode="&#x135;" 
d="M426 820l119 -170h-94l-73 102h-8l-73 -102h-92l119 170h102zM97 550h323v-440q0 -149 -64 -220.5t-198 -71.5v85q90 0 131 51.5t41 170.5v345h-233v80z" />
    <glyph glyph-name="Kcommaaccent" unicode="&#x136;" 
d="M377 395l209 -395h-110l-174 337l-96 -89v-248h-92v680h92v-225l-10 -106l366 333l1 -117zM252 -180l33 130h98l-44 -130h-87z" />
    <glyph glyph-name="kcommaaccent" unicode="&#x137;" 
d="M375 337l187 -337h-105l-159 289l-87 -68v-221h-90v820h90v-408l-10 -105l327 256l1 -104zM253 -180l33 130h98l-44 -130h-87z" />
    <glyph glyph-name="kgreenlandic" unicode="&#x138;" 
d="M457 0l-159 289l-87 -68v-221h-90v550h90v-138l-10 -105l327 256l1 -104l-154 -122l187 -337h-105z" />
    <glyph glyph-name="Lacute" unicode="&#x139;" 
d="M356 870l-136 -140h-93l121 140h108zM216 83h342v-83h-434v680h92v-597z" />
    <glyph glyph-name="lacute" unicode="&#x13a;" 
d="M509 1010l-136 -140h-93l121 140h108zM370 80h193v-80h-476v80h193v740h90v-740z" />
    <glyph glyph-name="Lcommaaccent" unicode="&#x13b;" 
d="M216 83h342v-83h-434v680h92v-597zM276 -180l33 130h98l-44 -130h-87z" />
    <glyph glyph-name="lcommaaccent" unicode="&#x13c;" 
d="M370 80h193v-80h-476v80h193v740h90v-740zM244 -180l33 130h98l-44 -130h-87z" />
    <glyph glyph-name="Lcaron" unicode="&#x13d;" 
d="M216 83h342v-83h-434v680h92v-597zM487 680l-37 -210h-84l23 210h98z" />
    <glyph glyph-name="lcaron" unicode="&#x13e;" 
d="M370 80h193v-80h-476v80h193v740h90v-740zM547 820l-37 -210h-84l23 210h98z" />
    <glyph glyph-name="Lslash" unicode="&#x141;" 
d="M216 83h342v-83h-434v292l-124 -44v79l124 44v309h92v-277l180 64v-79l-180 -64v-241z" />
    <glyph glyph-name="lslash" unicode="&#x142;" 
d="M370 80h193v-80h-476v80h193v301l-153 -54v79l153 54v360h90v-328l153 54v-79l-153 -54v-333z" />
    <glyph glyph-name="Nacute" unicode="&#x143;" 
d="M509 870l-136 -140h-93l121 140h108zM470 680h85v-680h-142l-228 577h-10l5 -577h-85v680h142l229 -577h9z" />
    <glyph glyph-name="nacute" unicode="&#x144;" 
d="M493 820l-126 -170h-93l111 170h108zM368 561q93 0 136 -46t43 -136v-379h-90v366q0 60 -24.5 87t-75.5 27q-79 0 -160 -52v-428h-90v550h76v-61q84 72 185 72z" />
    <glyph glyph-name="Ncommaaccent" unicode="&#x145;" 
d="M470 680h85v-680h-142l-228 577h-10l5 -577h-85v680h142l229 -577h9zM243 -180l33 130h98l-44 -130h-87z" />
    <glyph glyph-name="ncommaaccent" unicode="&#x146;" 
d="M368 561q93 0 136 -46t43 -136v-379h-90v366q0 60 -24.5 87t-75.5 27q-79 0 -160 -52v-428h-90v550h76v-61q84 72 185 72zM244 -180l33 130h98l-44 -130h-87z" />
    <glyph glyph-name="Ncaron" unicode="&#x147;" 
d="M376 730h-102l-119 140h98l70 -81h8l70 81h94zM470 680h85v-680h-142l-228 577h-10l5 -577h-85v680h142l229 -577h9z" />
    <glyph glyph-name="ncaron" unicode="&#x148;" 
d="M378 650h-102l-119 170h94l73 -102h8l73 102h92zM368 561q93 0 136 -46t43 -136v-379h-90v366q0 60 -24.5 87t-75.5 27q-79 0 -160 -52v-428h-90v550h76v-61q84 72 185 72z" />
    <glyph glyph-name="Eng" unicode="&#x14a;" 
d="M470 680h85v-630q0 -61 -12.5 -103.5t-38 -68t-56.5 -38.5t-76 -22l-19 85q61 11 86.5 30.5t32.5 66.5h-59l-228 577h-10l5 -577h-85v680h142l229 -577h9l-4 447z" />
    <glyph glyph-name="eng" unicode="&#x14b;" 
d="M368 561q93 0 136 -46t43 -136v-299q0 -137 -48.5 -199.5t-163.5 -62.5v85q71 0 96.5 44.5t25.5 147.5v271q0 60 -24.5 87t-75.5 27q-79 0 -160 -52v-428h-90v550h76v-61q84 72 185 72z" />
    <glyph glyph-name="Omacron" unicode="&#x14c;" 
d="M172 836h310v-73h-310v73zM322 -10q-127 0 -199.5 84.5t-72.5 259.5q0 179 77.5 267.5t200.5 88.5q127 0 199.5 -85.5t72.5 -263.5q0 -176 -77.5 -263.5t-200.5 -87.5zM324 72q90 0 136 62.5t46 201.5q0 145 -45.5 208.5t-134.5 63.5q-90 0 -136 -63.5t-46 -205.5
t45.5 -204.5t134.5 -62.5z" />
    <glyph glyph-name="omacron" unicode="&#x14d;" 
d="M165 693v73h320v-73h-320zM322 -11q-116 0 -181.5 75t-65.5 205q0 135 70 213.5t183 78.5q117 0 182 -75.5t65 -209.5q0 -132 -70 -209.5t-183 -77.5zM324 70q80 0 120 53.5t40 147.5q0 209 -158 209q-80 0 -120 -54.5t-40 -151.5t39 -150.5t119 -53.5z" />
    <glyph glyph-name="Ohungarumlaut" unicode="&#x150;" 
d="M188 740l101 140h106l-116 -140h-91zM364 740l131 140h110l-146 -140h-95zM322 -10q-127 0 -199.5 84.5t-72.5 259.5q0 179 77.5 267.5t200.5 88.5q127 0 199.5 -85.5t72.5 -263.5q0 -176 -77.5 -263.5t-200.5 -87.5zM324 72q90 0 136 62.5t46 201.5q0 145 -45.5 208.5
t-134.5 63.5q-90 0 -136 -63.5t-46 -205.5t45.5 -204.5t134.5 -62.5z" />
    <glyph glyph-name="ohungarumlaut" unicode="&#x151;" 
d="M288 820h108l-116 -170h-93zM478 820h108l-136 -170h-93zM322 -11q-116 0 -181.5 75t-65.5 205q0 135 70 213.5t183 78.5q117 0 182 -75.5t65 -209.5q0 -132 -70 -209.5t-183 -77.5zM324 70q80 0 120 53.5t40 147.5q0 209 -158 209q-80 0 -120 -54.5t-40 -151.5
t39 -150.5t119 -53.5z" />
    <glyph glyph-name="OE" unicode="&#x152;" 
d="M598 599h-165v-219h155v-81h-155v-218h165v-81h-240q-39 -6 -66 -6q-109 0 -165.5 79t-56.5 261q0 184 63 268t165 84q26 0 67 -6h233v-81zM162 339q0 -142 32.5 -202.5t99.5 -60.5q28 0 50 5v518q-21 5 -48 5q-68 0 -101 -61.5t-33 -203.5z" />
    <glyph glyph-name="oe" unicode="&#x153;" 
d="M479 71q53 0 109 33l21 -67q-65 -44 -134 -44q-92 0 -137 84q-47 -84 -130 -84q-169 0 -169 276q0 152 50 220t125 68q90 0 131 -88q51 88 126 88q83 0 117.5 -74t17.5 -213h-222q1 -199 95 -199zM210 71q43 0 66.5 42t23.5 158q0 85 -12.5 132.5t-30 61.5t-45.5 14
q-43 0 -66.5 -42.5t-23.5 -162.5q0 -63 6.5 -104.5t19.5 -62t27.5 -28.5t34.5 -8zM466 479q-34 0 -54 -30.5t-26 -108.5h143q6 139 -63 139z" />
    <glyph glyph-name="Racute" unicode="&#x154;" 
d="M501 870l-136 -140h-93l121 140h108zM487 0l-149 253h-147v-253h-92v680h216q130 0 192 -47t62 -152q0 -123 -132 -207l164 -274h-114zM191 599v-265h195q89 55 89 140q0 65 -39.5 95t-130.5 30h-114z" />
    <glyph glyph-name="racute" unicode="&#x155;" 
d="M580 820l-126 -170h-93l111 170h108zM330 361v-281h243v-80h-476v80h143v470h80l-2 -106l244 119l1 -89z" />
    <glyph glyph-name="Rcommaaccent" unicode="&#x156;" 
d="M437 274l164 -274h-114l-149 253h-147v-253h-92v680h216q130 0 192 -47t62 -152q0 -123 -132 -207zM191 599v-265h195q89 55 89 140q0 65 -39.5 95t-130.5 30h-114zM259 -180l33 130h98l-44 -130h-87z" />
    <glyph glyph-name="rcommaaccent" unicode="&#x157;" 
d="M330 80h243v-80h-476v80h143v470h80l-2 -106l244 119l1 -89l-233 -113v-281zM215 -180l33 130h98l-44 -130h-87z" />
    <glyph glyph-name="Rcaron" unicode="&#x158;" 
d="M368 730h-102l-119 140h98l70 -81h8l70 81h94zM487 0l-149 253h-147v-253h-92v680h216q130 0 192 -47t62 -152q0 -123 -132 -207l164 -274h-114zM191 599v-265h195q89 55 89 140q0 65 -39.5 95t-130.5 30h-114z" />
    <glyph glyph-name="rcaron" unicode="&#x159;" 
d="M465 650h-102l-119 170h94l73 -102h8l73 102h92zM330 361v-281h243v-80h-476v80h143v470h80l-2 -106l244 119l1 -89z" />
    <glyph glyph-name="Sacute" unicode="&#x15a;" 
d="M287 740l121 140h108l-136 -140h-93zM309 -10q-142 0 -229 41l27 86q89 -46 208 -46q156 0 156 95q0 32 -28 58.5t-70.5 45t-92 42t-92 47.5t-70.5 63.5t-28 88.5q0 85 66.5 132t175.5 47q125 0 212 -41l-26 -83q-83 43 -193 43q-142 0 -142 -90q0 -33 28 -60.5t70.5 -46
t92 -42.5t92 -47.5t70.5 -62t28 -86.5q0 -91 -70.5 -137.5t-184.5 -46.5z" />
    <glyph glyph-name="sacute" unicode="&#x15b;" 
d="M282 650l111 170h108l-126 -170h-93zM314 -10q-130 0 -224 42l27 84q94 -46 201 -46q151 0 151 75q0 30 -38 51t-92.5 35.5t-108.5 32t-92 52.5t-38 85q0 76 62.5 117.5t172.5 41.5q106 0 199 -39l-26 -82q-85 41 -173 41q-144 0 -144 -69q0 -25 27.5 -43.5t68.5 -29
t88.5 -26t88.5 -32.5t68.5 -49t27.5 -76q0 -83 -66 -124t-180 -41z" />
    <glyph glyph-name="Scircumflex" unicode="&#x15c;" 
d="M404 740l-70 81h-8l-70 -81h-94l119 140h102l119 -140h-98zM309 -10q-142 0 -229 41l27 86q89 -46 208 -46q156 0 156 95q0 32 -28 58.5t-70.5 45t-92 42t-92 47.5t-70.5 63.5t-28 88.5q0 85 66.5 132t175.5 47q125 0 212 -41l-26 -83q-83 43 -193 43q-142 0 -142 -90
q0 -33 28 -60.5t70.5 -46t92 -42.5t92 -47.5t70.5 -62t28 -86.5q0 -91 -70.5 -137.5t-184.5 -46.5z" />
    <glyph glyph-name="scircumflex" unicode="&#x15d;" 
d="M411 650l-73 102h-8l-73 -102h-92l119 170h102l119 -170h-94zM314 -10q-130 0 -224 42l27 84q94 -46 201 -46q151 0 151 75q0 30 -38 51t-92.5 35.5t-108.5 32t-92 52.5t-38 85q0 76 62.5 117.5t172.5 41.5q106 0 199 -39l-26 -82q-85 41 -173 41q-144 0 -144 -69
q0 -25 27.5 -43.5t68.5 -29t88.5 -26t88.5 -32.5t68.5 -49t27.5 -76q0 -83 -66 -124t-180 -41z" />
    <glyph glyph-name="Scedilla" unicode="&#x15e;" 
d="M564 174q0 -82 -58 -128t-154 -54l-21 -38q50 -22 50 -60q0 -26 -36 -74h-76q28 41 28 56q0 12 -10.5 20t-46.5 21l37 74q-120 3 -197 40l27 86q89 -46 208 -46q156 0 156 95q0 32 -28 58.5t-70.5 45t-92 42t-92 47.5t-70.5 63.5t-28 88.5q0 85 66.5 132t175.5 47
q125 0 212 -41l-26 -83q-83 43 -193 43q-142 0 -142 -90q0 -33 28 -60.5t70.5 -46t92 -42.5t92 -47.5t70.5 -62t28 -86.5z" />
    <glyph glyph-name="scedilla" unicode="&#x15f;" 
d="M560 155q0 -75 -54.5 -115.5t-150.5 -48.5l-20 -37q50 -22 50 -60q0 -26 -36 -74h-76q28 41 28 56q0 12 -10.5 20t-46.5 21l37 74q-104 3 -191 41l27 84q94 -46 201 -46q151 0 151 75q0 30 -38 51t-92.5 35.5t-108.5 32t-92 52.5t-38 85q0 76 62.5 117.5t172.5 41.5
q106 0 199 -39l-26 -82q-85 41 -173 41q-144 0 -144 -69q0 -25 27.5 -43.5t68.5 -29t88.5 -26t88.5 -32.5t68.5 -49t27.5 -76z" />
    <glyph glyph-name="Scaron" unicode="&#x160;" 
d="M260 880l70 -81h8l70 81h94l-119 -140h-102l-119 140h98zM309 -10q-142 0 -229 41l27 86q89 -46 208 -46q156 0 156 95q0 32 -28 58.5t-70.5 45t-92 42t-92 47.5t-70.5 63.5t-28 88.5q0 85 66.5 132t175.5 47q125 0 212 -41l-26 -83q-83 43 -193 43q-142 0 -142 -90
q0 -33 28 -60.5t70.5 -46t92 -42.5t92 -47.5t70.5 -62t28 -86.5q0 -91 -70.5 -137.5t-184.5 -46.5z" />
    <glyph glyph-name="scaron" unicode="&#x161;" 
d="M259 820l73 -102h8l73 102h92l-119 -170h-102l-119 170h94zM314 -10q-130 0 -224 42l27 84q94 -46 201 -46q151 0 151 75q0 30 -38 51t-92.5 35.5t-108.5 32t-92 52.5t-38 85q0 76 62.5 117.5t172.5 41.5q106 0 199 -39l-26 -82q-85 41 -173 41q-144 0 -144 -69
q0 -25 27.5 -43.5t68.5 -29t88.5 -26t88.5 -32.5t68.5 -49t27.5 -76q0 -83 -66 -124t-180 -41z" />
    <glyph glyph-name="uni0162" unicode="&#x162;" 
d="M583 680v-84h-212v-596h-92v596h-212v84h516zM248 -180l33 130h98l-44 -130h-87z" />
    <glyph glyph-name="uni0163" unicode="&#x163;" 
d="M565 33q-75 -43 -189 -43q-105 0 -141 50.5t-34 149.5l6 280h-135v80h136l3 130h93l-17 -130h258v-80h-246l-6 -270q-2 -62 15 -95.5t71 -33.5q91 0 162 37zM294 -180l33 130h98l-44 -130h-87z" />
    <glyph glyph-name="Tcaron" unicode="&#x164;" 
d="M376 730h-102l-119 140h98l70 -81h8l70 81h94zM583 680v-84h-212v-596h-92v596h-212v84h516z" />
    <glyph glyph-name="tcaron" unicode="&#x165;" 
d="M520 820l-37 -210h-84l23 210h98zM541 108l24 -75q-75 -43 -189 -43q-105 0 -141 50.5t-34 149.5l6 280h-135v80h136l3 130h93l-17 -130h258v-80h-246l-6 -270q-2 -62 15 -95.5t71 -33.5q91 0 162 37z" />
    <glyph glyph-name="Tbar" unicode="&#x166;" 
d="M583 596h-212v-220h149v-75h-149v-301h-92v301h-149v75h149v220h-212v84h516v-84z" />
    <glyph glyph-name="tbar" unicode="&#x167;" 
d="M541 108l24 -75q-75 -43 -189 -43q-105 0 -141 50.5t-34 149.5l1 50h-128v75h130l3 155h-135v80h136l3 130h93l-17 -130h258v-80h-246l-3 -155h247v-75h-249l-1 -40q-2 -62 15 -95.5t71 -33.5q91 0 162 37z" />
    <glyph glyph-name="Utilde" unicode="&#x168;" 
d="M446 872l67 -27l-22 -46q-32 -66 -79 -66q-36 0 -99 28l-74 32l-35 -65l-67 27l22 46q32 66 79 66q35 0 99 -28l74 -32zM473 680h92v-399q0 -151 -64.5 -221t-178.5 -70q-117 0 -177 67.5t-60 216.5v406h92v-401q0 -115 34 -161t113 -46q80 0 114.5 46.5t34.5 157.5v404z
" />
    <glyph glyph-name="utilde" unicode="&#x169;" 
d="M240 721l-33 -62l-76 30l22 49q17 37 35 50t45 13q32 0 96 -24l81 -30l33 62l76 -30l-22 -49q-17 -37 -35 -50t-45 -13q-32 0 -96 24zM453 550h90v-550h-76v61q-84 -72 -185 -72q-93 0 -136 46t-43 136v379h90v-366q0 -60 24.5 -87t75.5 -27q79 0 160 52v428z" />
    <glyph glyph-name="Umacron" unicode="&#x16a;" 
d="M165 823v73h320v-73h-320zM473 680h92v-399q0 -151 -64.5 -221t-178.5 -70q-117 0 -177 67.5t-60 216.5v406h92v-401q0 -115 34 -161t113 -46q80 0 114.5 46.5t34.5 157.5v404z" />
    <glyph glyph-name="umacron" unicode="&#x16b;" 
d="M485 766v-73h-320v73h320zM453 550h90v-550h-76v61q-84 -72 -185 -72q-93 0 -136 46t-43 136v379h90v-366q0 -60 24.5 -87t75.5 -27q79 0 160 52v428z" />
    <glyph glyph-name="Ubreve" unicode="&#x16c;" 
d="M324 730q-158 0 -162 140h86q6 -67 77 -67t77 67h86q-2 -70 -45 -105t-119 -35zM473 680h92v-399q0 -151 -64.5 -221t-178.5 -70q-117 0 -177 67.5t-60 216.5v406h92v-401q0 -115 34 -161t113 -46q80 0 114.5 46.5t34.5 157.5v404z" />
    <glyph glyph-name="ubreve" unicode="&#x16d;" 
d="M322 651q-155 0 -159 160h88q2 -43 18.5 -64.5t55.5 -21.5t55.5 21.5t18.5 64.5h88q-2 -79 -44.5 -119.5t-120.5 -40.5zM453 550h90v-550h-76v61q-84 -72 -185 -72q-93 0 -136 46t-43 136v379h90v-366q0 -60 24.5 -87t75.5 -27q79 0 160 52v428z" />
    <glyph glyph-name="Uring" unicode="&#x16e;" 
d="M322 624q-52 0 -83 25.5t-31 77.5q0 51 33 78.5t87 27.5q51 0 82.5 -26t31.5 -78q0 -51 -33 -78t-87 -27zM325 680q45 0 45 47q0 49 -45 49t-45 -47q0 -49 45 -49zM473 680h92v-399q0 -151 -64.5 -221t-178.5 -70q-117 0 -177 67.5t-60 216.5v406h92v-401q0 -115 34 -161
t113 -46q80 0 114.5 46.5t34.5 157.5v404z" />
    <glyph glyph-name="uring" unicode="&#x16f;" 
d="M323 631q-52 0 -83.5 26t-31.5 77q0 50 33 78t86 28q52 0 83.5 -26.5t31.5 -77.5q0 -50 -33 -77.5t-86 -27.5zM324 783q-44 0 -44 -47q0 -49 46 -49q44 0 44 47q0 49 -46 49zM453 550h90v-550h-76v61q-84 -72 -185 -72q-93 0 -136 46t-43 136v379h90v-366q0 -60 24.5 -87
t75.5 -27q79 0 160 52v428z" />
    <glyph glyph-name="Uhungarumlaut" unicode="&#x170;" 
d="M186 730l101 140h106l-116 -140h-91zM362 730l131 140h110l-146 -140h-95zM473 680h92v-399q0 -151 -64.5 -221t-178.5 -70q-117 0 -177 67.5t-60 216.5v406h92v-401q0 -115 34 -161t113 -46q80 0 114.5 46.5t34.5 157.5v404z" />
    <glyph glyph-name="uhungarumlaut" unicode="&#x171;" 
d="M396 820l-116 -170h-93l101 170h108zM450 650h-93l121 170h108zM453 122v428h90v-550h-76v61q-84 -72 -185 -72q-93 0 -136 46t-43 136v379h90v-366q0 -60 24.5 -87t75.5 -27q79 0 160 52z" />
    <glyph glyph-name="Uogonek" unicode="&#x172;" 
d="M473 680h92v-399q0 -178 -94 -248q-75 -65 -95.5 -88.5t-20.5 -36.5q0 -21 36 -21q27 0 59 6v-76q-39 -7 -70 -7q-110 0 -110 77q0 27 14.5 49t54.5 54h-17q-117 0 -177 67.5t-60 216.5v406h92v-401q0 -115 34 -161t113 -46q80 0 114.5 46.5t34.5 157.5v404z" />
    <glyph glyph-name="uogonek" unicode="&#x173;" 
d="M543 0q-58 -42 -76.5 -60.5t-18.5 -31.5q0 -21 36 -21q27 0 59 6v-76q-39 -7 -70 -7q-110 0 -110 77q0 31 21.5 58t82.5 72v44q-84 -72 -185 -72q-93 0 -136 46t-43 136v379h90v-366q0 -60 24.5 -87t75.5 -27q79 0 160 52v428h90v-550z" />
    <glyph glyph-name="Wcircumflex" unicode="&#x174;" 
d="M319 811l-70 -81h-94l119 140h102l119 -140h-98l-70 81h-8zM508 680h82l-90 -680h-130l-29 190l-12 150h-8l-12 -150l-29 -190h-130l-90 680h82l44 -350l24 -250h12l22 189l23 151h116l23 -151l22 -189h12l24 250z" />
    <glyph glyph-name="wcircumflex" unicode="&#x175;" 
d="M331 752l-73 -102h-92l119 170h102l119 -170h-94l-73 102h-8zM543 550h80l-96 -550h-121l-65 369l-11 101h-9l-11 -101l-65 -369h-122l-96 550h85l59 -359l12 -111h12l11 110l59 360h126l59 -360l11 -110h11l12 109z" />
    <glyph glyph-name="Ycircumflex" unicode="&#x176;" 
d="M319 811l-70 -81h-94l119 140h102l119 -140h-98l-70 81h-8zM371 292v-210h192v-82h-476v82h192v210l-242 388h103l132 -220l50 -100h12l51 100l132 220h96z" />
    <glyph glyph-name="ycircumflex" unicode="&#x177;" 
d="M328 752l-73 -102h-92l119 170h102l119 -170h-94l-73 102h-8zM370 11v-111h158v-80h-406v80h158v111l-213 539h97l115 -299l39 -124h20l40 124l113 299h92z" />
    <glyph glyph-name="Ydieresis" unicode="&#x178;" 
d="M220 728q-35 0 -56 20.5t-21 51.5t21 52t56 21t56.5 -21t21.5 -52t-21.5 -51.5t-56.5 -20.5zM429 728q-35 0 -56 20.5t-21 51.5t21 52t56 21t56.5 -21t21.5 -52t-21.5 -51.5t-56.5 -20.5zM371 292v-210h192v-82h-476v82h192v210l-242 388h103l132 -220l50 -100h12l51 100
l132 220h96z" />
    <glyph glyph-name="Zacute" unicode="&#x179;" 
d="M509 870l-136 -140h-93l121 140h108zM180 82h391v-82h-492v92l336 449l44 43v14h-370v82h472v-92l-336 -449l-45 -43v-14z" />
    <glyph glyph-name="zacute" unicode="&#x17a;" 
d="M491 820l-126 -170h-93l111 170h108zM193 80h371v-80h-472v100l361 370h-351v80h452v-100z" />
    <glyph glyph-name="Zdotaccent" unicode="&#x17b;" 
d="M325 720q-38 0 -61.5 23t-23.5 57t23.5 57t61.5 23t61.5 -23t23.5 -57t-23.5 -57t-61.5 -23zM180 82h391v-82h-492v92l336 449l44 43v14h-370v82h472v-92l-336 -449l-45 -43v-14z" />
    <glyph glyph-name="zdotaccent" unicode="&#x17c;" 
d="M325 640q-37 0 -63.5 26t-26.5 64t26.5 64t63.5 26t63.5 -26t26.5 -64t-26.5 -64t-63.5 -26zM193 80h371v-80h-472v100l361 370h-351v80h452v-100z" />
    <glyph glyph-name="Zcaron" unicode="&#x17d;" 
d="M376 730h-102l-119 140h98l70 -81h8l70 81h94zM180 82h391v-82h-492v92l336 449l44 43v14h-370v82h472v-92l-336 -449l-45 -43v-14z" />
    <glyph glyph-name="zcaron" unicode="&#x17e;" 
d="M376 650h-102l-119 170h94l73 -102h8l73 102h92zM193 80h371v-80h-472v100l361 370h-351v80h452v-100z" />
    <glyph glyph-name="uni01CD" unicode="&#x1cd;" 
d="M374 730h-102l-119 140h98l70 -81h8l70 81h94zM509 0l-69 233h-234l-68 -233h-93l207 680h146l207 -680h-96zM230 314h186l-55 184l-24 102h-29l-24 -102z" />
    <glyph glyph-name="uni01CE" unicode="&#x1ce;" 
d="M368 650h-102l-119 170h94l73 -102h8l73 102h92zM335 561q65 0 107 -15t61.5 -45.5t25.5 -61.5t6 -78l-5 -361h-75v66q-84 -79 -193 -77q-82 1 -127 41t-45 110q0 78 83.5 118t269.5 54l1 39q0 31 -3 50.5t-13.5 39.5t-35.5 29.5t-64 9.5q-101 0 -192 -47l-24 75
q94 53 223 53zM274 68q86 -1 166 59l2 112q-140 -11 -201 -33.5t-61 -63.5q0 -72 94 -74z" />
    <glyph glyph-name="uni01CF" unicode="&#x1cf;" 
d="M376 730h-102l-119 140h98l70 -81h8l70 81h94zM563 598h-192v-516h192v-82h-476v82h192v516h-192v82h476v-82z" />
    <glyph glyph-name="uni01D0" unicode="&#x1d0;" 
d="M386 650h-102l-119 170h94l73 -102h8l73 102h92zM390 80h183v-80h-476v80h203v390h-203v80h293v-470z" />
    <glyph glyph-name="uni01D1" unicode="&#x1d1;" 
d="M255 880l70 -81h8l70 81h94l-119 -140h-102l-119 140h98zM322 -10q-127 0 -199.5 84.5t-72.5 259.5q0 179 77.5 267.5t200.5 88.5q127 0 199.5 -85.5t72.5 -263.5q0 -176 -77.5 -263.5t-200.5 -87.5zM324 72q90 0 136 62.5t46 201.5q0 145 -45.5 208.5t-134.5 63.5
q-90 0 -136 -63.5t-46 -205.5t45.5 -204.5t134.5 -62.5z" />
    <glyph glyph-name="uni01D2" unicode="&#x1d2;" 
d="M249 820l73 -102h8l73 102h92l-119 -170h-102l-119 170h94zM322 -11q-116 0 -181.5 75t-65.5 205q0 135 70 213.5t183 78.5q117 0 182 -75.5t65 -209.5q0 -132 -70 -209.5t-183 -77.5zM324 70q80 0 120 53.5t40 147.5q0 209 -158 209q-80 0 -120 -54.5t-40 -151.5
t39 -150.5t119 -53.5z" />
    <glyph glyph-name="uni01D3" unicode="&#x1d3;" 
d="M253 870l70 -81h8l70 81h94l-119 -140h-102l-119 140h98zM473 680h92v-399q0 -151 -64.5 -221t-178.5 -70q-117 0 -177 67.5t-60 216.5v406h92v-401q0 -115 34 -161t113 -46q80 0 114.5 46.5t34.5 157.5v404z" />
    <glyph glyph-name="uni01D4" unicode="&#x1d4;" 
d="M376 650h-102l-119 170h94l73 -102h8l73 102h92zM453 550h90v-550h-76v61q-84 -72 -185 -72q-93 0 -136 46t-43 136v379h90v-366q0 -60 24.5 -87t75.5 -27q79 0 160 52v428z" />
    <glyph glyph-name="uni01DD" unicode="&#x1dd;" 
d="M299 560q125 0 194.5 -70.5t69.5 -208.5q0 -136 -73.5 -213.5t-185.5 -77.5q-122 0 -177 72.5t-38 207.5h383v6q0 104 -43.5 153.5t-131.5 49.5q-91 0 -182 -47l-24 75q94 53 208 53zM310 68q127 0 155 130h-290q1 -68 34 -99t101 -31z" />
    <glyph glyph-name="Gcaron" unicode="&#x1e6;" 
d="M443 740h-102l-119 140h98l70 -81h8l70 81h94zM480 84v262h92v-319q-96 -37 -213 -37q-62 0 -112.5 17.5t-91.5 56t-63.5 107t-22.5 163.5t27 166t74 111.5t103 59.5t121 19q107 0 190 -38l-26 -81q-89 37 -172 37q-100 0 -161.5 -62.5t-61.5 -206.5q0 -78 15 -131.5
t43 -82.5t61.5 -41t78.5 -12q70 0 119 12z" />
    <glyph glyph-name="gcaron" unicode="&#x1e7;" 
d="M384 650h-102l-119 170h94l73 -102h8l73 102h92zM459 111q74 -6 110 -32t36 -81q0 -80 -75.5 -134t-205.5 -54q-110 0 -171.5 36t-61.5 103q0 60 78 114q-52 11 -75 32.5t-23 60.5q0 60 90 102q-50 42 -50 116q0 85 66 135.5t162 50.5q59 0 107 -20l40 140h96l-70 -191
q49 -44 49 -108q0 -81 -65.5 -126t-162.5 -45q-63 0 -106 14q-68 -29 -68 -57q0 -16 15.5 -24.5t50.5 -11.5zM337 484q-68 0 -101.5 -28t-33.5 -76q0 -101 133 -101q68 0 101.5 26.5t33.5 71.5q0 51 -34 79t-99 28zM329 -114q94 0 139 28.5t45 68.5q0 26 -18.5 38.5
t-69.5 16.5l-180 15q-62 -46 -62 -90q0 -77 146 -77z" />
    <glyph glyph-name="uni01F8" unicode="&#x1f8;" 
d="M370 730h-93l-136 140h108zM470 680h85v-680h-142l-228 577h-10l5 -577h-85v680h142l229 -577h9z" />
    <glyph glyph-name="uni01F9" unicode="&#x1f9;" 
d="M380 650h-93l-126 170h108zM368 561q93 0 136 -46t43 -136v-379h-90v366q0 60 -24.5 87t-75.5 27q-79 0 -160 -52v-428h-90v550h76v-61q84 72 185 72z" />
    <glyph glyph-name="AEacute" unicode="&#x1fc;" horiz-adv-x="600" 
d="M500 870l-136 -140h-93l121 140h108zM582 599h-165v-219h155v-81h-155v-218h165v-81h-254v223h-137l-60 -223h-90l193 680h348v-81zM213 304h115v296h-39l-23 -102z" />
    <glyph glyph-name="Oslashacute" unicode="&#x1fe;" 
d="M512 880l-136 -140h-93l121 140h108zM526 607q74 -90 74 -266t-77.5 -263.5t-200.5 -87.5q-77 0 -135 31l-57 -99l-70 40l64 111q-74 88 -74 261q0 179 77.5 267.5t200.5 88.5q77 0 135 -31l57 99l70 -40zM144 339q0 -123 28 -183l250 432q-37 20 -96 20
q-90 0 -136 -63.5t-46 -205.5zM324 72q90 0 136 62.5t46 201.5q0 126 -28 188l-250 -432q37 -20 96 -20z" />
    <glyph glyph-name="Scommaaccent" unicode="&#x218;" 
d="M309 -10q-142 0 -229 41l27 86q89 -46 208 -46q156 0 156 95q0 32 -28 58.5t-70.5 45t-92 42t-92 47.5t-70.5 63.5t-28 88.5q0 85 66.5 132t175.5 47q125 0 212 -41l-26 -83q-83 43 -193 43q-142 0 -142 -90q0 -33 28 -60.5t70.5 -46t92 -42.5t92 -47.5t70.5 -62
t28 -86.5q0 -91 -70.5 -137.5t-184.5 -46.5zM230 -180l33 130h98l-44 -130h-87z" />
    <glyph glyph-name="scommaaccent" unicode="&#x219;" 
d="M314 -10q-130 0 -224 42l27 84q94 -46 201 -46q151 0 151 75q0 30 -38 51t-92.5 35.5t-108.5 32t-92 52.5t-38 85q0 76 62.5 117.5t172.5 41.5q106 0 199 -39l-26 -82q-85 41 -173 41q-144 0 -144 -69q0 -25 27.5 -43.5t68.5 -29t88.5 -26t88.5 -32.5t68.5 -49t27.5 -76
q0 -83 -66 -124t-180 -41zM234 -180l33 130h98l-44 -130h-87z" />
    <glyph glyph-name="uni021A" unicode="&#x21a;" 
d="M583 680v-84h-212v-596h-92v596h-212v84h516zM248 -180l33 130h98l-44 -130h-87z" />
    <glyph glyph-name="uni021B" unicode="&#x21b;" 
d="M565 33q-75 -43 -189 -43q-105 0 -141 50.5t-34 149.5l6 280h-135v80h136l3 130h93l-17 -130h258v-80h-246l-6 -270q-2 -62 15 -95.5t71 -33.5q91 0 162 37zM294 -180l33 130h98l-44 -130h-87z" />
    <glyph glyph-name="uni0237" unicode="&#x237;" 
d="M420 550v-440q0 -149 -64 -220.5t-198 -71.5v85q90 0 131 51.5t41 170.5v345h-233v80h323z" />
    <glyph glyph-name="uni02BB" unicode="&#x2bb;" 
d="M370 420h-121l64 300h96z" />
    <glyph glyph-name="uni02BC" unicode="&#x2bc;" 
d="M280 680h121l-64 -300h-96z" />
    <glyph glyph-name="gravecomb" unicode="&#x300;" horiz-adv-x="0" 
d="M-290 650h-93l-126 170h108z" />
    <glyph glyph-name="acutecomb" unicode="&#x301;" horiz-adv-x="0" 
d="M-409 650l111 170h108l-126 -170h-93z" />
    <glyph glyph-name="uni0302" unicode="&#x302;" horiz-adv-x="0" 
d="M-274 650l-73 102h-8l-73 -102h-92l119 170h102l119 -170h-94z" />
    <glyph glyph-name="tildecomb" unicode="&#x303;" horiz-adv-x="0" 
d="M-232 809l76 -30l-22 -49q-17 -37 -35 -50t-45 -13q-32 0 -96 24l-81 30l-33 -62l-76 30l22 49q17 37 35 50t45 13q32 0 96 -24l81 -30z" />
    <glyph glyph-name="uni0304" unicode="&#x304;" horiz-adv-x="0" 
d="M-510 693v73h320v-73h-320z" />
    <glyph glyph-name="uni0306" unicode="&#x306;" horiz-adv-x="0" 
d="M-353 651q-155 0 -159 160h88q2 -43 18.5 -64.5t55.5 -21.5t55.5 21.5t18.5 64.5h88q-2 -79 -44.5 -119.5t-120.5 -40.5z" />
    <glyph glyph-name="uni0307" unicode="&#x307;" horiz-adv-x="0" 
d="M-325 640q-37 0 -63.5 26t-26.5 64t26.5 64t63.5 26t63.5 -26t26.5 -64t-26.5 -64t-63.5 -26z" />
    <glyph glyph-name="uni0308" unicode="&#x308;" horiz-adv-x="0" 
d="M-430 654q-34 0 -57.5 24t-23.5 58t23.5 57.5t57.5 23.5t58 -23.5t24 -57.5t-24 -58t-58 -24zM-221 654q-34 0 -57.5 24t-23.5 58t23.5 57.5t57.5 23.5t58 -23.5t24 -57.5t-23.5 -58t-58.5 -24z" />
    <glyph glyph-name="uni030A" unicode="&#x30a;" horiz-adv-x="0" 
d="M-348 840q52 0 83.5 -26.5t31.5 -77.5q0 -50 -33 -77.5t-86 -27.5q-52 0 -83.5 26t-31.5 77q0 50 33 78t86 28zM-351 783q-44 0 -44 -47q0 -49 46 -49q44 0 44 47q0 49 -46 49z" />
    <glyph glyph-name="uni030B" unicode="&#x30b;" horiz-adv-x="0" 
d="M-393 820h108l-116 -170h-93zM-203 820h108l-136 -170h-93z" />
    <glyph glyph-name="uni030C" unicode="&#x30c;" horiz-adv-x="0" 
d="M-426 820l73 -102h8l73 102h92l-119 -170h-102l-119 170h94z" />
    <glyph glyph-name="uni0312" unicode="&#x312;" horiz-adv-x="0" 
d="M-321 650h-98l57 170h84z" />
    <glyph glyph-name="dotbelowcomb" unicode="&#x323;" horiz-adv-x="0" 
d="M-325 -190q-31 0 -51.5 20t-20.5 50t20.5 50t51.5 20t51.5 -20t20.5 -50t-20.5 -50t-51.5 -20z" />
    <glyph glyph-name="uni0326" unicode="&#x326;" horiz-adv-x="0" 
d="M-429 -180l33 130h98l-44 -130h-87z" />
    <glyph glyph-name="uni0327" unicode="&#x327;" horiz-adv-x="0" 
d="M-329 -46q50 -22 50 -60q0 -26 -36 -74h-76q28 41 28 56q0 12 -10.5 20t-46.5 21l64 128l68 -16z" />
    <glyph glyph-name="uni0328" unicode="&#x328;" horiz-adv-x="0" 
d="M-305 -190q-110 0 -110 77q0 35 28.5 66t116.5 93l35 -46q-58 -42 -76.5 -60.5t-18.5 -31.5q0 -21 36 -21q28 0 59 6v-76q-39 -7 -70 -7z" />
    <glyph glyph-name="uni0335" unicode="&#x335;" horiz-adv-x="0" 
d="M-650 300v80h310v-80h-310z" />
    <glyph glyph-name="uni0336" unicode="&#x336;" horiz-adv-x="0" 
d="M-645 472v78h590v-78h-590z" />
    <glyph glyph-name="uni0337" unicode="&#x337;" horiz-adv-x="0" 
d="M-548 327v79l396 140v-79z" />
    <glyph glyph-name="uni0338" unicode="&#x338;" horiz-adv-x="0" 
d="M-187 637l69 -40l-395 -684l-69 40z" />
    <glyph glyph-name="uni0400" unicode="&#x400;" 
d="M380 730h-93l-136 140h108zM548 599h-342v-219h332v-81h-332v-218h342v-81h-434v680h434v-81z" />
    <glyph glyph-name="uni0401" unicode="&#x401;" 
d="M230 728q-35 0 -56 20.5t-21 51.5t21 52t56 21t56.5 -21t21.5 -52t-21.5 -51.5t-56.5 -20.5zM439 728q-35 0 -56 20.5t-21 51.5t21 52t56 21t56.5 -21t21.5 -52t-21.5 -51.5t-56.5 -20.5zM548 599h-342v-219h332v-81h-332v-218h342v-81h-434v680h434v-81z" />
    <glyph glyph-name="uni0402" unicode="&#x402;" 
d="M383 397q207 0 207 -189q0 -99 -51 -153.5t-146 -54.5h-22v77h14q116 0 116 125q0 57 -29 86t-97 29q-44 0 -95 -9v-308h-91v599h-148v81h447v-81h-208v-213q61 11 103 11z" />
    <glyph glyph-name="uni0403" unicode="&#x403;" 
d="M540 870l-136 -140h-93l121 140h108zM573 680v-84h-342v-596h-92v680h434z" />
    <glyph glyph-name="uni0404" unicode="&#x404;" 
d="M378 72q86 0 177 47l24 -76q-94 -53 -203 -53q-136 0 -218 82.5t-82 261.5q0 95 27 166.5t73 111.5t98.5 59t111.5 19q110 0 195 -45l-26 -79q-44 23 -81 32.5t-96 9.5q-81 0 -139.5 -54.5t-67.5 -174.5h368v-81h-368q14 -226 207 -226z" />
    <glyph glyph-name="uni0405" unicode="&#x405;" 
d="M309 -10q-142 0 -229 41l27 86q89 -46 208 -46q156 0 156 95q0 32 -28 58.5t-70.5 45t-92 42t-92 47.5t-70.5 63.5t-28 88.5q0 85 66.5 132t175.5 47q125 0 212 -41l-26 -83q-83 43 -193 43q-142 0 -142 -90q0 -33 28 -60.5t70.5 -46t92 -42.5t92 -47.5t70.5 -62
t28 -86.5q0 -91 -70.5 -137.5t-184.5 -46.5z" />
    <glyph glyph-name="uni0406" unicode="&#x406;" 
d="M563 598h-192v-516h192v-82h-476v82h192v516h-192v82h476v-82z" />
    <glyph glyph-name="uni0407" unicode="&#x407;" 
d="M220 728q-35 0 -56 20.5t-21 51.5t21 52t56 21t56.5 -21t21.5 -52t-21.5 -51.5t-56.5 -20.5zM429 728q-35 0 -56 20.5t-21 51.5t21 52t56 21t56.5 -21t21.5 -52t-21.5 -51.5t-56.5 -20.5zM563 598h-192v-516h192v-82h-476v82h192v516h-192v82h476v-82z" />
    <glyph glyph-name="uni0408" unicode="&#x408;" 
d="M552 680v-419q0 -82 -19 -137.5t-55 -83.5t-76.5 -39t-95.5 -11q-120 0 -206 45l27 82q89 -46 188 -46q33 0 56 6.5t45 24.5t33 56.5t11 97.5v342h-306v82h398z" />
    <glyph glyph-name="uni0409" unicode="&#x409;" 
d="M468 412q177 0 177 -198q0 -102 -50.5 -158t-136.5 -56h-142v599h-141l-4 -221q-2 -92 -5 -152t-11.5 -106t-19 -70.5t-30.5 -39.5t-43 -18.5t-59 -2.5v94q20 0 30.5 2.5t21.5 13.5t15.5 29t9 55.5t6.5 85t3 124.5l5 287h307v-268h67zM452 77q62 0 84 32t22 99
q0 63 -21 95t-75 32h-61v-258h51z" />
    <glyph glyph-name="uni040A" unicode="&#x40a;" 
d="M468 412q177 0 177 -198q0 -102 -50.5 -158t-136.5 -56h-142v301h-171v-301h-85v680h85v-302h171v302h85v-268h67zM452 77q62 0 84 32t22 99q0 63 -21 95t-75 32h-61v-258h51z" />
    <glyph glyph-name="uni040B" unicode="&#x40b;" 
d="M402 397q101 0 144.5 -50.5t43.5 -160.5v-186h-91v162q0 86 -22.5 120.5t-84.5 34.5q-42 0 -112 -9v-308h-91v599h-148v81h447v-81h-208v-212q72 10 122 10z" />
    <glyph glyph-name="uni040C" unicode="&#x40c;" 
d="M509 870l-136 -140h-93l121 140h108zM474 0l-178 300h-90v-300h-92v680h92v-300h97l176 300h97l-199 -334l209 -346h-112z" />
    <glyph glyph-name="uni040D" unicode="&#x40d;" 
d="M370 730h-93l-136 140h108zM423 681h138v-681h-89l6 585h-10l-241 -585h-138v680h89l-6 -584h9z" />
    <glyph glyph-name="uni040E" unicode="&#x40e;" 
d="M330 730q-155 0 -162 140h94q5 -40 20 -56.5t49 -16.5t49 16.5t20 56.5h94q-7 -140 -164 -140zM608 680l-290 -599h177v-81h-435v81h169l65 134l-256 465h100l158 -295l39 -90h7l38 90l141 295h87z" />
    <glyph glyph-name="uni040F" unicode="&#x40f;" 
d="M464 680h92v-680h-186v-140h-90v140h-186v680h92v-599h278v599z" />
    <glyph glyph-name="uni0410" unicode="&#x410;" 
d="M509 0l-69 233h-234l-68 -233h-93l207 680h146l207 -680h-96zM230 314h186l-55 184l-24 102h-29l-24 -102z" />
    <glyph glyph-name="uni0411" unicode="&#x411;" 
d="M353 394q71 0 119.5 -15t73 -42.5t34.5 -59t10 -72.5q0 -205 -247 -205h-244v680h454v-82h-362v-204h162zM335 81q99 0 130 28.5t31 89.5q0 57 -30 85.5t-121 28.5h-154v-232h144z" />
    <glyph glyph-name="uni0412" unicode="&#x412;" 
d="M485 348q105 -39 105 -152q0 -92 -57.5 -144t-169.5 -52h-264v680h226q114 0 169 -44.5t55 -137.5q0 -72 -64 -150zM315 599h-124v-225h215q49 57 49 117q0 54 -31.5 81t-108.5 27zM355 81q84 0 112.5 27.5t28.5 81.5q0 47 -24 75t-87 28h-194v-212h164z" />
    <glyph glyph-name="uni0413" unicode="&#x413;" 
d="M573 680v-84h-342v-596h-92v680h434z" />
    <glyph glyph-name="uni0414" unicode="&#x414;" 
d="M543 81h77v-221h-90v140h-423v-140h-90v221h56q35 40 49.5 113.5t20.5 220.5l10 265h390v-599zM175 81h276v518h-210l-7 -187q-5 -137 -17.5 -207.5t-41.5 -123.5z" />
    <glyph glyph-name="uni0415" unicode="&#x415;" 
d="M548 599h-342v-219h332v-81h-332v-218h342v-81h-434v680h434v-81z" />
    <glyph glyph-name="uni0416" unicode="&#x416;" 
d="M522 0l-84 302h-75l6 -302h-86l6 302h-80l-84 -302h-100l112 351l-102 329h89l91 -302h74l-6 302h86l-6 -302h73l91 302h88l-102 -329l112 -351h-103z" />
    <glyph glyph-name="uni0417" unicode="&#x417;" 
d="M447 355q64 -23 92.5 -60.5t28.5 -98.5q0 -92 -70 -149t-214 -57q-136 0 -230 45l26 78q96 -42 212 -42q99 0 141.5 30t42.5 90q0 111 -174 111h-185v81h237h3q52 21 74.5 50t22.5 70q0 57 -38 81.5t-119 24.5q-113 0 -207 -47l-24 75q101 53 238 53q114 0 178 -45.5
t64 -136.5q0 -97 -99 -153z" />
    <glyph glyph-name="uni0418" unicode="&#x418;" 
d="M423 681h138v-681h-89l6 585h-10l-241 -585h-138v680h89l-6 -584h9z" />
    <glyph glyph-name="uni0419" unicode="&#x419;" 
d="M324 730q-155 0 -162 140h94q5 -40 20 -56.5t49 -16.5t49 16.5t20 56.5h94q-7 -140 -164 -140zM423 681h138v-681h-89l6 585h-10l-241 -585h-138v680h89l-6 -584h9z" />
    <glyph glyph-name="uni041A" unicode="&#x41a;" 
d="M474 0l-178 300h-90v-300h-92v680h92v-300h97l176 300h97l-199 -334l209 -346h-112z" />
    <glyph glyph-name="uni041B" unicode="&#x41b;" 
d="M558 680v-680h-92v599h-215l-6 -187q-4 -117 -14.5 -194.5t-26 -124t-45 -69.5t-60 -29.5t-81.5 -5.5v94q32 0 49.5 4.5t35.5 21.5t27 53.5t15.5 97.5t9.5 155l8 265h395z" />
    <glyph glyph-name="uni041C" unicode="&#x41c;" 
d="M545 680v-680h-82v350l8 250h-13l-27 -110l-72 -230h-107l-81 230l-29 110h-13l8 -250v-350h-82v680h133l95 -269l19 -75h9l18 75l85 269h131z" />
    <glyph glyph-name="uni041D" unicode="&#x41d;" 
d="M470 680h92v-680h-92v299h-290v-299h-92v680h92v-300h290v300z" />
    <glyph glyph-name="uni041E" unicode="&#x41e;" 
d="M322 -10q-127 0 -199.5 84.5t-72.5 259.5q0 179 77.5 267.5t200.5 88.5q127 0 199.5 -85.5t72.5 -263.5q0 -176 -77.5 -263.5t-200.5 -87.5zM324 72q90 0 136 62.5t46 201.5q0 145 -45.5 208.5t-134.5 63.5q-90 0 -136 -63.5t-46 -205.5t45.5 -204.5t134.5 -62.5z" />
    <glyph glyph-name="uni041F" unicode="&#x41f;" 
d="M558 680v-680h-92v599h-282v-599h-92v680h466z" />
    <glyph glyph-name="uni0420" unicode="&#x420;" 
d="M324 680q118 0 186.5 -57t68.5 -166q0 -116 -73.5 -176.5t-193.5 -60.5h-112v-220h-92v680h216zM304 301q92 0 136.5 36.5t44.5 113.5q0 148 -171 148h-114v-298h104z" />
    <glyph glyph-name="uni0421" unicode="&#x421;" 
d="M376 -10q-136 0 -218 82.5t-82 261.5q0 95 27 166.5t73 111.5t98.5 59t111.5 19q110 0 195 -45l-26 -79q-44 23 -81 32.5t-96 9.5q-40 0 -75.5 -13.5t-66 -43t-48.5 -84t-18 -128.5q0 -144 55 -205.5t153 -61.5q86 0 177 47l24 -76q-94 -53 -203 -53z" />
    <glyph glyph-name="uni0422" unicode="&#x422;" 
d="M583 680v-84h-212v-596h-92v596h-212v84h516z" />
    <glyph glyph-name="uni0423" unicode="&#x423;" 
d="M608 680l-290 -599h177v-81h-435v81h169l65 134l-256 465h100l158 -295l39 -90h7l38 90l141 295h87z" />
    <glyph glyph-name="uni0424" unicode="&#x424;" 
d="M630 341q0 -124 -70 -187.5t-196 -72.5v-91h-78v91q-266 14 -266 253q0 247 266 265v91h78v-91q131 -7 198.5 -68.5t67.5 -189.5zM364 152q96 6 138 47.5t42 136.5q0 101 -42 144t-138 48v-376zM106 339q0 -98 42 -140t138 -47v376q-96 -6 -138 -48.5t-42 -140.5z" />
    <glyph glyph-name="uni0425" unicode="&#x425;" 
d="M494 0l-162 311h-17l-159 -311h-99l191 356l-186 324h97l160 -283h16l161 283h92l-187 -322l192 -358h-99z" />
    <glyph glyph-name="uni0426" unicode="&#x426;" 
d="M545 81h77v-221h-90v140h-449v680h92v-599h278v599h92v-599z" />
    <glyph glyph-name="uni0427" unicode="&#x427;" 
d="M458 680h92v-680h-92v273q-86 -14 -160 -14q-122 0 -170 49.5t-48 161.5v210h92v-184q0 -87 26.5 -120.5t107.5 -33.5q69 0 152 13v325z" />
    <glyph glyph-name="uni0428" unicode="&#x428;" 
d="M517 680h82v-680h-548v680h82v-600h151v600h82v-600h151v600z" />
    <glyph glyph-name="uni0429" unicode="&#x429;" 
d="M569 81h45v-221h-90v140h-473v680h80v-601h139v601h80v-601h139v601h80v-599z" />
    <glyph glyph-name="uni042A" unicode="&#x42a;" 
d="M373 412q227 0 227 -198q0 -104 -61 -159t-176 -55h-174v599h-148v81h237v-268h95zM357 80q88 0 120 31t32 97q0 62 -31.5 93t-110.5 31h-89v-252h79z" />
    <glyph glyph-name="uni042B" unicode="&#x42b;" 
d="M223 412q106 0 156.5 -52.5t50.5 -145.5q0 -102 -58 -158t-159 -56h-153v680h87v-268h76zM503 680h87v-680h-87v680zM205 77q76 0 106 32.5t30 98.5q0 62 -29 94.5t-97 32.5h-68v-258h58z" />
    <glyph glyph-name="uni042C" unicode="&#x42c;" 
d="M353 412q133 0 190 -51.5t57 -146.5q0 -214 -257 -214h-234v680h92v-268h152zM335 81q100 0 135.5 30.5t35.5 96.5q0 62 -34.5 92.5t-126.5 30.5h-144v-250h134z" />
    <glyph glyph-name="uni042D" unicode="&#x42d;" 
d="M274 690q136 0 218 -82.5t82 -261.5q0 -95 -27 -166.5t-73 -111.5t-98.5 -59t-111.5 -19q-110 0 -195 45l26 79q44 -23 81 -32.5t96 -9.5q51 0 93 19.5t74.5 72.5t38.5 135h-367v81h368q-14 228 -207 228q-86 0 -177 -47l-24 76q94 53 203 53z" />
    <glyph glyph-name="uni042E" unicode="&#x42e;" 
d="M431 688q41 0 72 -15.5t56.5 -52t39 -106t13.5 -169.5q0 -353 -187 -353q-83 0 -127 69t-49 239h-94v-300h-85v680h85v-302h95q9 310 181 310zM427 70q32 0 51 17t32.5 78.5t13.5 174.5q0 87 -6.5 142.5t-20.5 82.5t-29 36t-39 9q-32 0 -51.5 -17t-33 -78t-13.5 -172
q0 -87 6.5 -143.5t20.5 -84t29.5 -36.5t39.5 -9z" />
    <glyph glyph-name="uni042F" unicode="&#x42f;" 
d="M551 680v-680h-92v253h-152l-148 -253h-110l161 269q-129 61 -129 193q0 101 65.5 159.5t208.5 58.5h196zM268 334h191v265h-114q-170 0 -170 -127q0 -54 21.5 -85t71.5 -53z" />
    <glyph glyph-name="uni0430" unicode="&#x430;" 
d="M335 561q65 0 107 -15t61.5 -45.5t25.5 -61.5t6 -78l-5 -361h-75v66q-84 -79 -193 -77q-82 1 -127 41t-45 110q0 78 83.5 118t269.5 54l1 39q0 31 -3 50.5t-13.5 39.5t-35.5 29.5t-64 9.5q-101 0 -192 -47l-24 75q94 53 223 53zM274 68q86 -1 166 59l2 112
q-140 -11 -201 -33.5t-61 -63.5q0 -72 94 -74z" />
    <glyph glyph-name="uni0431" unicode="&#x431;" 
d="M357 549q107 0 162.5 -73.5t55.5 -205.5q0 -128 -70.5 -204.5t-182.5 -76.5q-131 0 -189 85.5t-58 274.5q0 260 78 347q37 41 126.5 72t277.5 62v-82q-176 -29 -248 -52.5t-99 -53.5q-22 -24 -33.5 -68t-21.5 -133q93 108 202 108zM324 70q80 0 120 52.5t40 142.5
q0 203 -130 203q-52 0 -90 -19t-98 -79v-21q1 -154 36 -216.5t122 -62.5z" />
    <glyph glyph-name="uni0432" unicode="&#x432;" 
d="M478 287q45 -16 66 -45.5t21 -80.5q0 -77 -50 -119t-150 -42h-241v550h208q101 0 149.5 -35.5t48.5 -111.5q0 -62 -52 -116zM322 475h-113v-168h194q39 41 39 90q0 38 -27 58t-93 20zM354 75q74 0 99 21t25 60q0 37 -21 56.5t-77 19.5h-171v-157h145z" />
    <glyph glyph-name="uni0433" unicode="&#x433;" 
d="M330 80h243v-80h-476v80h143v470h332v-80h-242v-390z" />
    <glyph glyph-name="uni0434" unicode="&#x434;" 
d="M530 80h77v-220h-88v140h-392v-140h-88v220h62q26 35 38 89.5t17 163.5l9 217h365v-470zM196 80h244v390h-189l-6 -152q-6 -165 -49 -238z" />
    <glyph glyph-name="uni0435" unicode="&#x435;" 
d="M178 280v-6q0 -104 43.5 -153.5t131.5 -49.5q91 0 182 47l24 -75q-94 -53 -208 -53q-125 0 -194.5 70.5t-69.5 208.5q0 136 73.5 213.5t185.5 77.5q122 0 177 -72.5t38 -207.5h-383zM340 482q-127 0 -155 -130h290q-1 68 -34 99t-101 31z" />
    <glyph glyph-name="uni0436" unicode="&#x436;" 
d="M524 0l-89 238h-74l6 -238h-84l6 238h-73l-93 -238h-97l121 274l-110 276h90l88 -238h74l-6 238h84l-6 -238h76l92 238h86l-108 -267l119 -283h-102z" />
    <glyph glyph-name="uni0437" unicode="&#x437;" 
d="M444 290q115 -28 115 -130q0 -76 -63 -123t-198 -47q-130 0 -211 38l24 74q73 -35 196 -35q85 0 121.5 22.5t36.5 65.5q0 40 -32.5 61.5t-116.5 21.5h-163v77h207q85 36 85 93q0 74 -136 74q-104 0 -189 -39l-22 73q90 44 219 44q221 0 221 -143q0 -84 -94 -127z" />
    <glyph glyph-name="uni0438" unicode="&#x438;" 
d="M427 551h125v-551h-86l5 458h-9l-239 -458h-125v550h86l-5 -457h9z" />
    <glyph glyph-name="uni0439" unicode="&#x439;" 
d="M322 651q-78 0 -117.5 38.5t-41.5 121.5h95q2 -49 16 -70t51 -21t51 21t16 70h95q-4 -160 -165 -160zM427 551h125v-551h-86l5 458h-9l-239 -458h-125v550h86l-5 -457h9z" />
    <glyph glyph-name="uni043A" unicode="&#x43a;" 
d="M451 0l-150 237h-90v-237h-90v550h90v-237h91l154 237h95l-173 -260l184 -290h-111z" />
    <glyph glyph-name="uni043B" unicode="&#x43b;" 
d="M548 550v-550h-90v470h-194l-7 -172q-5 -130 -26 -196t-63 -90.5t-122 -22.5v94q48 0 70 13.5t35.5 62.5t17.5 154l10 237h369z" />
    <glyph glyph-name="uni043C" unicode="&#x43c;" 
d="M560 550v-550h-80l7 470h-12l-24 -110l-69 -230h-105l-77 230l-25 110h-12l7 -470h-80v550h132l88 -269l16 -71h10l16 71l79 269h129z" />
    <glyph glyph-name="uni043D" unicode="&#x43d;" 
d="M468 550h90v-550h-90v235h-286v-235h-90v550h90v-235h286v235z" />
    <glyph glyph-name="uni043E" unicode="&#x43e;" 
d="M322 -11q-116 0 -181.5 75t-65.5 205q0 135 70 213.5t183 78.5q117 0 182 -75.5t65 -209.5q0 -132 -70 -209.5t-183 -77.5zM324 70q80 0 120 53.5t40 147.5q0 209 -158 209q-80 0 -120 -54.5t-40 -151.5t39 -150.5t119 -53.5z" />
    <glyph glyph-name="uni043F" unicode="&#x43f;" 
d="M548 550v-550h-90v470h-266v-470h-90v550h446z" />
    <glyph glyph-name="uni0440" unicode="&#x440;" 
d="M366 561q102 -1 155.5 -69.5t53.5 -195.5q0 -306 -273 -306q-57 0 -107 8v-178h-90v730h76v-61q86 74 185 72zM309 71q90 0 132.5 53.5t42.5 161.5q0 192 -129 194q-77 1 -160 -52v-343q49 -14 114 -14z" />
    <glyph glyph-name="uni0441" unicode="&#x441;" 
d="M351 -10q-128 0 -196 70t-68 209q0 143 76.5 217t197.5 74q115 0 200 -45l-26 -81q-87 45 -182 45q-82 0 -128 -51t-46 -154q0 -105 42 -154t132 -49t182 51l24 -79q-94 -53 -208 -53z" />
    <glyph glyph-name="uni0442" unicode="&#x442;" 
d="M585 550v-80h-215v-470h-90v470h-215v80h520z" />
    <glyph glyph-name="uni0443" unicode="&#x443;" 
d="M370 11v-111h158v-80h-406v80h158v111l-213 539h97l115 -299l39 -124h20l40 124l113 299h92z" />
    <glyph glyph-name="uni0444" unicode="&#x444;" 
d="M615 276q0 -126 -62.5 -200t-187.5 -85v-171h-80v170q-250 18 -250 279q0 129 62.5 204t187.5 86v171h80v-170q250 -18 250 -284zM365 65q93 9 128.5 60.5t35.5 145.5q0 100 -35.5 152.5t-128.5 61.5v-420zM121 274q0 -97 35.5 -148.5t128.5 -60.5v420
q-93 -9 -128.5 -61.5t-35.5 -149.5z" />
    <glyph glyph-name="uni0445" unicode="&#x445;" 
d="M479 0l-150 238h-11l-147 -238h-99l188 288l-185 262h99l147 -215h13l147 215h94l-185 -260l188 -290h-99z" />
    <glyph glyph-name="uni0446" unicode="&#x446;" 
d="M534 80h70v-220h-88v140h-420v550h90v-470h258v470h90v-470z" />
    <glyph glyph-name="uni0447" unicode="&#x447;" 
d="M451 550h90v-550h-90v131l9 87q-88 -26 -174 -26q-95 0 -138 39.5t-43 120.5v198h90v-183q0 -48 22.5 -71t81.5 -23q70 0 152 18v259z" />
    <glyph glyph-name="uni0448" unicode="&#x448;" 
d="M511 550h80v-550h-532v550h80v-470h146v470h80v-470h146v470z" />
    <glyph glyph-name="uni0449" unicode="&#x449;" 
d="M571 80h50v-220h-88v140h-484v550h78v-472h144v472h78v-472h144v472h78v-470z" />
    <glyph glyph-name="uni044A" unicode="&#x44a;" 
d="M408 352q100 0 145.5 -43.5t45.5 -129.5t-59 -137.5t-163 -51.5q-73 0 -188 16v464h-138v80h228v-123l-9 -90q88 15 138 15zM380 69q126 0 126 104q0 53 -24.5 76.5t-81.5 23.5q-46 0 -121 -8v-189q56 -7 101 -7z" />
    <glyph glyph-name="uni044B" unicode="&#x44b;" 
d="M259 352q171 0 171 -173q0 -85 -55 -137t-147 -52q-48 0 -163 16v544h84v-123l-9 -90q67 15 119 15zM585 550v-550h-84v472h-130v78h214zM231 67q111 0 111 106q0 55 -21.5 78.5t-69.5 23.5q-50 0 -102 -8v-192q53 -8 82 -8z" />
    <glyph glyph-name="uni044C" unicode="&#x44c;" 
d="M369 352q122 0 173 -43t51 -130q0 -88 -65 -138.5t-192 -50.5q-78 0 -218 16v544h90v-123l-9 -91q93 16 170 16zM339 69q88 0 124.5 25.5t36.5 78.5q0 55 -30 77.5t-111 22.5q-71 0 -151 -8v-188q72 -8 131 -8z" />
    <glyph glyph-name="uni044D" unicode="&#x44d;" 
d="M299 560q128 0 196 -70t68 -209q0 -143 -76.5 -217t-197.5 -74q-115 0 -200 45l26 81q87 -45 182 -45q73 0 118 40t54 121h-337v80h338q-7 86 -49 126.5t-124 40.5q-90 0 -182 -51l-24 79q94 53 208 53z" />
    <glyph glyph-name="uni044E" unicode="&#x44e;" 
d="M427 558q80 0 124.5 -61.5t44.5 -215.5q0 -158 -49 -223.5t-126 -65.5q-76 0 -117 56t-46 189h-88v-237h-82v550h82v-237h88q12 245 169 245zM423 70q21 0 35.5 6.5t28 27t20 63.5t6.5 109t-6.5 109t-19.5 62.5t-27 26t-35 6.5q-29 0 -46.5 -12t-30.5 -58t-13 -131
q0 -68 6.5 -112t19.5 -64t27 -26.5t35 -6.5z" />
    <glyph glyph-name="uni044F" unicode="&#x44f;" 
d="M534 550v-550h-87v200h-137l-125 -200h-105l139 214q-111 48 -111 158q0 178 235 178h191zM275 276h172v198h-109q-72 0 -104 -23.5t-32 -72.5q0 -41 17.5 -64.5t55.5 -37.5z" />
    <glyph glyph-name="uni0450" unicode="&#x450;" 
d="M396 650h-93l-126 170h108zM178 280v-6q0 -104 43.5 -153.5t131.5 -49.5q91 0 182 47l24 -75q-94 -53 -208 -53q-125 0 -194.5 70.5t-69.5 208.5q0 136 73.5 213.5t185.5 77.5q122 0 177 -72.5t38 -207.5h-383zM340 482q-127 0 -155 -130h290q-1 68 -34 99t-101 31z" />
    <glyph glyph-name="uni0451" unicode="&#x451;" 
d="M238 654q-34 0 -57.5 24t-23.5 58t23.5 57.5t57.5 23.5t58 -23.5t24 -57.5t-24 -58t-58 -24zM447 654q-34 0 -57.5 24t-23.5 58t23.5 57.5t57.5 23.5t58 -23.5t24 -57.5t-23.5 -58t-58.5 -24zM178 280v-6q0 -104 43.5 -153.5t131.5 -49.5q91 0 182 47l24 -75
q-94 -53 -208 -53q-125 0 -194.5 70.5t-69.5 208.5q0 136 73.5 213.5t185.5 77.5q122 0 177 -72.5t38 -207.5h-383zM340 482q-127 0 -155 -130h290q-1 68 -34 99t-101 31z" />
    <glyph glyph-name="uni0452" unicode="&#x452;" 
d="M368 561q93 0 136 -46t43 -136v-299q0 -137 -48.5 -199.5t-163.5 -62.5v85q71 0 96.5 44.5t25.5 147.5v271q0 60 -24.5 87t-75.5 27q-79 0 -160 -52v-428h-90v644h-82v80h82v96h90v-96h138v-80h-138v-64l-8 -86q82 67 179 67z" />
    <glyph glyph-name="uni0453" unicode="&#x453;" 
d="M577 820l-126 -170h-93l111 170h108zM330 470v-390h243v-80h-476v80h143v470h332v-80h-242z" />
    <glyph glyph-name="uni0454" unicode="&#x454;" 
d="M353 71q90 0 182 51l24 -79q-94 -53 -208 -53q-128 0 -196 70t-68 209q0 143 76.5 217t197.5 74q115 0 200 -45l-26 -81q-87 45 -182 45q-74 0 -119 -41.5t-53 -125.5h337v-80h-337q7 -83 49 -122t123 -39z" />
    <glyph glyph-name="uni0455" unicode="&#x455;" 
d="M314 -10q-130 0 -224 42l27 84q94 -46 201 -46q151 0 151 75q0 30 -38 51t-92.5 35.5t-108.5 32t-92 52.5t-38 85q0 76 62.5 117.5t172.5 41.5q106 0 199 -39l-26 -82q-85 41 -173 41q-144 0 -144 -69q0 -25 27.5 -43.5t68.5 -29t88.5 -26t88.5 -32.5t68.5 -49t27.5 -76
q0 -83 -66 -124t-180 -41z" />
    <glyph glyph-name="uni0456" unicode="&#x456;" 
d="M335 640q-37 0 -63.5 26t-26.5 64t26.5 64t63.5 26t63.5 -26t26.5 -64t-26.5 -64t-63.5 -26zM390 80h183v-80h-476v80h203v390h-203v80h293v-470z" />
    <glyph glyph-name="uni0457" unicode="&#x457;" 
d="M230 654q-34 0 -57.5 24t-23.5 58t23.5 57.5t57.5 23.5t58 -23.5t24 -57.5t-24 -58t-58 -24zM439 654q-34 0 -57.5 24t-23.5 58t23.5 57.5t57.5 23.5t58 -23.5t24 -57.5t-23.5 -58t-58.5 -24zM390 80h183v-80h-476v80h203v390h-203v80h293v-470z" />
    <glyph glyph-name="uni0458" unicode="&#x458;" 
d="M375 820q37 0 63.5 -26t26.5 -64t-26.5 -64t-63.5 -26t-63.5 26t-26.5 64t26.5 64t63.5 26zM97 550h323v-440q0 -149 -64 -220.5t-198 -71.5v85q90 0 131 51.5t41 170.5v345h-233v80z" />
    <glyph glyph-name="uni0459" unicode="&#x459;" 
d="M476 352q164 0 164 -173q0 -86 -50.5 -137.5t-139.5 -51.5q-60 0 -146 16v464h-128l-3 -172q-4 -186 -35.5 -247.5t-134.5 -61.5v94q38 0 54.5 17t24 62.5t9.5 150.5l5 237h292v-123l-9 -89q54 14 97 14zM453 65q53 0 76 27t23 81q0 56 -19.5 80t-64.5 24q-28 0 -80 -6
v-200q34 -6 65 -6z" />
    <glyph glyph-name="uni045A" unicode="&#x45a;" 
d="M476 352q164 0 164 -173q0 -86 -50.5 -137.5t-139.5 -51.5q-60 0 -146 16v232h-152v-238h-85v550h85v-238h152v238h84v-123l-9 -89q54 14 97 14zM453 65q53 0 76 27t23 81q0 56 -19.5 80t-64.5 24q-28 0 -80 -6v-200q34 -6 65 -6z" />
    <glyph glyph-name="uni045B" unicode="&#x45b;" 
d="M368 561q93 0 136 -46t43 -136v-379h-90v366q0 60 -24.5 87t-75.5 27q-79 0 -160 -52v-428h-90v644h-82v80h82v96h90v-96h138v-80h-138v-64l-8 -86q82 67 179 67z" />
    <glyph glyph-name="uni045C" unicode="&#x45c;" 
d="M501 820l-126 -170h-93l111 170h108zM451 0l-150 237h-90v-237h-90v550h90v-237h91l154 237h95l-173 -260l184 -290h-111z" />
    <glyph glyph-name="uni045D" unicode="&#x45d;" 
d="M378 650h-93l-126 170h108zM427 551h125v-551h-86l5 458h-9l-239 -458h-125v550h86l-5 -457h9z" />
    <glyph glyph-name="uni045E" unicode="&#x45e;" 
d="M330 651q-78 0 -117.5 38.5t-41.5 121.5h95q2 -49 16 -70t51 -21t51 21t16 70h95q-4 -160 -165 -160zM370 11v-111h158v-80h-406v80h158v111l-213 539h97l115 -299l39 -124h20l40 124l113 299h92z" />
    <glyph glyph-name="uni045F" unicode="&#x45f;" 
d="M454 550h90v-550h-174v-140h-90v140h-174v550h90v-470h258v470z" />
    <glyph glyph-name="uni0462" unicode="&#x462;" 
d="M373 412q227 0 227 -198q0 -104 -61 -159t-176 -55h-174v519h-148v81h148v80h89v-80h168v-81h-168v-107h95zM357 80q88 0 120 31t32 97q0 62 -31.5 93t-110.5 31h-89v-252h79z" />
    <glyph glyph-name="uni0463" unicode="&#x463;" 
d="M369 342q122 0 173 -42t51 -126t-65 -134t-192 -50q-78 0 -218 16v464h-82v80h82v130h93l-17 -130h214v-80h-200v-53l-9 -91q93 16 170 16zM339 69q88 0 124.5 25t36.5 74q0 51 -30 73t-111 22q-71 0 -151 -8v-178q72 -8 131 -8z" />
    <glyph glyph-name="uni0472" unicode="&#x472;" 
d="M328 690q127 0 199.5 -85.5t72.5 -263.5q0 -176 -77.5 -263.5t-200.5 -87.5q-127 0 -199.5 84.5t-72.5 259.5q0 179 77.5 267.5t200.5 88.5zM326 608q-157 0 -178 -195l358 -65q-2 139 -47.5 199.5t-132.5 60.5zM324 72q78 0 123 46.5t56 149.5l-359 65q1 -139 46.5 -200
t133.5 -61z" />
    <glyph glyph-name="uni0473" unicode="&#x473;" 
d="M328 561q117 0 182 -75.5t65 -209.5q0 -132 -70 -209.5t-183 -77.5q-116 0 -181.5 75t-65.5 205q0 135 70 213.5t183 78.5zM326 480q-128 0 -154 -137l312 -63q-3 200 -158 200zM324 70q126 0 154 133l-312 63q2 -94 41 -145t117 -51z" />
    <glyph glyph-name="uni0474" unicode="&#x474;" 
d="M443 488q17 68 34 108.5t41.5 62.5t53 28t74.5 4v-94q-40 0 -57.5 -9t-31.5 -39t-35 -106l-122 -443h-150l-193 680h96l136 -498l23 -102h31l23 102z" />
    <glyph glyph-name="uni0475" unicode="&#x475;" 
d="M432 377q40 121 76 155t116 30v-94q-47 0 -66 -20t-49 -107l-119 -341h-130l-193 550h97l111 -329l41 -141h23l41 141z" />
    <glyph glyph-name="uni0490" unicode="&#x490;" 
d="M483 817h90v-221h-342v-596h-92v680h344v137z" />
    <glyph glyph-name="uni0491" unicode="&#x491;" 
d="M330 80h243v-80h-476v80h143v470h244v139h88v-219h-242v-390z" />
    <glyph glyph-name="uni0492" unicode="&#x492;" 
d="M573 596h-315v-216h138v-81h-138v-299h-92v299h-90v81h90v300h407v-84z" />
    <glyph glyph-name="uni0493" unicode="&#x493;" 
d="M562 470h-292v-178h138v-80h-138v-212h-90v212h-90v80h90v258h382v-80z" />
    <glyph glyph-name="uni0494" unicode="&#x494;" 
d="M326 397q127 0 188 -61.5t61 -217.5q0 -300 -260 -300v77q81 0 126 49t45 168q0 116 -40 160.5t-126 44.5q-57 0 -128 -11v-306h-92v680h434v-84h-342v-212q80 13 134 13z" />
    <glyph glyph-name="uni0495" unicode="&#x495;" 
d="M330 307q110 0 162.5 -54.5t52.5 -174.5q0 -260 -222 -260v85q71 0 101.5 42.5t30.5 129.5q0 78 -32.5 115t-101.5 37q-55 0 -122 -16v-211h-90v550h382v-80h-292v-102l-8 -85q80 24 139 24z" />
    <glyph glyph-name="uni0496" unicode="&#x496;" 
d="M599 81h51v-221h-90v140h-38l-84 302h-75l6 -302h-86l6 302h-80l-84 -302h-100l112 351l-102 329h89l91 -302h74l-6 302h86l-6 -302h73l91 302h88l-102 -329z" />
    <glyph glyph-name="uni0497" unicode="&#x497;" 
d="M592 80h52v-220h-88v140h-32l-89 238h-74l6 -238h-84l6 238h-73l-93 -238h-97l121 274l-110 276h90l88 -238h74l-6 238h84l-6 -238h76l92 238h86l-108 -267z" />
    <glyph glyph-name="uni0498" unicode="&#x498;" 
d="M568 196q0 -83 -58 -138.5t-177 -65.5v-132h-90v131q-109 6 -189 44l26 78q96 -42 212 -42q99 0 141.5 30t42.5 90q0 111 -174 111h-185v81h237h3q52 21 74.5 50t22.5 70q0 57 -38 81.5t-119 24.5q-113 0 -207 -47l-24 75q101 53 238 53q114 0 178 -45.5t64 -136.5
q0 -97 -99 -153q64 -23 92.5 -60.5t28.5 -98.5z" />
    <glyph glyph-name="uni0499" unicode="&#x499;" 
d="M559 160q0 -68 -50.5 -113.5t-159.5 -54.5v-132h-88v131q-105 5 -174 37l24 74q73 -35 196 -35q85 0 121.5 22.5t36.5 65.5q0 40 -32.5 61.5t-116.5 21.5h-163v77h207q85 36 85 93q0 74 -136 74q-104 0 -189 -39l-22 73q90 44 219 44q221 0 221 -143q0 -84 -94 -127
q115 -28 115 -130z" />
    <glyph glyph-name="uni049A" unicode="&#x49a;" 
d="M537 81h53v-221h-90v140h-26l-178 300h-90v-300h-92v680h92v-300h97l176 300h97l-199 -334z" />
    <glyph glyph-name="uni049B" unicode="&#x49b;" 
d="M511 80h57v-220h-88v140h-29l-150 237h-90v-237h-90v550h90v-237h91l154 237h95l-173 -260z" />
    <glyph glyph-name="uni049C" unicode="&#x49c;" 
d="M498 0l-114 301h-52v-148h-82v148h-67v-301h-89v680h89v-301h67v148h82v-148h53l118 301h93l-133 -331l143 -349h-108z" />
    <glyph glyph-name="uni049D" unicode="&#x49d;" 
d="M483 0l-92 238h-59v-130h-80v130h-69v-238h-88v550h88v-238h69v130h80v-130h56l100 238h93l-114 -265l125 -285h-109z" />
    <glyph glyph-name="uni04A0" unicode="&#x4a0;" 
d="M515 0l-169 301h-88v-301h-89v600h-148v80h237v-301h93l169 301h95l-190 -334l200 -346h-110z" />
    <glyph glyph-name="uni04A1" unicode="&#x4a1;" 
d="M490 0l-139 237h-94v-237h-88v470h-138v80h226v-237h92l145 237h96l-163 -263l174 -287h-111z" />
    <glyph glyph-name="uni04A2" unicode="&#x4a2;" 
d="M562 81h57v-221h-90v140h-59v299h-290v-299h-92v680h92v-300h290v300h92v-599z" />
    <glyph glyph-name="uni04A3" unicode="&#x4a3;" 
d="M558 80h53v-220h-88v140h-55v235h-286v-235h-90v550h90v-235h286v235h90v-470z" />
    <glyph glyph-name="uni04A4" unicode="&#x4a4;" 
d="M619 680v-80h-148v-600h-89v300h-213v-300h-89v680h89v-301h213v301h237z" />
    <glyph glyph-name="uni04A5" unicode="&#x4a5;" 
d="M608 550v-80h-137v-470h-88v236h-215v-236h-88v550h88v-235h215v235h225z" />
    <glyph glyph-name="uni04AA" unicode="&#x4aa;" 
d="M555 119l24 -76q-76 -43 -158 -51v-132h-90v132q-117 13 -186 96t-69 246q0 95 27 166.5t73 111.5t98.5 59t111.5 19q110 0 195 -45l-26 -79q-44 23 -81 32.5t-96 9.5q-40 0 -75.5 -13.5t-66 -43t-48.5 -84t-18 -128.5q0 -144 55 -205.5t153 -61.5q86 0 177 47z" />
    <glyph glyph-name="uni04AB" unicode="&#x4ab;" 
d="M535 122l24 -79q-78 -43 -163 -51v-132h-88v132q-107 11 -164 81t-57 196q0 143 76.5 217t197.5 74q115 0 200 -45l-26 -81q-87 45 -182 45q-82 0 -128 -51t-46 -154q0 -105 42 -154t132 -49t182 51z" />
    <glyph glyph-name="uni04AE" unicode="&#x4ae;" 
d="M371 292v-210h192v-82h-476v82h192v210l-242 388h103l132 -220l50 -100h12l51 100l132 220h96z" />
    <glyph glyph-name="uni04AF" unicode="&#x4af;" 
d="M583 550l-213 -539v-191h-90v191l-213 539h97l115 -299l39 -124h20l40 124l113 299h92z" />
    <glyph glyph-name="uni04B0" unicode="&#x4b0;" 
d="M371 292v-81h129v-81h-129v-130h-92v130h-129v81h129v81l-242 388h103l132 -220l50 -100h12l51 100l132 220h96z" />
    <glyph glyph-name="uni04B1" unicode="&#x4b1;" 
d="M370 11v-11h158v-80h-158v-100h-90v100h-158v80h158v11l-213 539h97l115 -299l39 -124h20l40 124l113 299h92z" />
    <glyph glyph-name="uni04B2" unicode="&#x4b2;" 
d="M550 81h60v-221h-91v140h-25l-162 311h-17l-159 -311h-99l191 356l-186 324h97l160 -283h16l161 283h92l-187 -322z" />
    <glyph glyph-name="uni04B3" unicode="&#x4b3;" 
d="M526 80h68v-220h-88v140h-27l-150 238h-11l-147 -238h-99l188 288l-185 262h99l147 -215h13l147 215h94l-185 -260z" />
    <glyph glyph-name="uni04B6" unicode="&#x4b6;" 
d="M550 81h57v-221h-90v140h-59v273q-86 -14 -160 -14q-122 0 -170 49.5t-48 161.5v210h92v-184q0 -87 26.5 -120.5t107.5 -33.5q69 0 152 13v325h92v-599z" />
    <glyph glyph-name="uni04B7" unicode="&#x4b7;" 
d="M541 80h53v-220h-88v140h-55v131l9 87q-88 -26 -174 -26q-95 0 -138 39.5t-43 120.5v198h90v-183q0 -48 22.5 -71t81.5 -23q70 0 152 18v259h90v-470z" />
    <glyph glyph-name="uni04B8" unicode="&#x4b8;" 
d="M463 680h92v-680h-92v274q-55 -9 -105 -12v-148h-84v146q-111 4 -155 53.5t-44 156.5v210h92v-184q0 -79 21.5 -113.5t85.5 -40.5v146h84v-146q50 4 105 12v326z" />
    <glyph glyph-name="uni04B9" unicode="&#x4b9;" 
d="M457 550h89v-550h-89v131l8 87q-55 -16 -104 -22v-123h-82v119q-179 3 -179 160v198h89v-183q0 -45 19.5 -67t70.5 -26v120h82v-118q41 3 95 15z" />
    <glyph glyph-name="uni04BA" unicode="&#x4ba;" 
d="M342 421q122 0 170 -49.5t48 -161.5v-210h-92v184q0 87 -26.5 120.5t-107.5 33.5q-69 0 -152 -13v-325h-92v680h92v-273q86 14 160 14z" />
    <glyph glyph-name="uni04BB" unicode="&#x4bb;" 
d="M364 358q95 0 138 -39.5t43 -120.5v-198h-90v183q0 48 -22.5 71t-81.5 23q-70 0 -152 -18v-259h-90v550h90v-131l-9 -87q88 26 174 26z" />
    <glyph glyph-name="uni04C0" unicode="&#x4c0;" 
d="M563 598h-192v-516h192v-82h-476v82h192v516h-192v82h476v-82z" />
    <glyph glyph-name="uni04C1" unicode="&#x4c1;" 
d="M324 730q-155 0 -162 140h94q5 -40 20 -56.5t49 -16.5t49 16.5t20 56.5h94q-7 -140 -164 -140zM522 0l-84 302h-75l6 -302h-86l6 302h-80l-84 -302h-100l112 351l-102 329h89l91 -302h74l-6 302h86l-6 -302h73l91 302h88l-102 -329l112 -351h-103z" />
    <glyph glyph-name="uni04C2" unicode="&#x4c2;" 
d="M322 651q-78 0 -117.5 38.5t-41.5 121.5h95q2 -49 16 -70t51 -21t51 21t16 70h95q-4 -160 -165 -160zM524 0l-89 238h-74l6 -238h-84l6 238h-73l-93 -238h-97l121 274l-110 276h90l88 -238h74l-6 238h84l-6 -238h76l92 238h86l-108 -267l119 -283h-102z" />
    <glyph glyph-name="uni04CF" unicode="&#x4cf;" 
d="M370 80h193v-80h-476v80h193v740h90v-740z" />
    <glyph glyph-name="uni04D0" unicode="&#x4d0;" 
d="M322 730q-155 0 -162 140h94q5 -40 20 -56.5t49 -16.5t49 16.5t20 56.5h94q-7 -140 -164 -140zM509 0l-69 233h-234l-68 -233h-93l207 680h146l207 -680h-96zM230 314h186l-55 184l-24 102h-29l-24 -102z" />
    <glyph glyph-name="uni04D1" unicode="&#x4d1;" 
d="M314 651q-78 0 -117.5 38.5t-41.5 121.5h95q2 -49 16 -70t51 -21t51 21t16 70h95q-4 -160 -165 -160zM335 561q65 0 107 -15t61.5 -45.5t25.5 -61.5t6 -78l-5 -361h-75v66q-84 -79 -193 -77q-82 1 -127 41t-45 110q0 78 83.5 118t269.5 54l1 39q0 31 -3 50.5t-13.5 39.5
t-35.5 29.5t-64 9.5q-101 0 -192 -47l-24 75q94 53 223 53zM274 68q86 -1 166 59l2 112q-140 -11 -201 -33.5t-61 -63.5q0 -72 94 -74z" />
    <glyph glyph-name="uni04D2" unicode="&#x4d2;" 
d="M218 728q-35 0 -56 20.5t-21 51.5t21 52t56 21t56.5 -21t21.5 -52t-21.5 -51.5t-56.5 -20.5zM427 728q-35 0 -56 20.5t-21 51.5t21 52t56 21t56.5 -21t21.5 -52t-21.5 -51.5t-56.5 -20.5zM509 0l-69 233h-234l-68 -233h-93l207 680h146l207 -680h-96zM230 314h186
l-55 184l-24 102h-29l-24 -102z" />
    <glyph glyph-name="uni04D3" unicode="&#x4d3;" 
d="M212 654q-34 0 -57.5 24t-23.5 58t23.5 57.5t57.5 23.5t58 -23.5t24 -57.5t-24 -58t-58 -24zM421 654q-34 0 -57.5 24t-23.5 58t23.5 57.5t57.5 23.5t58 -23.5t24 -57.5t-23.5 -58t-58.5 -24zM335 561q65 0 107 -15t61.5 -45.5t25.5 -61.5t6 -78l-5 -361h-75v66
q-84 -79 -193 -77q-82 1 -127 41t-45 110q0 78 83.5 118t269.5 54l1 39q0 31 -3 50.5t-13.5 39.5t-35.5 29.5t-64 9.5q-101 0 -192 -47l-24 75q94 53 223 53zM274 68q86 -1 166 59l2 112q-140 -11 -201 -33.5t-61 -63.5q0 -72 94 -74z" />
    <glyph glyph-name="uni04D4" unicode="&#x4d4;" 
d="M582 599h-165v-219h155v-81h-155v-218h165v-81h-254v223h-137l-60 -223h-90l193 680h348v-81zM213 304h115v296h-39l-23 -102z" />
    <glyph glyph-name="uni04D5" unicode="&#x4d5;" 
d="M462 69q53 0 109 33l21 -67q-63 -43 -134 -43q-86 0 -131 73q-62 -73 -127 -73q-72 0 -110.5 38.5t-38.5 109.5t61 108.5t172 54.5l1 68q1 57 -10.5 83.5t-45.5 26.5q-48 0 -132 -50l-24 75q89 53 163 53q79 0 104 -70q48 69 114 69q83 0 117.5 -74t17.5 -214h-222
q1 -201 95 -201zM449 481q-34 0 -54 -31t-26 -110h143q6 141 -63 141zM201 69q47 0 99 58q-13 43 -16 106q-77 -13 -113 -32t-36 -59q0 -34 17.5 -53.5t48.5 -19.5z" />
    <glyph glyph-name="uni04D6" unicode="&#x4d6;" 
d="M334 730q-155 0 -162 140h94q5 -40 20 -56.5t49 -16.5t49 16.5t20 56.5h94q-7 -140 -164 -140zM548 599h-342v-219h332v-81h-332v-218h342v-81h-434v680h434v-81z" />
    <glyph glyph-name="uni04D7" unicode="&#x4d7;" 
d="M340 651q-78 0 -117.5 38.5t-41.5 121.5h95q2 -49 16 -70t51 -21t51 21t16 70h95q-4 -160 -165 -160zM178 280v-6q0 -104 43.5 -153.5t131.5 -49.5q91 0 182 47l24 -75q-94 -53 -208 -53q-125 0 -194.5 70.5t-69.5 208.5q0 136 73.5 213.5t185.5 77.5q122 0 177 -72.5
t38 -207.5h-383zM340 482q-127 0 -155 -130h290q-1 68 -34 99t-101 31z" />
    <glyph glyph-name="uni04D8" unicode="&#x4d8;" 
d="M300 690q300 0 300 -349q0 -176 -77.5 -263.5t-200.5 -87.5q-127 0 -199.5 84.5t-72.5 259.5q0 31 1 46h454q-8 125 -59.5 176.5t-147.5 51.5q-106 0 -207 -54l-24 78q105 58 233 58zM324 72q83 0 129 54t52 173h-360q7 -121 51.5 -174t127.5 -53z" />
    <glyph glyph-name="uni04D9" unicode="&#x4d9;" 
d="M299 560q125 0 194.5 -70.5t69.5 -208.5q0 -136 -73.5 -213.5t-185.5 -77.5q-122 0 -177 72.5t-38 207.5h383v6q0 104 -43.5 153.5t-131.5 49.5q-91 0 -182 -47l-24 75q94 53 208 53zM310 68q127 0 155 130h-290q1 -68 34 -99t101 -31z" />
    <glyph glyph-name="uni04DC" unicode="&#x4dc;" 
d="M220 728q-35 0 -56 20.5t-21 51.5t21 52t56 21t56.5 -21t21.5 -52t-21.5 -51.5t-56.5 -20.5zM429 728q-35 0 -56 20.5t-21 51.5t21 52t56 21t56.5 -21t21.5 -52t-21.5 -51.5t-56.5 -20.5zM522 0l-84 302h-75l6 -302h-86l6 302h-80l-84 -302h-100l112 351l-102 329h89
l91 -302h74l-6 302h86l-6 -302h73l91 302h88l-102 -329l112 -351h-103z" />
    <glyph glyph-name="uni04DD" unicode="&#x4dd;" 
d="M220 654q-34 0 -57.5 24t-23.5 58t23.5 57.5t57.5 23.5t58 -23.5t24 -57.5t-24 -58t-58 -24zM429 654q-34 0 -57.5 24t-23.5 58t23.5 57.5t57.5 23.5t58 -23.5t24 -57.5t-23.5 -58t-58.5 -24zM524 0l-89 238h-74l6 -238h-84l6 238h-73l-93 -238h-97l121 274l-110 276h90
l88 -238h74l-6 238h84l-6 -238h76l92 238h86l-108 -267l119 -283h-102z" />
    <glyph glyph-name="uni04DE" unicode="&#x4de;" 
d="M199 738q-35 0 -56 20.5t-21 51.5t21 52t56 21t56.5 -21t21.5 -52t-21.5 -51.5t-56.5 -20.5zM408 738q-35 0 -56 20.5t-21 51.5t21 52t56 21t56.5 -21t21.5 -52t-21.5 -51.5t-56.5 -20.5zM447 355q64 -23 92.5 -60.5t28.5 -98.5q0 -92 -70 -149t-214 -57q-136 0 -230 45
l26 78q96 -42 212 -42q99 0 141.5 30t42.5 90q0 111 -174 111h-185v81h237h3q52 21 74.5 50t22.5 70q0 57 -38 81.5t-119 24.5q-113 0 -207 -47l-24 75q101 53 238 53q114 0 178 -45.5t64 -136.5q0 -97 -99 -153z" />
    <glyph glyph-name="uni04DF" unicode="&#x4df;" 
d="M212 654q-34 0 -57.5 24t-23.5 58t23.5 57.5t57.5 23.5t58 -23.5t24 -57.5t-24 -58t-58 -24zM421 654q-34 0 -57.5 24t-23.5 58t23.5 57.5t57.5 23.5t58 -23.5t24 -57.5t-23.5 -58t-58.5 -24zM444 290q115 -28 115 -130q0 -76 -63 -123t-198 -47q-130 0 -211 38l24 74
q73 -35 196 -35q85 0 121.5 22.5t36.5 65.5q0 40 -32.5 61.5t-116.5 21.5h-163v77h207q85 36 85 93q0 74 -136 74q-104 0 -189 -39l-22 73q90 44 219 44q221 0 221 -143q0 -84 -94 -127z" />
    <glyph glyph-name="uni04E2" unicode="&#x4e2;" 
d="M480 826v-73h-310v73h310zM423 681h138v-681h-89l6 585h-10l-241 -585h-138v680h89l-6 -584h9z" />
    <glyph glyph-name="uni04E3" unicode="&#x4e3;" 
d="M485 766v-73h-320v73h320zM427 551h125v-551h-86l5 458h-9l-239 -458h-125v550h86l-5 -457h9z" />
    <glyph glyph-name="uni04E4" unicode="&#x4e4;" 
d="M220 728q-35 0 -56 20.5t-21 51.5t21 52t56 21t56.5 -21t21.5 -52t-21.5 -51.5t-56.5 -20.5zM429 728q-35 0 -56 20.5t-21 51.5t21 52t56 21t56.5 -21t21.5 -52t-21.5 -51.5t-56.5 -20.5zM423 681h138v-681h-89l6 585h-10l-241 -585h-138v680h89l-6 -584h9z" />
    <glyph glyph-name="uni04E5" unicode="&#x4e5;" 
d="M220 654q-34 0 -57.5 24t-23.5 58t23.5 57.5t57.5 23.5t58 -23.5t24 -57.5t-24 -58t-58 -24zM429 654q-34 0 -57.5 24t-23.5 58t23.5 57.5t57.5 23.5t58 -23.5t24 -57.5t-23.5 -58t-58.5 -24zM427 551h125v-551h-86l5 458h-9l-239 -458h-125v550h86l-5 -457h9z" />
    <glyph glyph-name="uni04E6" unicode="&#x4e6;" 
d="M222 738q-35 0 -56 20.5t-21 51.5t21 52t56 21t56.5 -21t21.5 -52t-21.5 -51.5t-56.5 -20.5zM431 738q-35 0 -56 20.5t-21 51.5t21 52t56 21t56.5 -21t21.5 -52t-21.5 -51.5t-56.5 -20.5zM322 -10q-127 0 -199.5 84.5t-72.5 259.5q0 179 77.5 267.5t200.5 88.5
q127 0 199.5 -85.5t72.5 -263.5q0 -176 -77.5 -263.5t-200.5 -87.5zM324 72q90 0 136 62.5t46 201.5q0 145 -45.5 208.5t-134.5 63.5q-90 0 -136 -63.5t-46 -205.5t45.5 -204.5t134.5 -62.5z" />
    <glyph glyph-name="uni04E7" unicode="&#x4e7;" 
d="M220 654q-34 0 -57.5 24t-23.5 58t23.5 57.5t57.5 23.5t58 -23.5t24 -57.5t-24 -58t-58 -24zM429 654q-34 0 -57.5 24t-23.5 58t23.5 57.5t57.5 23.5t58 -23.5t24 -57.5t-23.5 -58t-58.5 -24zM322 -11q-116 0 -181.5 75t-65.5 205q0 135 70 213.5t183 78.5
q117 0 182 -75.5t65 -209.5q0 -132 -70 -209.5t-183 -77.5zM324 70q80 0 120 53.5t40 147.5q0 209 -158 209q-80 0 -120 -54.5t-40 -151.5t39 -150.5t119 -53.5z" />
    <glyph glyph-name="uni04E8" unicode="&#x4e8;" 
d="M328 690q127 0 199.5 -85.5t72.5 -263.5q0 -176 -77.5 -263.5t-200.5 -87.5q-127 0 -199.5 84.5t-72.5 259.5q0 179 77.5 267.5t200.5 88.5zM326 608q-83 0 -128.5 -54.5t-52.5 -173.5h360q-7 121 -52 174.5t-127 53.5zM324 72q83 0 129 54t52 173h-360q7 -121 51.5 -174
t127.5 -53z" />
    <glyph glyph-name="uni04E9" unicode="&#x4e9;" 
d="M328 561q117 0 182 -75.5t65 -209.5q0 -132 -70 -209.5t-183 -77.5q-116 0 -181.5 75t-65.5 205q0 135 70 213.5t183 78.5zM326 480q-143 0 -158 -169h314q-14 169 -156 169zM324 70q71 0 110.5 43t47.5 120h-314q16 -163 156 -163z" />
    <glyph glyph-name="uni04EE" unicode="&#x4ee;" 
d="M486 826v-73h-310v73h310zM608 680l-290 -599h177v-81h-435v81h169l65 134l-256 465h100l158 -295l39 -90h7l38 90l141 295h87z" />
    <glyph glyph-name="uni04EF" unicode="&#x4ef;" 
d="M493 766v-73h-320v73h320zM370 11v-111h158v-80h-406v80h158v111l-213 539h97l115 -299l39 -124h20l40 124l113 299h92z" />
    <glyph glyph-name="uni04F0" unicode="&#x4f0;" 
d="M226 728q-35 0 -56 20.5t-21 51.5t21 52t56 21t56.5 -21t21.5 -52t-21.5 -51.5t-56.5 -20.5zM435 728q-35 0 -56 20.5t-21 51.5t21 52t56 21t56.5 -21t21.5 -52t-21.5 -51.5t-56.5 -20.5zM608 680l-290 -599h177v-81h-435v81h169l65 134l-256 465h100l158 -295l39 -90h7
l38 90l141 295h87z" />
    <glyph glyph-name="uni04F1" unicode="&#x4f1;" 
d="M228 654q-34 0 -57.5 24t-23.5 58t23.5 57.5t57.5 23.5t58 -23.5t24 -57.5t-24 -58t-58 -24zM437 654q-34 0 -57.5 24t-23.5 58t23.5 57.5t57.5 23.5t58 -23.5t24 -57.5t-23.5 -58t-58.5 -24zM370 11v-111h158v-80h-406v80h158v111l-213 539h97l115 -299l39 -124h20
l40 124l113 299h92z" />
    <glyph glyph-name="uni04F2" unicode="&#x4f2;" 
d="M399 870l-116 -140h-91l101 140h106zM463 730h-95l131 140h110zM521 680h87l-290 -599h177v-81h-435v81h169l65 134l-256 465h100l158 -295l39 -90h7l38 90z" />
    <glyph glyph-name="uni04F3" unicode="&#x4f3;" 
d="M404 820l-116 -170h-93l101 170h108zM458 650h-93l121 170h108zM583 550l-213 -539v-111h158v-80h-406v80h158v111l-213 539h97l115 -299l39 -124h20l40 124l113 299h92z" />
    <glyph glyph-name="uni04F4" unicode="&#x4f4;" 
d="M220 728q-35 0 -56 20.5t-21 51.5t21 52t56 21t56.5 -21t21.5 -52t-21.5 -51.5t-56.5 -20.5zM429 728q-35 0 -56 20.5t-21 51.5t21 52t56 21t56.5 -21t21.5 -52t-21.5 -51.5t-56.5 -20.5zM458 680h92v-680h-92v273q-86 -14 -160 -14q-122 0 -170 49.5t-48 161.5v210h92
v-184q0 -87 26.5 -120.5t107.5 -33.5q69 0 152 13v325z" />
    <glyph glyph-name="uni04F5" unicode="&#x4f5;" 
d="M220 654q-34 0 -57.5 24t-23.5 58t23.5 57.5t57.5 23.5t58 -23.5t24 -57.5t-24 -58t-58 -24zM429 654q-34 0 -57.5 24t-23.5 58t23.5 57.5t57.5 23.5t58 -23.5t24 -57.5t-23.5 -58t-58.5 -24zM451 550h90v-550h-90v131l9 87q-88 -26 -174 -26q-95 0 -138 39.5t-43 120.5
v198h90v-183q0 -48 22.5 -71t81.5 -23q70 0 152 18v259z" />
    <glyph glyph-name="uni04F8" unicode="&#x4f8;" 
d="M220 728q-35 0 -56 20.5t-21 51.5t21 52t56 21t56.5 -21t21.5 -52t-21.5 -51.5t-56.5 -20.5zM429 873q35 0 56.5 -21t21.5 -52t-21.5 -51.5t-56.5 -20.5t-56 20.5t-21 51.5t21 52t56 21zM223 412q106 0 156.5 -52.5t50.5 -145.5q0 -102 -58 -158t-159 -56h-153v680h87
v-268h76zM503 680h87v-680h-87v680zM205 77q76 0 106 32.5t30 98.5q0 62 -29 94.5t-97 32.5h-68v-258h58z" />
    <glyph glyph-name="uni04F9" unicode="&#x4f9;" 
d="M220 654q-34 0 -57.5 24t-23.5 58t23.5 57.5t57.5 23.5t58 -23.5t24 -57.5t-24 -58t-58 -24zM429 654q-34 0 -57.5 24t-23.5 58t23.5 57.5t57.5 23.5t58 -23.5t24 -57.5t-23.5 -58t-58.5 -24zM259 352q171 0 171 -173q0 -85 -55 -137t-147 -52q-48 0 -163 16v544h84v-123
l-9 -90q67 15 119 15zM585 550v-550h-84v472h-130v78h214zM231 67q111 0 111 106q0 55 -21.5 78.5t-69.5 23.5q-50 0 -102 -8v-192q53 -8 82 -8z" />
    <glyph glyph-name="uni0E3F" unicode="&#xe3f;" 
d="M585 196q0 -90 -54 -141.5t-160 -54.5v-100h-92v100h-185v680h185v100h92v-101q193 -10 193 -181q0 -74 -69 -156q90 -40 90 -146zM279 601h-93v-228h93v228zM470 491q0 48 -22.5 74.5t-76.5 33.5v-226h49q50 56 50 118zM186 79h93v215h-93v-215zM371 79q71 4 95.5 31.5
t24.5 79.5q0 48 -24 76t-87 28h-9v-215z" />
    <glyph glyph-name="uni1E0C" unicode="&#x1e0c;" 
d="M287 680q155 0 231.5 -82t76.5 -252q0 -346 -327 -346h-174v680h193zM260 81q134 0 187.5 61t53.5 199q0 137 -51 197.5t-170 60.5h-94v-518h74zM325 -50q31 0 51.5 -20t20.5 -50t-20.5 -50t-51.5 -20t-51.5 20t-20.5 50t20.5 50t51.5 20z" />
    <glyph glyph-name="uni1E0D" unicode="&#x1e0d;" 
d="M455 820h90v-820h-78v59q-84 -72 -183 -70q-102 1 -155.5 69.5t-53.5 195.5q0 306 273 306q57 0 107 -8v268zM295 70q77 -1 160 52v343q-49 14 -114 14q-90 0 -132.5 -53.5t-42.5 -161.5q0 -192 129 -194zM325 -50q31 0 51.5 -20t20.5 -50t-20.5 -50t-51.5 -20t-51.5 20
t-20.5 50t20.5 50t51.5 20z" />
    <glyph glyph-name="uni1E10" unicode="&#x1e10;" 
d="M287 680q155 0 231.5 -82t76.5 -252q0 -346 -327 -346h-174v680h193zM260 81q134 0 187.5 61t53.5 199q0 137 -51 197.5t-170 60.5h-94v-518h74zM244 -180l33 130h98l-44 -130h-87z" />
    <glyph glyph-name="uni1E11" unicode="&#x1e11;" 
d="M455 820h90v-820h-78v59q-84 -72 -183 -70q-102 1 -155.5 69.5t-53.5 195.5q0 306 273 306q57 0 107 -8v268zM295 70q77 -1 160 52v343q-49 14 -114 14q-90 0 -132.5 -53.5t-42.5 -161.5q0 -192 129 -194zM221 -180l33 130h98l-44 -130h-87z" />
    <glyph glyph-name="uni1E24" unicode="&#x1e24;" 
d="M470 680h92v-680h-92v299h-290v-299h-92v680h92v-300h290v300zM325 -50q31 0 51.5 -20t20.5 -50t-20.5 -50t-51.5 -20t-51.5 20t-20.5 50t20.5 50t51.5 20z" />
    <glyph glyph-name="uni1E25" unicode="&#x1e25;" 
d="M368 561q93 0 136 -46t43 -136v-379h-90v366q0 60 -24.5 87t-75.5 27q-79 0 -160 -52v-428h-90v820h90v-240l-8 -86q82 67 179 67zM325 -50q31 0 51.5 -20t20.5 -50t-20.5 -50t-51.5 -20t-51.5 20t-20.5 50t20.5 50t51.5 20z" />
    <glyph glyph-name="uni1E36" unicode="&#x1e36;" 
d="M216 83h342v-83h-434v680h92v-597zM357 -50q31 0 51.5 -20t20.5 -50t-20.5 -50t-51.5 -20t-51.5 20t-20.5 50t20.5 50t51.5 20z" />
    <glyph glyph-name="uni1E37" unicode="&#x1e37;" 
d="M370 80h193v-80h-476v80h193v740h90v-740zM325 -50q31 0 51.5 -20t20.5 -50t-20.5 -50t-51.5 -20t-51.5 20t-20.5 50t20.5 50t51.5 20z" />
    <glyph glyph-name="uni1E3E" unicode="&#x1e3e;" 
d="M500 870l-136 -140h-93l121 140h108zM560 680v-680h-82v350l8 250h-9l-23 -110l-68 -230h-111l-76 230l-25 110h-10l8 -250v-350h-82v680h133l88 -269l16 -71h9l15 71l79 269h130z" />
    <glyph glyph-name="uni1E3F" unicode="&#x1e3f;" 
d="M491 820l-126 -170h-93l111 170h108zM470 561q62 0 91.5 -36.5t29.5 -115.5v-409h-80v376q0 65 -11.5 89.5t-49.5 24.5q-39 0 -87 -41q2 -24 2 -40v-409h-80v376q0 65 -11.5 89.5t-49.5 24.5q-39 0 -85 -39v-451h-80v550h66l1 -48q56 59 118 59q76 0 103 -55
q64 55 123 55z" />
    <glyph glyph-name="uni1E44" unicode="&#x1e44;" 
d="M325 720q-38 0 -61.5 23t-23.5 57t23.5 57t61.5 23t61.5 -23t23.5 -57t-23.5 -57t-61.5 -23zM470 680h85v-680h-142l-228 577h-10l5 -577h-85v680h142l229 -577h9z" />
    <glyph glyph-name="uni1E45" unicode="&#x1e45;" 
d="M327 640q-37 0 -63.5 26t-26.5 64t26.5 64t63.5 26t63.5 -26t26.5 -64t-26.5 -64t-63.5 -26zM368 561q93 0 136 -46t43 -136v-379h-90v366q0 60 -24.5 87t-75.5 27q-79 0 -160 -52v-428h-90v550h76v-61q84 72 185 72z" />
    <glyph glyph-name="uni1E5A" unicode="&#x1e5a;" 
d="M437 274l164 -274h-114l-149 253h-147v-253h-92v680h216q130 0 192 -47t62 -152q0 -123 -132 -207zM191 599v-265h195q89 55 89 140q0 65 -39.5 95t-130.5 30h-114zM340 -50q31 0 51.5 -20t20.5 -50t-20.5 -50t-51.5 -20t-51.5 20t-20.5 50t20.5 50t51.5 20z" />
    <glyph glyph-name="uni1E5B" unicode="&#x1e5b;" 
d="M330 80h243v-80h-476v80h143v470h80l-2 -106l244 119l1 -89l-233 -113v-281zM296 -50q31 0 51.5 -20t20.5 -50t-20.5 -50t-51.5 -20t-51.5 20t-20.5 50t20.5 50t51.5 20z" />
    <glyph glyph-name="uni1E62" unicode="&#x1e62;" 
d="M309 -10q-142 0 -229 41l27 86q89 -46 208 -46q156 0 156 95q0 32 -28 58.5t-70.5 45t-92 42t-92 47.5t-70.5 63.5t-28 88.5q0 85 66.5 132t175.5 47q125 0 212 -41l-26 -83q-83 43 -193 43q-142 0 -142 -90q0 -33 28 -60.5t70.5 -46t92 -42.5t92 -47.5t70.5 -62
t28 -86.5q0 -91 -70.5 -137.5t-184.5 -46.5zM311 -190q-31 0 -51.5 20t-20.5 50t20.5 50t51.5 20t51.5 -20t20.5 -50t-20.5 -50t-51.5 -20z" />
    <glyph glyph-name="uni1E63" unicode="&#x1e63;" 
d="M314 -10q-130 0 -224 42l27 84q94 -46 201 -46q151 0 151 75q0 30 -38 51t-92.5 35.5t-108.5 32t-92 52.5t-38 85q0 76 62.5 117.5t172.5 41.5q106 0 199 -39l-26 -82q-85 41 -173 41q-144 0 -144 -69q0 -25 27.5 -43.5t68.5 -29t88.5 -26t88.5 -32.5t68.5 -49t27.5 -76
q0 -83 -66 -124t-180 -41zM315 -190q-31 0 -51.5 20t-20.5 50t20.5 50t51.5 20t51.5 -20t20.5 -50t-20.5 -50t-51.5 -20z" />
    <glyph glyph-name="uni1E6C" unicode="&#x1e6c;" 
d="M583 680v-84h-212v-596h-92v596h-212v84h516zM329 -50q31 0 51.5 -20t20.5 -50t-20.5 -50t-51.5 -20t-51.5 20t-20.5 50t20.5 50t51.5 20z" />
    <glyph glyph-name="uni1E6D" unicode="&#x1e6d;" 
d="M565 33q-75 -43 -189 -43q-105 0 -141 50.5t-34 149.5l6 280h-135v80h136l3 130h93l-17 -130h258v-80h-246l-6 -270q-2 -62 15 -95.5t71 -33.5q91 0 162 37zM375 -50q31 0 51.5 -20t20.5 -50t-20.5 -50t-51.5 -20t-51.5 20t-20.5 50t20.5 50t51.5 20z" />
    <glyph glyph-name="uni1E7C" unicode="&#x1e7c;" 
d="M239 793l-35 -65l-67 27l22 46q32 66 79 66q35 0 99 -28l74 -32l35 65l67 -27l-22 -46q-32 -66 -79 -66q-36 0 -99 28zM500 680h93l-193 -680h-150l-193 680h96l136 -498l23 -102h31l23 102z" />
    <glyph glyph-name="uni1E7D" unicode="&#x1e7d;" 
d="M215 721l-33 -62l-76 30l22 49q17 37 35 50t45 13q32 0 96 -24l81 -30l33 62l76 -30l-22 -49q-17 -37 -35 -50t-45 -13q-32 0 -96 24zM491 550h92l-193 -550h-130l-193 550h97l111 -329l41 -141h23l41 141z" />
    <glyph glyph-name="Wgrave" unicode="&#x1e80;" 
d="M370 730h-93l-136 140h108zM508 680h82l-90 -680h-130l-29 190l-12 150h-8l-12 -150l-29 -190h-130l-90 680h82l44 -350l24 -250h12l22 189l23 151h116l23 -151l22 -189h12l24 250z" />
    <glyph glyph-name="wgrave" unicode="&#x1e81;" 
d="M389 650h-93l-126 170h108zM543 550h80l-96 -550h-121l-65 369l-11 101h-9l-11 -101l-65 -369h-122l-96 550h85l59 -359l12 -111h12l11 110l59 360h126l59 -360l11 -110h11l12 109z" />
    <glyph glyph-name="Wacute" unicode="&#x1e82;" 
d="M509 870l-136 -140h-93l121 140h108zM508 680h82l-90 -680h-130l-29 190l-12 150h-8l-12 -150l-29 -190h-130l-90 680h82l44 -350l24 -250h12l22 189l23 151h116l23 -151l22 -189h12l24 250z" />
    <glyph glyph-name="wacute" unicode="&#x1e83;" 
d="M502 820l-126 -170h-93l111 170h108zM543 550h80l-96 -550h-121l-65 369l-11 101h-9l-11 -101l-65 -369h-122l-96 550h85l59 -359l12 -111h12l11 110l59 360h126l59 -360l11 -110h11l12 109z" />
    <glyph glyph-name="Wdieresis" unicode="&#x1e84;" 
d="M220 728q-35 0 -56 20.5t-21 51.5t21 52t56 21t56.5 -21t21.5 -52t-21.5 -51.5t-56.5 -20.5zM429 728q-35 0 -56 20.5t-21 51.5t21 52t56 21t56.5 -21t21.5 -52t-21.5 -51.5t-56.5 -20.5zM508 680h82l-90 -680h-130l-29 190l-12 150h-8l-12 -150l-29 -190h-130l-90 680
h82l44 -350l24 -250h12l22 189l23 151h116l23 -151l22 -189h12l24 250z" />
    <glyph glyph-name="wdieresis" unicode="&#x1e85;" 
d="M231 654q-34 0 -57.5 24t-23.5 58t23.5 57.5t57.5 23.5t58 -23.5t24 -57.5t-23.5 -58t-58.5 -24zM440 654q-34 0 -57.5 24t-23.5 58t23.5 57.5t57.5 23.5t58 -23.5t24 -57.5t-24 -58t-58 -24zM543 550h80l-96 -550h-121l-65 369l-11 101h-9l-11 -101l-65 -369h-122
l-96 550h85l59 -359l12 -111h12l11 110l59 360h126l59 -360l11 -110h11l12 109z" />
    <glyph glyph-name="uni1E92" unicode="&#x1e92;" 
d="M180 82h391v-82h-492v92l336 449l44 43v14h-370v82h472v-92l-336 -449l-45 -43v-14zM325 -50q31 0 51.5 -20t20.5 -50t-20.5 -50t-51.5 -20t-51.5 20t-20.5 50t20.5 50t51.5 20z" />
    <glyph glyph-name="uni1E93" unicode="&#x1e93;" 
d="M193 80h371v-80h-472v100l361 370h-351v80h452v-100zM325 -50q31 0 51.5 -20t20.5 -50t-20.5 -50t-51.5 -20t-51.5 20t-20.5 50t20.5 50t51.5 20z" />
    <glyph glyph-name="Ygrave" unicode="&#x1ef2;" 
d="M370 730h-93l-136 140h108zM371 292v-210h192v-82h-476v82h192v210l-242 388h103l132 -220l50 -100h12l51 100l132 220h96z" />
    <glyph glyph-name="ygrave" unicode="&#x1ef3;" 
d="M386 650h-93l-126 170h108zM370 11v-111h158v-80h-406v80h158v111l-213 539h97l115 -299l39 -124h20l40 124l113 299h92z" />
    <glyph glyph-name="uni2010" unicode="&#x2010;" 
d="M135 346h380v-81h-380v81z" />
    <glyph glyph-name="endash" unicode="&#x2013;" 
d="M95 265v81h460v-81h-460z" />
    <glyph glyph-name="emdash" unicode="&#x2014;" 
d="M-2 265v81h654v-81h-654z" />
    <glyph glyph-name="quoteleft" unicode="&#x2018;" 
d="M370 420h-121l64 300h96z" />
    <glyph glyph-name="quoteright" unicode="&#x2019;" 
d="M280 680h121l-64 -300h-96z" />
    <glyph glyph-name="quotesinglbase" unicode="&#x201a;" 
d="M280 160h121l-64 -300h-96z" />
    <glyph glyph-name="quotedblleft" unicode="&#x201c;" 
d="M248 420h-118l64 300h93zM481 420h-118l64 300h93z" />
    <glyph glyph-name="quotedblright" unicode="&#x201d;" 
d="M169 679h118l-64 -300h-93zM402 679h118l-64 -300h-93z" />
    <glyph glyph-name="quotedblbase" unicode="&#x201e;" 
d="M169 160h118l-64 -300h-93zM402 160h118l-64 -300h-93z" />
    <glyph glyph-name="dagger" unicode="&#x2020;" 
d="M565 636l-1 -91l-202 9l6 -367h-91l6 367l-197 -9l-1 91l198 -9l-6 182h91l-6 -182z" />
    <glyph glyph-name="daggerdbl" unicode="&#x2021;" 
d="M564 391l1 -91l-203 9l6 -192h-91l6 192l-198 -9l1 91l198 -9v182l-198 -9l-1 91l198 -9l-6 172h91l-6 -172l203 9l-1 -91l-203 9v-182z" />
    <glyph glyph-name="bullet" unicode="&#x2022;" 
d="M325 152q-60 0 -102 42t-42 102t42 102t102 42t102 -42t42 -102t-42 -102t-102 -42z" />
    <glyph glyph-name="ellipsis" unicode="&#x2026;" 
d="M101 -9q-37 0 -62 26t-25 64t25 64t62 26t62 -26t25 -64t-25 -64t-62 -26zM325 -9q-37 0 -62 26t-25 64t25 64t62 26t62 -26t25 -64t-25 -64t-62 -26zM549 -9q-37 0 -62 26t-25 64t25 64t62 26t62 -26t25 -64t-25 -64t-62 -26z" />
    <glyph glyph-name="uni2027" unicode="&#x2027;" 
d="M325 206q-37 0 -63.5 26t-26.5 64t26.5 64t63.5 26t63.5 -26t26.5 -64t-26.5 -64t-63.5 -26z" />
    <glyph glyph-name="perthousand" unicode="&#x2030;" 
d="M131 365q-47 0 -78 37t-31 124q0 85 32 124.5t81 39.5q47 0 78 -37.5t31 -124.5q0 -85 -32 -124t-81 -39zM492 680l-192 -310l-52 32l147 278h97zM132 628q-42 0 -42 -100q0 -59 11 -80.5t33 -21.5q42 0 42 100q0 59 -11 80.5t-33 21.5zM519 315q47 0 78 -37.5t31 -124.5
q0 -85 -32 -124t-81 -39q-53 0 -76 41q-26 -41 -78 -41q-47 0 -78 37t-31 124q0 85 32 124.5t81 39.5q52 0 76 -41q26 41 78 41zM4 0l192 310l52 -32l-147 -278h-97zM364 51q42 0 42 100q0 59 -11 80.5t-33 21.5q-42 0 -42 -100q0 -59 11 -80.5t33 -21.5zM518 51
q42 0 42 100q0 59 -11 80.5t-33 21.5q-42 0 -42 -100q0 -59 11 -80.5t33 -21.5z" />
    <glyph glyph-name="minute" unicode="&#x2032;" 
d="M212 340l90 340h136l-118 -340h-108z" />
    <glyph glyph-name="second" unicode="&#x2033;" 
d="M91 340l90 340h136l-118 -340h-108zM333 340l90 340h136l-118 -340h-108z" />
    <glyph glyph-name="guilsinglleft" unicode="&#x2039;" 
d="M458 450l-215 -130v-13l215 -130v-99l-295 186v98l295 186v-98z" />
    <glyph glyph-name="guilsinglright" unicode="&#x203a;" 
d="M192 548l295 -186v-98l-295 -186v98l215 130v13l-215 130v99z" />
    <glyph glyph-name="fraction" unicode="&#x2044;" 
d="M49 0l454 680h98l-454 -680h-98z" />
    <glyph glyph-name="uni2052" unicode="&#x2052;" 
d="M179 443q-51 0 -87 35.5t-36 86.5q0 52 36 87.5t87 35.5t87 -35.5t36 -87.5q0 -51 -36 -86.5t-87 -35.5zM49 0l454 680h98l-454 -680h-98zM471 237q51 0 87 -35.5t36 -86.5q0 -52 -36 -87.5t-87 -35.5t-87 35.5t-36 87.5q0 51 36 86.5t87 35.5z" />
    <glyph glyph-name="Euro" unicode="&#x20ac;" 
d="M398 72q75 0 157 38l24 -76q-86 -44 -183 -44q-109 0 -177 50t-92 166h-80v82h70q-1 15 -1 46t1 46h-70v82h82q27 119 102 173.5t175 54.5q89 0 175 -39l-26 -79q-81 36 -157 36q-136 0 -174 -146h337v-82h-350q-1 -13 -1 -41q0 -19 2 -51h349v-82h-337q18 -72 61 -103
t113 -31z" />
    <glyph glyph-name="uni20AE" unicode="&#x20ae;" 
d="M583 596h-212v-160l212 46v-82l-212 -46v-92l212 46v-82l-212 -46v-180h-92v161l-212 -46v82l212 46v92l-212 -46v82l212 46v179h-212v84h516v-84z" />
    <glyph glyph-name="uni20B1" unicode="&#x20b1;" 
d="M609 526v-79h-81q1 -11 1 -35q0 -19 -2 -49h82v-79h-96q-46 -154 -231 -154h-52v-130h-92v284h-88v79h88v84h-88v79h88v154h156q183 0 222 -154h93zM230 601v-75h197q-15 42 -49 58.5t-94 16.5h-54zM442 406q0 28 -1 41h-211v-84h211q1 13 1 43zM274 209q67 0 102 16
t51 59h-197v-75h44z" />
    <glyph glyph-name="uni20B4" unicode="&#x20b4;" 
d="M602 380h-160q-25 -18 -74.5 -50t-63.5 -42h298v-82h-392q-20 -26 -20 -55q0 -45 34.5 -62.5t110.5 -17.5q121 0 210 46l26 -82q-91 -45 -248 -45q-225 0 -225 154q0 32 16 62h-66v82h139q35 29 133 92h-272v82h378q34 37 34 72q0 42 -32.5 58.5t-98.5 16.5
q-112 0 -195 -43l-26 81q98 43 232 43q93 0 152.5 -35.5t59.5 -113.5q0 -40 -26 -79h76v-82z" />
    <glyph glyph-name="uni20B8" unicode="&#x20b8;" 
d="M67 680h516v-81h-516v81zM583 508v-81h-212v-427h-92v427h-212v81h516z" />
    <glyph glyph-name="uni20B9" unicode="&#x20b9;" 
d="M601 599h-116v-94h116v-81h-118q-13 -93 -81.5 -142.5t-163.5 -49.5h-14v-13l63 -34l244 -185h-143l-289 217v93h131q63 0 106 29t52 85h-289v81h292v94h-292v81h502v-81z" />
    <glyph glyph-name="uni20BA" unicode="&#x20ba;" 
d="M495 215h91q0 -114 -67.5 -169t-190.5 -55q-99 0 -174 17v211l-88 -19v82l88 19v92l-88 -19v82l88 19v205h92v-185l332 71v-82l-332 -71v-92l332 71v-82l-332 -71v-161q48 -6 90 -6q77 0 116.5 32.5t42.5 110.5z" />
    <glyph glyph-name="uni20BD" unicode="&#x20bd;" 
d="M246 270v-92h299v-81h-299v-97h-92v97h-88v81h88v92h-88v81h88v329h226q93 0 149 -53t56 -145q0 -99 -61 -155.5t-156 -56.5h-122zM246 599v-248h114q131 0 131 125q0 58 -31 90.5t-90 32.5h-124z" />
    <glyph glyph-name="uni20BF" unicode="&#x20bf;" 
d="M602 189q0 -73 -43 -122.5t-120 -62.5v-104h-72v100h-78v-100h-72v100h-136v680h136v100h72v-100h68h10v100h72v-108q142 -34 142 -174q0 -87 -77 -155q98 -43 98 -154zM217 613h-58v-246h58v246zM347 613h-58v-246h78v246h-20zM501 491q0 88 -62 110v-234h7
q55 60 55 124zM159 67h58v233h-58v-233zM289 67h78v233h-78v-233zM439 72q83 18 83 118q0 96 -83 108v-226z" />
    <glyph glyph-name="uni2116" unicode="&#x2116;" 
d="M505 690q107 0 107 -157q0 -76 -30.5 -115.5t-84.5 -39.5q-107 0 -107 152q0 79 30 119.5t85 40.5zM287 103l-7 577h67v-680h-115l-107 578h-8l7 -578h-67v681h115l107 -578h8zM500 436q49 0 49 94q0 53 -10.5 77.5t-36.5 24.5q-27 0 -38 -24.5t-11 -74.5t10 -73.5
t37 -23.5zM501 327q28 0 47.5 -19.5t19.5 -47.5t-19.5 -47.5t-47.5 -19.5t-47.5 19.5t-19.5 47.5t19.5 47.5t47.5 19.5z" />
    <glyph glyph-name="trademark" unicode="&#x2122;" 
d="M273 679v-53h-87v-279h-63v279h-87v53h237zM600 679v-332h-61v51l9 230h-13l-8 -41l-31 -127h-82l-35 127l-9 41h-13l9 -230v-51h-60v332h108l30 -119l7 -49h10l6 49l27 119h106z" />
    <glyph glyph-name="arrowleft" unicode="&#x2190;" 
d="M650 265h-353l-129 7l242 -178l-50 -64l-305 244v63l305 243l50 -59l-239 -182l126 7h353v-81z" />
    <glyph glyph-name="arrowup" unicode="&#x2191;" 
d="M600 282l-59 -50l-182 239l7 -126v-353h-81v353l7 129l-178 -242l-64 50l244 305h63z" />
    <glyph glyph-name="arrowright" unicode="&#x2192;" 
d="M290 581l305 -244v-63l-305 -243l-50 59l239 182l-126 -7h-353v81h353l129 -7l-242 178z" />
    <glyph glyph-name="arrowdown" unicode="&#x2193;" 
d="M541 345l59 -50l-243 -305h-63l-244 305l64 50l178 -242l-7 129v353h81v-353l-7 -126z" />
    <glyph glyph-name="arrowboth" unicode="&#x2194;" 
d="M420 541l205 -204v-63l-205 -203l-47 51l166 150l-214 -7l-211 7l163 -150l-47 -51l-205 203v63l205 204l47 -51l-167 -151l215 7l212 -7l-164 151z" />
    <glyph glyph-name="arrowupdn" unicode="&#x2195;" 
d="M358 93l151 164l51 -47l-204 -205h-63l-203 205l51 47l150 -166l-7 214l7 211l-150 -163l-51 47l203 205h63l204 -205l-51 -47l-151 167l7 -215z" />
    <glyph glyph-name="uni2196" unicode="&#x2196;" 
d="M323 364l250 -249l-58 -58l-249 250l-87 96l46 -297l-81 -10l-43 388l45 45l387 -44l-6 -77l-298 41z" />
    <glyph glyph-name="uni2197" unicode="&#x2197;" 
d="M504 529l45 -45l-44 -387l-77 6l41 298l-85 -94l-249 -250l-58 58l250 249l96 87l-297 -46l-10 81z" />
    <glyph glyph-name="uni2198" unicode="&#x2198;" 
d="M505 513l44 -387l-45 -45l-388 43l10 81l297 -46l-96 87l-250 249l58 58l249 -250l85 -94l-41 298z" />
    <glyph glyph-name="uni2199" unicode="&#x2199;" 
d="M229 161l298 41l6 -77l-387 -44l-45 45l43 388l81 -10l-46 -297l87 96l249 250l58 -58l-250 -249z" />
    <glyph glyph-name="partialdiff" unicode="&#x2202;" 
d="M339 691q133 0 186 -72t53 -210q0 -212 -83 -315.5t-213 -103.5q-96 0 -147 49t-51 142q0 125 74 193t193 68q71 0 135 -26q-2 102 -35.5 148t-122.5 46q-72 0 -149 -29l-25 79q88 31 185 31zM288 71q76 0 131 63.5t65 199.5q-54 29 -145 29q-72 0 -117.5 -46.5
t-45.5 -126.5q0 -57 24.5 -88t87.5 -31z" />
    <glyph glyph-name="emptyset" unicode="&#x2205;" 
d="M511 581q89 -76 89 -240q0 -148 -78 -224.5t-200 -76.5q-63 0 -113 19l-79 -137l-70 40l79 137q-89 75 -89 235q0 151 78 228.5t200 77.5q63 0 113 -19l79 137l70 -40zM144 339q0 -107 41 -160l213 368q-29 11 -72 11q-182 0 -182 -219zM324 122q182 0 182 214
q0 110 -42 164l-212 -367q29 -11 72 -11z" />
    <glyph glyph-name="product" unicode="&#x220f;" 
d="M606 680v-81h-68v-599h-92v599h-242v-599h-92v599h-68v81h562z" />
    <glyph glyph-name="summation" unicode="&#x2211;" 
d="M160 82h411v-82h-492v92l232 247v15l-222 234v92h472v-82h-388l85 -57l171 -181v-23l-187 -192z" />
    <glyph glyph-name="minus" unicode="&#x2212;" 
d="M75 380h500v-81h-500v81z" />
    <glyph glyph-name="radical" unicode="&#x221a;" 
d="M623 680v-84h-143l-169 -596h-152l-108 380h94l54 -198l23 -102h31l23 102l135 498h212z" />
    <glyph glyph-name="infinity" unicode="&#x221e;" 
d="M472 528q59 0 97 -57.5t38 -168.5q0 -113 -41 -174.5t-108 -61.5q-85 0 -138 131q-51 -131 -142 -131q-59 0 -97 57.5t-38 168.5q0 113 41 174.5t108 61.5q48 0 80 -35.5t58 -98.5q53 134 142 134zM196 148q32 0 52.5 33.5t42.5 99.5q-35 108 -54 135q-21 29 -46 30
q-59 0 -59 -148q0 -150 64 -150zM459 148q59 0 59 148q0 150 -64 150q-32 0 -52.5 -33.5t-42.5 -101.5q36 -109 57 -137q20 -26 43 -26z" />
    <glyph glyph-name="integral" unicode="&#x222b;" 
d="M471 831q80 0 143 -28l-26 -78q-50 25 -118 25q-35 0 -56 -28t-26 -112l-35 -575q-6 -93 -52.5 -139.5t-121.5 -46.5q-80 0 -143 28l26 78q50 -25 118 -25q35 0 56 26.5t26 103.5l36 575q6 100 52 148t121 48z" />
    <glyph glyph-name="approxequal" unicode="&#x2248;" 
d="M183 450l-37 -76l-76 30l22 59q24 66 90 66q28 0 81 -13l204 -47l37 76l76 -30l-22 -59q-24 -66 -90 -66q-26 0 -80 12zM467 228l37 76l76 -30l-22 -59q-24 -66 -90 -66q-26 0 -80 12l-205 48l-37 -76l-76 30l22 59q24 66 90 66q28 0 81 -13z" />
    <glyph glyph-name="notequal" unicode="&#x2260;" 
d="M575 419h-163l-69 -159h232v-81h-267l-86 -201l-72 30l74 171h-149v81h183l69 159h-252v81h287l86 201l72 -30l-74 -171h129v-81z" />
    <glyph glyph-name="lessequal" unicode="&#x2264;" 
d="M575 507l-408 -131v-9l408 -133v-98l-500 186v98l500 186v-99zM75 0v81h500v-81h-500z" />
    <glyph glyph-name="greaterequal" unicode="&#x2265;" 
d="M75 606l500 -186v-98l-500 -186v98l408 133v9l-408 131v99zM75 0v81h500v-81h-500z" />
    <glyph glyph-name="lozenge" unicode="&#x25ca;" 
d="M390 680l213 -340l-213 -340h-130l-213 340l213 340h130zM343 80l156 256l-161 264h-31l-156 -256l161 -264h31z" />
    <glyph glyph-name="uni27E8" unicode="&#x27e8;" 
d="M546 780l-294 -437l294 -443h-102l-295 440l299 440h98z" />
    <glyph glyph-name="uni27E9" unicode="&#x27e9;" 
d="M206 780l295 -440l-299 -440h-98l294 437l-294 443h102z" />
    <glyph glyph-name="uniF8FF" unicode="&#xf8ff;" 
d="M0 -180v1000h650v-1000h-650zM225 9l60 47v169h22l89 -216l60 47l-74 178q32 19 32 77v258q0 32 -18.5 51t-50.5 19h-60l-60 -46v-584zM285 272v321h19q28 0 39 -13.5t11 -46.5v-237q0 -24 -2 -24h-67z" />
    <glyph glyph-name="Iacute_J.loclNLD" 
d="M212 870h108l-136 -140h-93zM605 870l-136 -140h-93l121 140h108zM88 0v680h92v-680h-92zM562 680v-469q0 -120 -46 -170.5t-129 -50.5q-81 0 -147 29l30 80q59 -28 113 -28q45 0 66 31.5t21 113.5v382h-186v82h278z" />
    <glyph glyph-name="i.loclTRK" 
d="M335 640q-37 0 -63.5 26t-26.5 64t26.5 64t63.5 26t63.5 -26t26.5 -64t-26.5 -64t-63.5 -26zM390 80h183v-80h-476v80h203v390h-203v80h293v-470z" />
    <glyph glyph-name="iacute_j.loclNLD" 
d="M209 820h108l-126 -170h-93zM606 820l-126 -170h-93l111 170h108zM100 0v550h90v-550h-90zM307 550h243v-440q0 -149 -64 -220.5t-198 -71.5v85q90 0 131 51.5t41 170.5v345h-153v80z" />
    <glyph glyph-name="Iacute_J.loclNLD.sc" 
d="M200 816h108l-126 -170h-93zM593 816l-126 -170h-93l111 170h108zM90 0v566h90v-566h-90zM560 566v-355q0 -120 -45 -170.5t-128 -50.5q-81 0 -147 29l30 78q59 -28 113 -28q45 0 66 31.5t21 113.5v272h-186v80h276z" />
    <glyph glyph-name="a.sc" 
d="M475 0l-53 176h-201l-53 -176h-89l176 566h140l176 -566h-96zM245 255h153l-48 160l-16 71h-23l-17 -71z" />
    <glyph glyph-name="aacute.sc" 
d="M491 816l-126 -170h-93l111 170h108zM475 0l-53 176h-201l-53 -176h-89l176 566h140l176 -566h-96zM245 255h153l-48 160l-16 71h-23l-17 -71z" />
    <glyph glyph-name="abreve.sc" 
d="M322 647q-155 0 -159 160h88q2 -43 18.5 -64.5t55.5 -21.5t55.5 21.5t18.5 64.5h88q-2 -79 -44.5 -119.5t-120.5 -40.5zM475 0l-53 176h-201l-53 -176h-89l176 566h140l176 -566h-96zM245 255h153l-48 160l-16 71h-23l-17 -71z" />
    <glyph glyph-name="uni01CE.sc" 
d="M376 646h-102l-119 170h94l73 -102h8l73 102h92zM475 0l-53 176h-201l-53 -176h-89l176 566h140l176 -566h-96zM245 255h153l-48 160l-16 71h-23l-17 -71z" />
    <glyph glyph-name="acircumflex.sc" 
d="M320 748l-73 -102h-92l119 170h102l119 -170h-94l-73 102h-8zM475 0l-53 176h-201l-53 -176h-89l176 566h140l176 -566h-96zM245 255h153l-48 160l-16 71h-23l-17 -71z" />
    <glyph glyph-name="adieresis.sc" 
d="M220 650q-34 0 -57.5 24t-23.5 58t23.5 57.5t57.5 23.5t58 -23.5t24 -57.5t-24 -58t-58 -24zM429 650q-34 0 -57.5 24t-23.5 58t23.5 57.5t57.5 23.5t58 -23.5t24 -57.5t-23.5 -58t-58.5 -24zM475 0l-53 176h-201l-53 -176h-89l176 566h140l176 -566h-96zM245 255h153
l-48 160l-16 71h-23l-17 -71z" />
    <glyph glyph-name="agrave.sc" 
d="M378 646h-93l-126 170h108zM475 0l-53 176h-201l-53 -176h-89l176 566h140l176 -566h-96zM245 255h153l-48 160l-16 71h-23l-17 -71z" />
    <glyph glyph-name="amacron.sc" 
d="M485 762v-73h-320v73h320zM475 0l-53 176h-201l-53 -176h-89l176 566h140l176 -566h-96zM245 255h153l-48 160l-16 71h-23l-17 -71z" />
    <glyph glyph-name="aogonek.sc" 
d="M476 -92q0 -21 36 -21q28 0 59 6v-76q-39 -7 -70 -7q-110 0 -110 77q0 29 18 53.5t66 60.5l-53 175h-201l-53 -176h-89l176 566h140l176 -566q-58 -42 -76.5 -60.5t-18.5 -31.5zM245 255h153l-48 160l-16 71h-23l-17 -71z" />
    <glyph glyph-name="aring.sc" 
d="M323 627q-52 0 -83.5 26t-31.5 77q0 50 33 78t86 28q52 0 83.5 -26.5t31.5 -77.5q0 -50 -33 -77.5t-86 -27.5zM324 779q-44 0 -44 -47q0 -49 46 -49q44 0 44 47q0 49 -46 49zM475 0l-53 176h-201l-53 -176h-89l176 566h140l176 -566h-96zM245 255h153l-48 160l-16 71h-23
l-17 -71z" />
    <glyph glyph-name="atilde.sc" 
d="M240 717l-33 -62l-76 30l22 49q17 37 35 50t45 13q32 0 96 -24l81 -30l33 62l76 -30l-22 -49q-17 -37 -35 -50t-45 -13q-32 0 -96 24zM475 0l-53 176h-201l-53 -176h-89l176 566h140l176 -566h-96zM245 255h153l-48 160l-16 71h-23l-17 -71z" />
    <glyph glyph-name="ae.sc" 
d="M582 487h-167v-165h157v-79h-157v-164h167v-79h-254v176h-141l-58 -176h-88l195 566h346v-79zM213 255h115v233h-41l-29 -97z" />
    <glyph glyph-name="aeacute.sc" 
d="M538 816l-126 -170h-93l111 170h108zM582 487h-167v-165h157v-79h-157v-164h167v-79h-254v176h-141l-58 -176h-88l195 566h346v-79zM213 255h115v233h-41l-29 -97z" />
    <glyph glyph-name="b.sc" 
d="M486 293q45 -16 66.5 -46t21.5 -81q0 -79 -52.5 -122.5t-155.5 -43.5h-251v566h216q105 0 155.5 -37t50.5 -115q0 -64 -51 -121zM321 488h-117v-173h204q38 41 38 93q0 38 -28 59t-97 21zM354 78q77 0 103 21.5t26 61.5q0 37 -21.5 56.5t-80.5 19.5h-177v-159h150z" />
    <glyph glyph-name="c.sc" 
d="M372 -9q-125 0 -200 69t-75 218q0 79 25 138.5t67 93t90.5 49.5t101.5 16q100 0 179 -38l-28 -76q-69 34 -158 34q-76 0 -130.5 -51t-54.5 -162q0 -211 185 -211q80 0 158 38l26 -74q-88 -44 -186 -44z" />
    <glyph glyph-name="cacute.sc" 
d="M328 646l111 170h108l-126 -170h-93zM372 -9q-125 0 -200 69t-75 218q0 79 25 138.5t67 93t90.5 49.5t101.5 16q100 0 179 -38l-28 -76q-69 34 -158 34q-76 0 -130.5 -51t-54.5 -162q0 -211 185 -211q80 0 158 38l26 -74q-88 -44 -186 -44z" />
    <glyph glyph-name="ccaron.sc" 
d="M305 816l73 -102h8l73 102h92l-119 -170h-102l-119 170h94zM372 -9q-125 0 -200 69t-75 218q0 79 25 138.5t67 93t90.5 49.5t101.5 16q100 0 179 -38l-28 -76q-69 34 -158 34q-76 0 -130.5 -51t-54.5 -162q0 -211 185 -211q80 0 158 38l26 -74q-88 -44 -186 -44z" />
    <glyph glyph-name="ccedilla.sc" 
d="M558 35q-71 -37 -149 -42l-21 -39q50 -22 50 -60q0 -26 -36 -74h-76q28 41 28 56q0 12 -10.5 20t-46.5 21l38 76q-109 10 -173.5 79t-64.5 206q0 79 25 138.5t67 93t90.5 49.5t101.5 16q100 0 179 -38l-28 -76q-69 34 -158 34q-76 0 -130.5 -51t-54.5 -162
q0 -211 185 -211q80 0 158 38z" />
    <glyph glyph-name="ccircumflex.sc" 
d="M457 646l-73 102h-8l-73 -102h-92l119 170h102l119 -170h-94zM372 -9q-125 0 -200 69t-75 218q0 79 25 138.5t67 93t90.5 49.5t101.5 16q100 0 179 -38l-28 -76q-69 34 -158 34q-76 0 -130.5 -51t-54.5 -162q0 -211 185 -211q80 0 158 38l26 -74q-88 -44 -186 -44z" />
    <glyph glyph-name="cdotaccent.sc" 
d="M381 636q-37 0 -63.5 26t-26.5 64t26.5 64t63.5 26t63.5 -26t26.5 -64t-26.5 -64t-63.5 -26zM372 -9q-125 0 -200 69t-75 218q0 79 25 138.5t67 93t90.5 49.5t101.5 16q100 0 179 -38l-28 -76q-69 34 -158 34q-76 0 -130.5 -51t-54.5 -162q0 -211 185 -211q80 0 158 38
l26 -74q-88 -44 -186 -44z" />
    <glyph glyph-name="d.sc" 
d="M292 566q142 0 212 -68.5t70 -209.5q0 -288 -300 -288h-159v566h177zM265 79q123 0 170 45.5t47 159.5q0 112 -44.5 157.5t-154.5 45.5h-78v-408h60z" />
    <glyph glyph-name="eth.sc" 
d="M292 566q142 0 212 -68.5t70 -209.5q0 -288 -300 -288h-159v243h-100v80h100v243h177zM265 79q123 0 170 45.5t47 159.5q0 112 -44.5 157.5t-154.5 45.5h-78v-164h120v-80h-120v-164h60z" />
    <glyph glyph-name="dcaron.sc" 
d="M374 646h-102l-119 170h94l73 -102h8l73 102h92zM292 566q142 0 212 -68.5t70 -209.5q0 -288 -300 -288h-159v566h177zM265 79q123 0 170 45.5t47 159.5q0 112 -44.5 157.5t-154.5 45.5h-78v-408h60z" />
    <glyph glyph-name="uni1E11.sc" 
d="M292 566q142 0 212 -68.5t70 -209.5q0 -288 -300 -288h-159v566h177zM265 79q123 0 170 45.5t47 159.5q0 112 -44.5 157.5t-154.5 45.5h-78v-408h60zM234 -180l33 130h98l-44 -130h-87z" />
    <glyph glyph-name="dcroat.sc" 
d="M292 566q142 0 212 -68.5t70 -209.5q0 -288 -300 -288h-159v243h-100v80h100v243h177zM265 79q123 0 170 45.5t47 159.5q0 112 -44.5 157.5t-154.5 45.5h-78v-164h120v-80h-120v-164h60z" />
    <glyph glyph-name="uni1E0D.sc" 
d="M292 566q142 0 212 -68.5t70 -209.5q0 -288 -300 -288h-159v566h177zM265 79q123 0 170 45.5t47 159.5q0 112 -44.5 157.5t-154.5 45.5h-78v-408h60zM315 -50q31 0 51.5 -20t20.5 -50t-20.5 -50t-51.5 -20t-51.5 20t-20.5 50t20.5 50t51.5 20z" />
    <glyph glyph-name="e.sc" 
d="M530 487h-308v-165h299v-79h-299v-164h308v-79h-398v566h398v-79z" />
    <glyph glyph-name="eacute.sc" 
d="M497 820l-126 -170h-93l111 170h108zM530 487h-308v-165h299v-79h-299v-164h308v-79h-398v566h398v-79z" />
    <glyph glyph-name="ecaron.sc" 
d="M382 650h-102l-119 170h94l73 -102h8l73 102h92zM530 487h-308v-165h299v-79h-299v-164h308v-79h-398v566h398v-79z" />
    <glyph glyph-name="ecircumflex.sc" 
d="M326 752l-73 -102h-92l119 170h102l119 -170h-94l-73 102h-8zM530 487h-308v-165h299v-79h-299v-164h308v-79h-398v566h398v-79z" />
    <glyph glyph-name="edieresis.sc" 
d="M226 654q-34 0 -57.5 24t-23.5 58t23.5 57.5t57.5 23.5t58 -23.5t24 -57.5t-24 -58t-58 -24zM435 654q-34 0 -57.5 24t-23.5 58t23.5 57.5t57.5 23.5t58 -23.5t24 -57.5t-23.5 -58t-58.5 -24zM530 487h-308v-165h299v-79h-299v-164h308v-79h-398v566h398v-79z" />
    <glyph glyph-name="edotaccent.sc" 
d="M331 640q-37 0 -63.5 26t-26.5 64t26.5 64t63.5 26t63.5 -26t26.5 -64t-26.5 -64t-63.5 -26zM530 487h-308v-165h299v-79h-299v-164h308v-79h-398v566h398v-79z" />
    <glyph glyph-name="egrave.sc" 
d="M384 650h-93l-126 170h108zM530 487h-308v-165h299v-79h-299v-164h308v-79h-398v566h398v-79z" />
    <glyph glyph-name="emacron.sc" 
d="M491 766v-73h-320v73h320zM530 487h-308v-165h299v-79h-299v-164h308v-79h-398v566h398v-79z" />
    <glyph glyph-name="eogonek.sc" 
d="M530 487h-308v-165h299v-79h-299v-164h308v-79q-58 -42 -76.5 -60.5t-18.5 -31.5q0 -21 36 -21q27 0 59 6v-76q-39 -7 -70 -7q-110 0 -110 77q0 29 17 53t65 60h-300v566h398v-79z" />
    <glyph glyph-name="f.sc" 
d="M530 487h-308v-165h299v-79h-299v-243h-90v566h398v-79z" />
    <glyph glyph-name="g.sc" 
d="M461 79v209h90v-266q-90 -31 -195 -31q-120 0 -193 67t-73 220q0 79 24.5 138.5t67 93t92 49.5t105.5 16q102 0 175 -33l-28 -78q-71 31 -155 31q-80 0 -134.5 -50.5t-54.5 -162.5q0 -211 176 -211q57 0 103 8z" />
    <glyph glyph-name="gbreve.sc" 
d="M367 647q-155 0 -159 160h88q2 -43 18.5 -64.5t55.5 -21.5t55.5 21.5t18.5 64.5h88q-2 -79 -44.5 -119.5t-120.5 -40.5zM461 79v209h90v-266q-90 -31 -195 -31q-120 0 -193 67t-73 220q0 79 24.5 138.5t67 93t92 49.5t105.5 16q102 0 175 -33l-28 -78q-71 31 -155 31
q-80 0 -134.5 -50.5t-54.5 -162.5q0 -211 176 -211q57 0 103 8z" />
    <glyph glyph-name="gcaron.sc" 
d="M421 646h-102l-119 170h94l73 -102h8l73 102h92zM461 79v209h90v-266q-90 -31 -195 -31q-120 0 -193 67t-73 220q0 79 24.5 138.5t67 93t92 49.5t105.5 16q102 0 175 -33l-28 -78q-71 31 -155 31q-80 0 -134.5 -50.5t-54.5 -162.5q0 -211 176 -211q57 0 103 8z" />
    <glyph glyph-name="gcircumflex.sc" 
d="M365 748l-73 -102h-92l119 170h102l119 -170h-94l-73 102h-8zM461 79v209h90v-266q-90 -31 -195 -31q-120 0 -193 67t-73 220q0 79 24.5 138.5t67 93t92 49.5t105.5 16q102 0 175 -33l-28 -78q-71 31 -155 31q-80 0 -134.5 -50.5t-54.5 -162.5q0 -211 176 -211
q57 0 103 8z" />
    <glyph glyph-name="gcommaaccent.sc" 
d="M461 79v209h90v-266q-90 -31 -195 -31q-120 0 -193 67t-73 220q0 79 24.5 138.5t67 93t92 49.5t105.5 16q102 0 175 -33l-28 -78q-71 31 -155 31q-80 0 -134.5 -50.5t-54.5 -162.5q0 -211 176 -211q57 0 103 8zM273 -180l33 130h98l-44 -130h-87z" />
    <glyph glyph-name="gdotaccent.sc" 
d="M370 636q-38 0 -64 26t-26 64t26 64t64 26t64 -26t26 -64t-26 -64t-64 -26zM461 79v209h90v-266q-90 -31 -195 -31q-120 0 -193 67t-73 220q0 79 24.5 138.5t67 93t92 49.5t105.5 16q102 0 175 -33l-28 -78q-71 31 -155 31q-80 0 -134.5 -50.5t-54.5 -162.5
q0 -211 176 -211q57 0 103 8z" />
    <glyph glyph-name="h.sc" 
d="M451 566h90v-566h-90v243h-252v-243h-90v566h90v-244h252v244z" />
    <glyph glyph-name="hbar.sc" 
d="M631 470v-78h-90v-392h-90v223h-252v-223h-90v392h-90v78h90v96h90v-96h252v96h90v-96h90zM451 302v90h-252v-90h252z" />
    <glyph glyph-name="hcircumflex.sc" 
d="M320 748l-73 -102h-92l119 170h102l119 -170h-94l-73 102h-8zM451 566h90v-566h-90v243h-252v-243h-90v566h90v-244h252v244z" />
    <glyph glyph-name="uni1E25.sc" 
d="M451 566h90v-566h-90v243h-252v-243h-90v566h90v-244h252v244zM325 -50q31 0 51.5 -20t20.5 -50t-20.5 -50t-51.5 -20t-51.5 20t-20.5 50t20.5 50t51.5 20z" />
    <glyph glyph-name="i.sc" 
d="M543 486h-173v-406h173v-80h-436v80h173v406h-173v80h436v-80z" />
    <glyph glyph-name="iacute.sc" 
d="M491 816l-126 -170h-93l111 170h108zM543 486h-173v-406h173v-80h-436v80h173v406h-173v80h436v-80z" />
    <glyph glyph-name="uni01D0.sc" 
d="M376 646h-102l-119 170h94l73 -102h8l73 102h92zM543 486h-173v-406h173v-80h-436v80h173v406h-173v80h436v-80z" />
    <glyph glyph-name="icircumflex.sc" 
d="M320 748l-73 -102h-92l119 170h102l119 -170h-94l-73 102h-8zM543 486h-173v-406h173v-80h-436v80h173v406h-173v80h436v-80z" />
    <glyph glyph-name="idieresis.sc" 
d="M220 650q-34 0 -57.5 24t-23.5 58t23.5 57.5t57.5 23.5t58 -23.5t24 -57.5t-24 -58t-58 -24zM429 650q-34 0 -57.5 24t-23.5 58t23.5 57.5t57.5 23.5t58 -23.5t24 -57.5t-23.5 -58t-58.5 -24zM543 486h-173v-406h173v-80h-436v80h173v406h-173v80h436v-80z" />
    <glyph glyph-name="i.sc.loclTRK" 
d="M325 636q-37 0 -63.5 26t-26.5 64t26.5 64t63.5 26t63.5 -26t26.5 -64t-26.5 -64t-63.5 -26zM543 486h-173v-406h173v-80h-436v80h173v406h-173v80h436v-80z" />
    <glyph glyph-name="igrave.sc" 
d="M378 646h-93l-126 170h108zM543 486h-173v-406h173v-80h-436v80h173v406h-173v80h436v-80z" />
    <glyph glyph-name="ij.sc" 
d="M90 0v566h90v-566h-90zM560 566v-355q0 -120 -45 -170.5t-128 -50.5q-81 0 -147 29l30 78q59 -28 113 -28q45 0 66 31.5t21 113.5v272h-186v80h276z" />
    <glyph glyph-name="imacron.sc" 
d="M485 762v-73h-320v73h320zM543 486h-173v-406h173v-80h-436v80h173v406h-173v80h436v-80z" />
    <glyph glyph-name="iogonek.sc" 
d="M543 486h-173v-406h173v-80q-58 -42 -76.5 -60.5t-18.5 -31.5q0 -21 36 -21q27 0 59 6v-76q-39 -7 -70 -7q-110 0 -110 77q0 29 17 53t65 60h-338v80h173v406h-173v80h436v-80z" />
    <glyph glyph-name="itilde.sc" 
d="M240 717l-33 -62l-76 30l22 49q17 37 35 50t45 13q32 0 96 -24l81 -30l33 62l76 -30l-22 -49q-17 -37 -35 -50t-45 -13q-32 0 -96 24zM543 486h-173v-406h173v-80h-436v80h173v406h-173v80h436v-80z" />
    <glyph glyph-name="j.sc" 
d="M533 566v-350q0 -68 -17.5 -114t-50 -69.5t-70 -33t-87.5 -9.5q-110 0 -189 38l29 79q79 -37 168 -37q65 0 96 32.5t31 123.5v260h-276v80h366z" />
    <glyph glyph-name="jcircumflex.sc" 
d="M345 748l-73 -102h-92l119 170h102l119 -170h-94l-73 102h-8zM533 566v-350q0 -68 -17.5 -114t-50 -69.5t-70 -33t-87.5 -9.5q-110 0 -189 38l29 79q79 -37 168 -37q65 0 96 32.5t31 123.5v260h-276v80h366z" />
    <glyph glyph-name="k.sc" 
d="M459 0l-155 272l-80 -71v-201h-90v567h90v-188l-8 -82l328 271l1 -103l-168 -140l189 -325h-107z" />
    <glyph glyph-name="kcommaaccent.sc" 
d="M377 325l189 -325h-107l-155 272l-80 -71v-201h-90v567h90v-188l-8 -82l328 271l1 -103zM254 -180l33 130h98l-44 -130h-87z" />
    <glyph glyph-name="l.sc" 
d="M232 80h308v-80h-398v566h90v-486z" />
    <glyph glyph-name="lacute.sc" 
d="M353 816l-126 -170h-93l111 170h108zM232 80h308v-80h-398v566h90v-486z" />
    <glyph glyph-name="lcaron.sc" 
d="M232 80h308v-80h-398v566h90v-486zM492 566l-37 -210h-84l23 210h98z" />
    <glyph glyph-name="lcommaaccent.sc" 
d="M232 80h308v-80h-398v566h90v-486zM260 -180l33 130h98l-44 -130h-87z" />
    <glyph glyph-name="uni1E37.sc" 
d="M232 80h308v-80h-398v566h90v-486zM341 -50q31 0 51.5 -20t20.5 -50t-20.5 -50t-51.5 -20t-51.5 20t-20.5 50t20.5 50t51.5 20z" />
    <glyph glyph-name="lslash.sc" 
d="M232 80h308v-80h-398v232l-124 -44v79l124 44v255h90v-223l182 64v-79l-182 -64v-184z" />
    <glyph glyph-name="m.sc" 
d="M543 566v-566h-81v291l9 196h-10l-18 -79l-63 -198h-102l-70 198l-18 79h-11l9 -196v-291h-81v566h134l73 -220l12 -58h9l13 58l64 220h131z" />
    <glyph glyph-name="uni1E3F.sc" 
d="M491 816l-126 -170h-93l111 170h108zM543 566v-566h-81v291l9 196h-10l-18 -79l-63 -198h-102l-70 198l-18 79h-11l9 -196v-291h-81v566h134l73 -220l12 -58h9l13 58l64 220h131z" />
    <glyph glyph-name="n.sc" 
d="M457 566h78v-566h-135l-199 480h-10l5 -480h-81v566h138l200 -480h9z" />
    <glyph glyph-name="nacute.sc" 
d="M491 816l-126 -170h-93l111 170h108zM457 566h78v-566h-135l-199 480h-10l5 -480h-81v566h138l200 -480h9z" />
    <glyph glyph-name="ncaron.sc" 
d="M376 646h-102l-119 170h94l73 -102h8l73 102h92zM457 566h78v-566h-135l-199 480h-10l5 -480h-81v566h138l200 -480h9z" />
    <glyph glyph-name="ncommaaccent.sc" 
d="M457 566h78v-566h-135l-199 480h-10l5 -480h-81v566h138l200 -480h9zM244 -180l33 130h98l-44 -130h-87z" />
    <glyph glyph-name="uni1E45.sc" 
d="M325 636q-37 0 -63.5 26t-26.5 64t26.5 64t63.5 26t63.5 -26t26.5 -64t-26.5 -64t-63.5 -26zM457 566h78v-566h-135l-199 480h-10l5 -480h-81v566h138l200 -480h9z" />
    <glyph glyph-name="uni01F9.sc" 
d="M378 646h-93l-126 170h108zM457 566h78v-566h-135l-199 480h-10l5 -480h-81v566h138l200 -480h9z" />
    <glyph glyph-name="eng.sc" 
d="M457 566h78v-516q0 -61 -12.5 -103.5t-38 -68t-56.5 -38.5t-76 -22l-19 85q62 11 89 30.5t36 66.5h-58l-199 480h-10l5 -480h-81v566h138l200 -480h9l-1 80z" />
    <glyph glyph-name="ntilde.sc" 
d="M240 717l-33 -62l-76 30l22 49q17 37 35 50t45 13q32 0 96 -24l81 -30l33 62l76 -30l-22 -49q-17 -37 -35 -50t-45 -13q-32 0 -96 24zM457 566h78v-566h-135l-199 480h-10l5 -480h-81v566h138l200 -480h9z" />
    <glyph glyph-name="o.sc" 
d="M322 -9q-115 0 -182 70t-67 213q0 152 71 226.5t184 74.5q116 0 182.5 -70.5t66.5 -216.5q0 -149 -71 -223t-184 -74zM324 71q80 0 120.5 50.5t40.5 162.5q0 110 -40 160.5t-119 50.5q-80 0 -120.5 -51.5t-40.5 -165.5q0 -108 40 -157.5t119 -49.5z" />
    <glyph glyph-name="oacute.sc" 
d="M275 646l111 170h108l-126 -170h-93zM322 -9q-115 0 -182 70t-67 213q0 152 71 226.5t184 74.5q116 0 182.5 -70.5t66.5 -216.5q0 -149 -71 -223t-184 -74zM324 71q80 0 120.5 50.5t40.5 162.5q0 110 -40 160.5t-119 50.5q-80 0 -120.5 -51.5t-40.5 -165.5
q0 -108 40 -157.5t119 -49.5z" />
    <glyph glyph-name="uni01D2.sc" 
d="M252 816l73 -102h8l73 102h92l-119 -170h-102l-119 170h94zM322 -9q-115 0 -182 70t-67 213q0 152 71 226.5t184 74.5q116 0 182.5 -70.5t66.5 -216.5q0 -149 -71 -223t-184 -74zM324 71q80 0 120.5 50.5t40.5 162.5q0 110 -40 160.5t-119 50.5q-80 0 -120.5 -51.5
t-40.5 -165.5q0 -108 40 -157.5t119 -49.5z" />
    <glyph glyph-name="ocircumflex.sc" 
d="M404 646l-73 102h-8l-73 -102h-92l119 170h102l119 -170h-94zM322 -9q-115 0 -182 70t-67 213q0 152 71 226.5t184 74.5q116 0 182.5 -70.5t66.5 -216.5q0 -149 -71 -223t-184 -74zM324 71q80 0 120.5 50.5t40.5 162.5q0 110 -40 160.5t-119 50.5q-80 0 -120.5 -51.5
t-40.5 -165.5q0 -108 40 -157.5t119 -49.5z" />
    <glyph glyph-name="odieresis.sc" 
d="M223 650q-34 0 -57.5 24t-23.5 58t23.5 57.5t57.5 23.5t58 -23.5t24 -57.5t-23.5 -58t-58.5 -24zM432 650q-34 0 -57.5 24t-23.5 58t23.5 57.5t57.5 23.5t58 -23.5t24 -57.5t-24 -58t-58 -24zM322 -9q-115 0 -182 70t-67 213q0 152 71 226.5t184 74.5q116 0 182.5 -70.5
t66.5 -216.5q0 -149 -71 -223t-184 -74zM324 71q80 0 120.5 50.5t40.5 162.5q0 110 -40 160.5t-119 50.5q-80 0 -120.5 -51.5t-40.5 -165.5q0 -108 40 -157.5t119 -49.5z" />
    <glyph glyph-name="ograve.sc" 
d="M381 646h-93l-126 170h108zM322 -9q-115 0 -182 70t-67 213q0 152 71 226.5t184 74.5q116 0 182.5 -70.5t66.5 -216.5q0 -149 -71 -223t-184 -74zM324 71q80 0 120.5 50.5t40.5 162.5q0 110 -40 160.5t-119 50.5q-80 0 -120.5 -51.5t-40.5 -165.5q0 -108 40 -157.5
t119 -49.5z" />
    <glyph glyph-name="ohungarumlaut.sc" 
d="M291 816h108l-116 -170h-93zM481 816h108l-136 -170h-93zM322 -9q-115 0 -182 70t-67 213q0 152 71 226.5t184 74.5q116 0 182.5 -70.5t66.5 -216.5q0 -149 -71 -223t-184 -74zM324 71q80 0 120.5 50.5t40.5 162.5q0 110 -40 160.5t-119 50.5q-80 0 -120.5 -51.5
t-40.5 -165.5q0 -108 40 -157.5t119 -49.5z" />
    <glyph glyph-name="omacron.sc" 
d="M168 689v73h320v-73h-320zM322 -9q-115 0 -182 70t-67 213q0 152 71 226.5t184 74.5q116 0 182.5 -70.5t66.5 -216.5q0 -149 -71 -223t-184 -74zM324 71q80 0 120.5 50.5t40.5 162.5q0 110 -40 160.5t-119 50.5q-80 0 -120.5 -51.5t-40.5 -165.5q0 -108 40 -157.5
t119 -49.5z" />
    <glyph glyph-name="oslash.sc" 
d="M503 512q74 -74 74 -224q0 -149 -71 -223t-184 -74q-61 0 -108 19l-52 -89l-69 40l54 93q-74 72 -74 220q0 152 71 226.5t184 74.5q61 0 108 -19l52 89l69 -40zM164 278q0 -97 28 -146l204 353q-29 10 -70 10q-80 0 -121 -51.5t-41 -165.5zM324 71q80 0 121 50.5
t41 162.5q0 100 -28 149l-204 -352q29 -10 70 -10z" />
    <glyph glyph-name="oslashacute.sc" 
d="M494 816l-126 -170h-93l111 170h108zM503 512q74 -74 74 -224q0 -149 -71 -223t-184 -74q-61 0 -108 19l-52 -89l-69 40l54 93q-74 72 -74 220q0 152 71 226.5t184 74.5q61 0 108 -19l52 89l69 -40zM164 278q0 -97 28 -146l204 353q-29 10 -70 10q-80 0 -121 -51.5
t-41 -165.5zM324 71q80 0 121 50.5t41 162.5q0 100 -28 149l-204 -352q29 -10 70 -10z" />
    <glyph glyph-name="otilde.sc" 
d="M446 805l76 -30l-22 -49q-17 -37 -35 -50t-45 -13q-32 0 -96 24l-81 30l-33 -62l-76 30l22 49q17 37 35 50t45 13q32 0 96 -24l81 -30zM322 -9q-115 0 -182 70t-67 213q0 152 71 226.5t184 74.5q116 0 182.5 -70.5t66.5 -216.5q0 -149 -71 -223t-184 -74zM324 71
q80 0 120.5 50.5t40.5 162.5q0 110 -40 160.5t-119 50.5q-80 0 -120.5 -51.5t-40.5 -165.5q0 -108 40 -157.5t119 -49.5z" />
    <glyph glyph-name="oe.sc" 
d="M598 487h-167v-165h157v-79h-157v-164h167v-79h-240q-39 -6 -66 -6q-106 0 -164 70t-58 213q0 146 64.5 220.5t163.5 74.5q26 0 67 -6h233v-79zM160 282q0 -210 134 -210q28 0 50 5v412q-21 5 -48 5q-136 0 -136 -212z" />
    <glyph glyph-name="p.sc" 
d="M335 566q109 0 171.5 -47.5t62.5 -140.5q0 -100 -67 -150.5t-178 -50.5h-114v-177h-90v566h215zM311 256q87 0 126.5 26t39.5 91q0 61 -39 87.5t-118 26.5h-110v-231h101z" />
    <glyph glyph-name="thorn.sc" 
d="M335 484q109 0 171.5 -47.5t62.5 -140.5q0 -100 -67 -150.5t-178 -50.5h-114v-95h-90v566h90v-82h125zM311 174q87 0 126.5 26t39.5 91q0 61 -39 87.5t-118 26.5h-110v-231h101z" />
    <glyph glyph-name="q.sc" 
d="M603 -73l-1 -109l-293 173q-110 4 -173 74t-63 209q0 152 71 226.5t184 74.5q116 0 182.5 -70.5t66.5 -216.5q0 -213 -146 -276l43 -13zM165 278q0 -108 40 -157.5t119 -49.5q80 0 120.5 50.5t40.5 162.5q0 110 -40 160.5t-119 50.5q-80 0 -120.5 -51.5t-40.5 -165.5z
" />
    <glyph glyph-name="r.sc" 
d="M469 0l-133 205h-126v-205h-90v566h208q113 0 168 -39t55 -126q0 -106 -117 -180l146 -221h-111zM210 487v-203h178q71 45 71 111q0 92 -146 92h-103z" />
    <glyph glyph-name="racute.sc" 
d="M485 816l-126 -170h-93l111 170h108zM469 0l-133 205h-126v-205h-90v566h208q113 0 168 -39t55 -126q0 -106 -117 -180l146 -221h-111zM210 487v-203h178q71 45 71 111q0 92 -146 92h-103z" />
    <glyph glyph-name="rcaron.sc" 
d="M370 646h-102l-119 170h94l73 -102h8l73 102h92zM469 0l-133 205h-126v-205h-90v566h208q113 0 168 -39t55 -126q0 -106 -117 -180l146 -221h-111zM210 487v-203h178q71 45 71 111q0 92 -146 92h-103z" />
    <glyph glyph-name="rcommaaccent.sc" 
d="M434 221l146 -221h-111l-133 205h-126v-205h-90v566h208q113 0 168 -39t55 -126q0 -106 -117 -180zM210 487v-203h178q71 45 71 111q0 92 -146 92h-103zM254 -180l33 130h98l-44 -130h-87z" />
    <glyph glyph-name="uni1E5B.sc" 
d="M434 221l146 -221h-111l-133 205h-126v-205h-90v566h208q113 0 168 -39t55 -126q0 -106 -117 -180zM210 487v-203h178q71 45 71 111q0 92 -146 92h-103zM335 -50q31 0 51.5 -20t20.5 -50t-20.5 -50t-51.5 -20t-51.5 20t-20.5 50t20.5 50t51.5 20z" />
    <glyph glyph-name="s.sc" 
d="M312 -9q-131 0 -212 36l29 83q80 -39 187 -39q138 0 138 75q0 30 -35.5 52t-86 38.5t-101.5 36t-86.5 56t-35.5 87.5q0 80 63 119.5t163 39.5q109 0 190 -36l-27 -81q-74 37 -163 37q-136 0 -136 -71q0 -31 35.5 -54t86.5 -39.5t102 -36t86.5 -55t35.5 -85.5
q0 -83 -64 -123t-169 -40z" />
    <glyph glyph-name="sacute.sc" 
d="M282 646l111 170h108l-126 -170h-93zM312 -9q-131 0 -212 36l29 83q80 -39 187 -39q138 0 138 75q0 30 -35.5 52t-86 38.5t-101.5 36t-86.5 56t-35.5 87.5q0 80 63 119.5t163 39.5q109 0 190 -36l-27 -81q-74 37 -163 37q-136 0 -136 -71q0 -31 35.5 -54t86.5 -39.5
t102 -36t86.5 -55t35.5 -85.5q0 -83 -64 -123t-169 -40z" />
    <glyph glyph-name="scaron.sc" 
d="M259 816l73 -102h8l73 102h92l-119 -170h-102l-119 170h94zM312 -9q-131 0 -212 36l29 83q80 -39 187 -39q138 0 138 75q0 30 -35.5 52t-86 38.5t-101.5 36t-86.5 56t-35.5 87.5q0 80 63 119.5t163 39.5q109 0 190 -36l-27 -81q-74 37 -163 37q-136 0 -136 -71
q0 -31 35.5 -54t86.5 -39.5t102 -36t86.5 -55t35.5 -85.5q0 -83 -64 -123t-169 -40z" />
    <glyph glyph-name="scedilla.sc" 
d="M545 154q0 -72 -49 -111.5t-132 -48.5l-22 -40q50 -22 50 -60q0 -26 -36 -74h-76q28 41 28 56q0 12 -10.5 20t-46.5 21l37 74q-114 3 -188 36l29 83q80 -39 187 -39q138 0 138 75q0 30 -35.5 52t-86 38.5t-101.5 36t-86.5 56t-35.5 87.5q0 80 63 119.5t163 39.5
q109 0 190 -36l-27 -81q-74 37 -163 37q-136 0 -136 -71q0 -31 35.5 -54t86.5 -39.5t102 -36t86.5 -55t35.5 -85.5z" />
    <glyph glyph-name="scircumflex.sc" 
d="M411 646l-73 102h-8l-73 -102h-92l119 170h102l119 -170h-94zM312 -9q-131 0 -212 36l29 83q80 -39 187 -39q138 0 138 75q0 30 -35.5 52t-86 38.5t-101.5 36t-86.5 56t-35.5 87.5q0 80 63 119.5t163 39.5q109 0 190 -36l-27 -81q-74 37 -163 37q-136 0 -136 -71
q0 -31 35.5 -54t86.5 -39.5t102 -36t86.5 -55t35.5 -85.5q0 -83 -64 -123t-169 -40z" />
    <glyph glyph-name="scommaaccent.sc" 
d="M312 -9q-131 0 -212 36l29 83q80 -39 187 -39q138 0 138 75q0 30 -35.5 52t-86 38.5t-101.5 36t-86.5 56t-35.5 87.5q0 80 63 119.5t163 39.5q109 0 190 -36l-27 -81q-74 37 -163 37q-136 0 -136 -71q0 -31 35.5 -54t86.5 -39.5t102 -36t86.5 -55t35.5 -85.5
q0 -83 -64 -123t-169 -40zM241 -180l33 130h98l-44 -130h-87z" />
    <glyph glyph-name="uni1E63.sc" 
d="M312 -9q-131 0 -212 36l29 83q80 -39 187 -39q138 0 138 75q0 30 -35.5 52t-86 38.5t-101.5 36t-86.5 56t-35.5 87.5q0 80 63 119.5t163 39.5q109 0 190 -36l-27 -81q-74 37 -163 37q-136 0 -136 -71q0 -31 35.5 -54t86.5 -39.5t102 -36t86.5 -55t35.5 -85.5
q0 -83 -64 -123t-169 -40zM322 -190q-31 0 -51.5 20t-20.5 50t20.5 50t51.5 20t51.5 -20t20.5 -50t-20.5 -50t-51.5 -20z" />
    <glyph glyph-name="t.sc" 
d="M561 566v-80h-191v-486h-90v486h-191v80h472z" />
    <glyph glyph-name="tbar.sc" 
d="M561 486h-191v-163h110v-80h-110v-243h-90v243h-110v80h110v163h-191v80h472v-80z" />
    <glyph glyph-name="tcaron.sc" 
d="M376 646h-102l-119 170h94l73 -102h8l73 102h92zM561 566v-80h-191v-486h-90v486h-191v80h472z" />
    <glyph glyph-name="uni0163.sc" 
d="M561 566v-80h-191v-486h-90v486h-191v80h472zM244 -180l33 130h98l-44 -130h-87z" />
    <glyph glyph-name="uni021B.sc" 
d="M561 566v-80h-191v-486h-90v486h-191v80h472zM244 -180l33 130h98l-44 -130h-87z" />
    <glyph glyph-name="uni1E6D.sc" 
d="M561 566v-80h-191v-486h-90v486h-191v80h472zM325 -50q31 0 51.5 -20t20.5 -50t-20.5 -50t-51.5 -20t-51.5 20t-20.5 50t20.5 50t51.5 20z" />
    <glyph glyph-name="u.sc" 
d="M322 -10q-109 0 -163 56t-54 181v339h90v-335q0 -88 29 -124t100 -36q72 0 101.5 36.5t29.5 121.5v337h90v-333q0 -243 -223 -243z" />
    <glyph glyph-name="uacute.sc" 
d="M272 646l111 170h108l-126 -170h-93zM322 -10q-109 0 -163 56t-54 181v339h90v-335q0 -88 29 -124t100 -36q72 0 101.5 36.5t29.5 121.5v337h90v-333q0 -243 -223 -243z" />
    <glyph glyph-name="ubreve.sc" 
d="M322 647q-155 0 -159 160h88q2 -43 18.5 -64.5t55.5 -21.5t55.5 21.5t18.5 64.5h88q-2 -79 -44.5 -119.5t-120.5 -40.5zM322 -10q-109 0 -163 56t-54 181v339h90v-335q0 -88 29 -124t100 -36q72 0 101.5 36.5t29.5 121.5v337h90v-333q0 -243 -223 -243z" />
    <glyph glyph-name="uni01D4.sc" 
d="M249 816l73 -102h8l73 102h92l-119 -170h-102l-119 170h94zM322 -10q-109 0 -163 56t-54 181v339h90v-335q0 -88 29 -124t100 -36q72 0 101.5 36.5t29.5 121.5v337h90v-333q0 -243 -223 -243z" />
    <glyph glyph-name="ucircumflex.sc" 
d="M401 646l-73 102h-8l-73 -102h-92l119 170h102l119 -170h-94zM322 -10q-109 0 -163 56t-54 181v339h90v-335q0 -88 29 -124t100 -36q72 0 101.5 36.5t29.5 121.5v337h90v-333q0 -243 -223 -243z" />
    <glyph glyph-name="udieresis.sc" 
d="M220 650q-34 0 -57.5 24t-23.5 58t23.5 57.5t57.5 23.5t58 -23.5t24 -57.5t-24 -58t-58 -24zM429 650q-34 0 -57.5 24t-23.5 58t23.5 57.5t57.5 23.5t58 -23.5t24 -57.5t-23.5 -58t-58.5 -24zM322 -10q-109 0 -163 56t-54 181v339h90v-335q0 -88 29 -124t100 -36
q72 0 101.5 36.5t29.5 121.5v337h90v-333q0 -243 -223 -243z" />
    <glyph glyph-name="ugrave.sc" 
d="M378 646h-93l-126 170h108zM322 -10q-109 0 -163 56t-54 181v339h90v-335q0 -88 29 -124t100 -36q72 0 101.5 36.5t29.5 121.5v337h90v-333q0 -243 -223 -243z" />
    <glyph glyph-name="uhungarumlaut.sc" 
d="M288 816h108l-116 -170h-93zM478 816h108l-136 -170h-93zM322 -10q-109 0 -163 56t-54 181v339h90v-335q0 -88 29 -124t100 -36q72 0 101.5 36.5t29.5 121.5v337h90v-333q0 -243 -223 -243z" />
    <glyph glyph-name="umacron.sc" 
d="M165 689v73h320v-73h-320zM322 -10q-109 0 -163 56t-54 181v339h90v-335q0 -88 29 -124t100 -36q72 0 101.5 36.5t29.5 121.5v337h90v-333q0 -243 -223 -243z" />
    <glyph glyph-name="uogonek.sc" 
d="M455 566h90v-333q0 -143 -79 -203q-72 -62 -92.5 -85.5t-20.5 -36.5q0 -21 36 -21q27 0 59 6v-76q-39 -7 -70 -7q-110 0 -110 77q0 27 14.5 49t54.5 54h-15q-109 0 -163 56t-54 181v339h90v-335q0 -88 29 -124t100 -36q72 0 101.5 36.5t29.5 121.5v337z" />
    <glyph glyph-name="uring.sc" 
d="M327 836q52 0 83.5 -26.5t31.5 -77.5q0 -50 -33 -77.5t-86 -27.5q-52 0 -83.5 26t-31.5 77q0 50 33 78t86 28zM324 779q-44 0 -44 -47q0 -49 46 -49q44 0 44 47q0 49 -46 49zM322 -10q-109 0 -163 56t-54 181v339h90v-335q0 -88 29 -124t100 -36q72 0 101.5 36.5
t29.5 121.5v337h90v-333q0 -243 -223 -243z" />
    <glyph glyph-name="utilde.sc" 
d="M443 805l76 -30l-22 -49q-17 -37 -35 -50t-45 -13q-32 0 -96 24l-81 30l-33 -62l-76 30l22 49q17 37 35 50t45 13q32 0 96 -24l81 -30zM322 -10q-109 0 -163 56t-54 181v339h90v-335q0 -88 29 -124t100 -36q72 0 101.5 36.5t29.5 121.5v337h90v-333q0 -243 -223 -243z
" />
    <glyph glyph-name="v.sc" 
d="M482 566h89l-176 -566h-140l-176 566h96l125 -415l16 -71h23l17 71z" />
    <glyph glyph-name="uni1E7D.sc" 
d="M240 717l-33 -62l-76 30l22 49q17 37 35 50t45 13q32 0 96 -24l81 -30l33 62l76 -30l-22 -49q-17 -37 -35 -50t-45 -13q-32 0 -96 24zM482 566h89l-176 -566h-140l-176 566h96l125 -415l16 -71h23l17 71z" />
    <glyph glyph-name="w.sc" 
d="M492 566h79l-81 -566h-123l-27 158l-10 110h-10l-10 -110l-27 -158h-123l-81 566h78l40 -291l22 -194h10l19 143l22 126h111l21 -126l19 -143h10l21 194z" />
    <glyph glyph-name="wacute.sc" 
d="M491 816l-126 -170h-93l111 170h108zM492 566h79l-81 -566h-123l-27 158l-10 110h-10l-10 -110l-27 -158h-123l-81 566h78l40 -291l22 -194h10l19 143l22 126h111l21 -126l19 -143h10l21 194z" />
    <glyph glyph-name="wcircumflex.sc" 
d="M320 748l-73 -102h-92l119 170h102l119 -170h-94l-73 102h-8zM492 566h79l-81 -566h-123l-27 158l-10 110h-10l-10 -110l-27 -158h-123l-81 566h78l40 -291l22 -194h10l19 143l22 126h111l21 -126l19 -143h10l21 194z" />
    <glyph glyph-name="wdieresis.sc" 
d="M220 650q-34 0 -57.5 24t-23.5 58t23.5 57.5t57.5 23.5t58 -23.5t24 -57.5t-24 -58t-58 -24zM429 650q-34 0 -57.5 24t-23.5 58t23.5 57.5t57.5 23.5t58 -23.5t24 -57.5t-23.5 -58t-58.5 -24zM492 566h79l-81 -566h-123l-27 158l-10 110h-10l-10 -110l-27 -158h-123
l-81 566h78l40 -291l22 -194h10l19 143l22 126h111l21 -126l19 -143h10l21 194z" />
    <glyph glyph-name="wgrave.sc" 
d="M378 646h-93l-126 170h108zM492 566h79l-81 -566h-123l-27 158l-10 110h-10l-10 -110l-27 -158h-123l-81 566h78l40 -291l22 -194h10l19 143l22 126h111l21 -126l19 -143h10l21 194z" />
    <glyph glyph-name="x.sc" 
d="M472 0l-138 247h-21l-135 -247h-99l171 297l-166 269h97l135 -223h23l135 223h92l-167 -268l172 -298h-99z" />
    <glyph glyph-name="y.sc" 
d="M370 242v-163h173v-79h-436v79h173v163l-219 324h98l121 -183l39 -75h17l39 75l121 183h93z" />
    <glyph glyph-name="yacute.sc" 
d="M491 816l-126 -170h-93l111 170h108zM370 242v-163h173v-79h-436v79h173v163l-219 324h98l121 -183l39 -75h17l39 75l121 183h93z" />
    <glyph glyph-name="ycircumflex.sc" 
d="M320 748l-73 -102h-92l119 170h102l119 -170h-94l-73 102h-8zM370 242v-163h173v-79h-436v79h173v163l-219 324h98l121 -183l39 -75h17l39 75l121 183h93z" />
    <glyph glyph-name="ydieresis.sc" 
d="M220 650q-34 0 -57.5 24t-23.5 58t23.5 57.5t57.5 23.5t58 -23.5t24 -57.5t-24 -58t-58 -24zM429 650q-34 0 -57.5 24t-23.5 58t23.5 57.5t57.5 23.5t58 -23.5t24 -57.5t-23.5 -58t-58.5 -24zM370 242v-163h173v-79h-436v79h173v163l-219 324h98l121 -183l39 -75h17
l39 75l121 183h93z" />
    <glyph glyph-name="ygrave.sc" 
d="M378 646h-93l-126 170h108zM370 242v-163h173v-79h-436v79h173v163l-219 324h98l121 -183l39 -75h17l39 75l121 183h93z" />
    <glyph glyph-name="z.sc" 
d="M202 79h348v-79h-450v87l298 353l41 34v13h-330v79h432v-87l-298 -353l-41 -34v-13z" />
    <glyph glyph-name="zacute.sc" 
d="M491 816l-126 -170h-93l111 170h108zM202 79h348v-79h-450v87l298 353l41 34v13h-330v79h432v-87l-298 -353l-41 -34v-13z" />
    <glyph glyph-name="zcaron.sc" 
d="M376 646h-102l-119 170h94l73 -102h8l73 102h92zM202 79h348v-79h-450v87l298 353l41 34v13h-330v79h432v-87l-298 -353l-41 -34v-13z" />
    <glyph glyph-name="zdotaccent.sc" 
d="M325 636q-37 0 -63.5 26t-26.5 64t26.5 64t63.5 26t63.5 -26t26.5 -64t-26.5 -64t-63.5 -26zM202 79h348v-79h-450v87l298 353l41 34v13h-330v79h432v-87l-298 -353l-41 -34v-13z" />
    <glyph glyph-name="uni1E93.sc" 
d="M202 79h348v-79h-450v87l298 353l41 34v13h-330v79h432v-87l-298 -353l-41 -34v-13zM325 -50q31 0 51.5 -20t20.5 -50t-20.5 -50t-51.5 -20t-51.5 20t-20.5 50t20.5 50t51.5 20z" />
    <glyph glyph-name="A_gravecombcy" 
d="M368 730h-93l-136 140h108zM509 0l-69 233h-234l-68 -233h-93l207 680h146l207 -680h-96zM230 314h186l-55 184l-24 102h-29l-24 -102z" />
    <glyph glyph-name="O_gravecombcy" 
d="M372 740h-93l-136 140h108zM322 -10q-127 0 -199.5 84.5t-72.5 259.5q0 179 77.5 267.5t200.5 88.5q127 0 199.5 -85.5t72.5 -263.5q0 -176 -77.5 -263.5t-200.5 -87.5zM324 72q90 0 136 62.5t46 201.5q0 145 -45.5 208.5t-134.5 63.5q-90 0 -136 -63.5t-46 -205.5
t45.5 -204.5t134.5 -62.5z" />
    <glyph glyph-name="U_gravecombcy" 
d="M376 730h-93l-136 140h108zM608 680l-290 -599h177v-81h-435v81h169l65 134l-256 465h100l158 -295l39 -90h7l38 90l141 295h87z" />
    <glyph glyph-name="Hardsign_gravecombcy" 
d="M391 730h-93l-136 140h108zM373 412q227 0 227 -198q0 -104 -61 -159t-176 -55h-174v599h-148v81h237v-268h95zM357 80q88 0 120 31t32 97q0 62 -31.5 93t-110.5 31h-89v-252h79z" />
    <glyph glyph-name="Yeru_gravecombcy" 
d="M370 730h-93l-136 140h108zM223 412q106 0 156.5 -52.5t50.5 -145.5q0 -102 -58 -158t-159 -56h-153v680h87v-268h76zM503 680h87v-680h-87v680zM205 77q76 0 106 32.5t30 98.5q0 62 -29 94.5t-97 32.5h-68v-258h58z" />
    <glyph glyph-name="Ereversed_gravecombcy" 
d="M316 740h-93l-136 140h108zM274 690q136 0 218 -82.5t82 -261.5q0 -95 -27 -166.5t-73 -111.5t-98.5 -59t-111.5 -19q-110 0 -195 45l26 79q44 -23 81 -32.5t96 -9.5q51 0 93 19.5t74.5 72.5t38.5 135h-367v81h368q-14 228 -207 228q-86 0 -177 -47l-24 76q94 53 203 53z
" />
    <glyph glyph-name="Iu_gravecombcy" 
d="M340 730h-93l-136 140h108zM431 688q41 0 72 -15.5t56.5 -52t39 -106t13.5 -169.5q0 -353 -187 -353q-83 0 -127 69t-49 239h-94v-300h-85v680h85v-302h95q9 310 181 310zM427 70q32 0 51 17t32.5 78.5t13.5 174.5q0 87 -6.5 142.5t-20.5 82.5t-29 36t-39 9
q-32 0 -51.5 -17t-33 -78t-13.5 -172q0 -87 6.5 -143.5t20.5 -84t29.5 -36.5t39.5 -9z" />
    <glyph glyph-name="Ia_gravecombcy" 
d="M390 730h-93l-136 140h108zM551 680v-680h-92v253h-152l-148 -253h-110l161 269q-129 61 -129 193q0 101 65.5 159.5t208.5 58.5h196zM268 334h191v265h-114q-170 0 -170 -127q0 -54 21.5 -85t71.5 -53z" />
    <glyph glyph-name="uni0414.loclBGR" 
d="M561 81h60v-221h-90v140h-412v-140h-90v221h60l161 599h150zM181 81h285l-108 417l-21 102h-29l-21 -102z" />
    <glyph glyph-name="uni0419.loclBGR" 
d="M480 826v-73h-310v73h310zM423 681h138v-681h-89l6 585h-10l-241 -585h-138v680h89l-6 -584h9z" />
    <glyph glyph-name="uni041B.loclBGR" 
d="M400 680l193 -680h-96l-136 498l-23 102h-31l-23 -102l-134 -498h-93l193 680h150z" />
    <glyph glyph-name="uni040E.loclBGR" 
d="M486 826v-73h-310v73h310zM608 680l-290 -599h177v-81h-435v81h169l65 134l-256 465h100l158 -295l39 -90h7l38 90l141 295h87z" />
    <glyph glyph-name="uni0409.loclBGR" 
d="M468 412q177 0 177 -198q0 -102 -50.5 -158t-136.5 -56h-108l-77 468l-16 134h-29l-16 -134l-77 -468h-88l120 680h156l47 -268h98zM452 77q62 0 84 32t22 99q0 63 -21 95t-75 32h-78l45 -258h23z" />
    <glyph glyph-name="uni04C1.loclBGR" 
d="M480 826v-73h-310v73h310zM522 0l-84 302h-75l6 -302h-86l6 302h-80l-84 -302h-100l112 351l-102 329h89l91 -302h74l-6 302h86l-6 -302h73l91 302h88l-102 -329l112 -351h-103z" />
    <glyph glyph-name="uni0422.loclMKD" 
d="M599 680v-680h-82v600h-151v-600h-82v600h-151v-600h-82v680h548z" />
    <glyph glyph-name="a_gravecombcy" 
d="M370 650h-93l-126 170h108zM335 561q65 0 107 -15t61.5 -45.5t25.5 -61.5t6 -78l-5 -361h-75v66q-84 -79 -193 -77q-82 1 -127 41t-45 110q0 78 83.5 118t269.5 54l1 39q0 31 -3 50.5t-13.5 39.5t-35.5 29.5t-64 9.5q-101 0 -192 -47l-24 75q94 53 223 53zM274 68
q86 -1 166 59l2 112q-140 -11 -201 -33.5t-61 -63.5q0 -72 94 -74z" />
    <glyph glyph-name="o_gravecombcy" 
d="M378 650h-93l-126 170h108zM322 -11q-116 0 -181.5 75t-65.5 205q0 135 70 213.5t183 78.5q117 0 182 -75.5t65 -209.5q0 -132 -70 -209.5t-183 -77.5zM324 70q80 0 120 53.5t40 147.5q0 209 -158 209q-80 0 -120 -54.5t-40 -151.5t39 -150.5t119 -53.5z" />
    <glyph glyph-name="u_gravecombcy" 
d="M386 650h-93l-126 170h108zM370 11v-111h158v-80h-406v80h158v111l-213 539h97l115 -299l39 -124h20l40 124l113 299h92z" />
    <glyph glyph-name="hardsign_gravecombcy" 
d="M360 650h-93l-126 170h108zM408 352q100 0 145.5 -43.5t45.5 -129.5t-59 -137.5t-163 -51.5q-73 0 -188 16v464h-138v80h228v-123l-9 -90q88 15 138 15zM380 69q126 0 126 104q0 53 -24.5 76.5t-81.5 23.5q-46 0 -121 -8v-189q56 -7 101 -7z" />
    <glyph glyph-name="yeru_gravecombcy" 
d="M378 650h-93l-126 170h108zM259 352q171 0 171 -173q0 -85 -55 -137t-147 -52q-48 0 -163 16v544h84v-123l-9 -90q67 15 119 15zM585 550v-550h-84v472h-130v78h214zM231 67q111 0 111 106q0 55 -21.5 78.5t-69.5 23.5q-50 0 -102 -8v-192q53 -8 82 -8z" />
    <glyph glyph-name="ereversed_gravecombcy" 
d="M351 650h-93l-126 170h108zM299 560q128 0 196 -70t68 -209q0 -143 -76.5 -217t-197.5 -74q-115 0 -200 45l26 81q87 -45 182 -45q73 0 118 40t54 121h-337v80h338q-7 86 -49 126.5t-124 40.5q-90 0 -182 -51l-24 79q94 53 208 53z" />
    <glyph glyph-name="iu_gravecombcy" 
d="M360 650h-93l-126 170h108zM427 558q80 0 124.5 -61.5t44.5 -215.5q0 -158 -49 -223.5t-126 -65.5q-76 0 -117 56t-46 189h-88v-237h-82v550h82v-237h88q12 245 169 245zM423 70q21 0 35.5 6.5t28 27t20 63.5t6.5 109t-6.5 109t-19.5 62.5t-27 26t-35 6.5
q-29 0 -46.5 -12t-30.5 -58t-13 -131q0 -68 6.5 -112t19.5 -64t27 -26.5t35 -6.5z" />
    <glyph glyph-name="ia_gravecombcy" 
d="M398 650h-93l-126 170h108zM534 550v-550h-87v200h-137l-125 -200h-105l139 214q-111 48 -111 158q0 178 235 178h191zM275 276h172v198h-109q-72 0 -104 -23.5t-32 -72.5q0 -41 17.5 -64.5t55.5 -37.5z" />
    <glyph glyph-name="uni0432.loclBGR" 
d="M471 448q115 -48 115 -196q0 -119 -63 -191t-182 -72q-91 0 -143 33t-79 119.5t-27 242.5q0 127 18.5 215.5t55 138.5t83 71.5t109.5 21.5q100 0 155 -54t55 -146q0 -112 -97 -183zM354 750q-82 0 -121.5 -59.5t-47.5 -210.5h144q37 0 62 -3q45 31 64.5 64.5t19.5 80.5
q0 58 -29.5 93t-91.5 35zM342 70q150 0 150 177q0 156 -159 156h-150v-14q0 -131 15.5 -199.5t48 -94t95.5 -25.5z" />
    <glyph glyph-name="uni0433.loclBGR" 
d="M322 -10q-116 0 -174 33t-58 112q0 52 38 90t92 58.5t108.5 38t92.5 40.5t38 53q0 65 -134 65q-94 0 -183 -41l-26 82q97 39 214 39q115 0 167.5 -33.5t52.5 -105.5q0 -51 -38 -88t-92.5 -57.5t-108.5 -38t-92 -41t-38 -55.5q0 -38 35.5 -54.5t119.5 -16.5q100 0 197 46
l27 -84q-97 -42 -238 -42z" />
    <glyph glyph-name="uni0453.loclBGR" 
d="M277 650l111 170h108l-126 -170h-93zM322 -10q-116 0 -174 33t-58 112q0 52 38 90t92 58.5t108.5 38t92.5 40.5t38 53q0 65 -134 65q-94 0 -183 -41l-26 82q97 39 214 39q115 0 167.5 -33.5t52.5 -105.5q0 -51 -38 -88t-92.5 -57.5t-108.5 -38t-92 -41t-38 -55.5
q0 -38 35.5 -54.5t119.5 -16.5q100 0 197 46l27 -84q-97 -42 -238 -42z" />
    <glyph glyph-name="uni0491.loclBGR" 
d="M533 116l27 -84q-97 -42 -238 -42q-116 0 -174 33t-58 112q0 52 38 90t92 58.5t108.5 38t92.5 40.5t38 53q0 65 -134 65q-94 0 -183 -41l-26 82v168h88v-142q62 13 126 13q115 0 167.5 -33.5t52.5 -105.5q0 -51 -38 -88t-92.5 -57.5t-108.5 -38t-92 -41t-38 -55.5
q0 -38 35.5 -54.5t119.5 -16.5q100 0 197 46z" />
    <glyph glyph-name="uni0434.loclBGR" 
d="M609 80v-220h-88v140h-392v-140h-88v220h54l165 470h130l165 -470h54zM186 80h273l-84 249l-41 141h-23l-41 -141z" />
    <glyph glyph-name="uni0436.loclBGR" 
d="M524 0l-89 238h-74l6 -238h-84l6 238h-73l-93 -238h-97l121 274l-110 276h90l88 -238h74l-7 238v270h86v-270l-7 -238h76l92 238h86l-108 -267l119 -283h-102z" />
    <glyph glyph-name="uni0438.loclBGR" 
d="M453 550h90v-550h-76v61q-84 -72 -185 -72q-93 0 -136 46t-43 136v379h90v-366q0 -60 24.5 -87t75.5 -27q79 0 160 52v428z" />
    <glyph glyph-name="uni0439.loclBGR" 
d="M485 766v-73h-320v73h320zM453 550h90v-550h-76v61q-84 -72 -185 -72q-93 0 -136 46t-43 136v379h90v-366q0 -60 24.5 -87t75.5 -27q79 0 160 52v428z" />
    <glyph glyph-name="uni045D.loclBGR" 
d="M378 650h-93l-126 170h108zM453 550h90v-550h-76v61q-84 -72 -185 -72q-93 0 -136 46t-43 136v379h90v-366q0 -60 24.5 -87t75.5 -27q79 0 160 52v428z" />
    <glyph glyph-name="uni043A.loclBGR" 
d="M451 0l-150 247h-90v-247h-90v820h90v-497h92l151 227h97l-173 -256l184 -294h-111z" />
    <glyph glyph-name="uni045C.loclBGR" 
d="M451 0l-150 247h-90v-247h-90v820h90v-497h92l151 227h97l-173 -256l184 -294h-111zM521 820l-126 -170h-93l111 170h108z" />
    <glyph glyph-name="uni043B.loclBGR" 
d="M390 550l193 -550h-97l-111 329l-41 141h-23l-41 -141l-111 -329h-92l193 550h130z" />
    <glyph glyph-name="uni043F.loclBGR" 
d="M368 561q93 0 136 -46t43 -136v-379h-90v366q0 60 -24.5 87t-75.5 27q-79 0 -160 -52v-428h-90v550h76v-61q84 72 185 72z" />
    <glyph glyph-name="uni0442.loclBGR" 
d="M470 561q62 0 91.5 -36.5t29.5 -115.5v-409h-80v376q0 65 -11.5 89.5t-49.5 24.5q-39 0 -87 -41q2 -24 2 -40v-409h-80v376q0 65 -11.5 89.5t-49.5 24.5q-39 0 -85 -39v-451h-80v550h66l1 -48q56 59 118 59q76 0 103 -55q64 55 123 55z" />
    <glyph glyph-name="uni045E.loclBGR" 
d="M493 766v-73h-320v73h320zM370 11v-111h158v-80h-406v80h158v111l-213 539h97l115 -299l39 -124h20l40 124l113 299h92z" />
    <glyph glyph-name="uni0446.loclBGR" 
d="M543 80h53v-220h-88v140h-41v61q-84 -72 -185 -72q-93 0 -136 46t-43 136v379h90v-366q0 -60 24.5 -87t75.5 -27q79 0 160 52v428h90v-470z" />
    <glyph glyph-name="uni0448.loclBGR" 
d="M511 550h80v-550h-66l-1 48q-56 -59 -118 -59q-76 0 -103 55q-64 -55 -123 -55q-62 0 -91.5 36.5t-29.5 115.5v409h80v-376q0 -65 11.5 -89.5t49.5 -24.5q39 0 87 41q-2 24 -2 40v409h80v-376q0 -65 11.5 -89.5t49.5 -24.5q39 0 85 39v451z" />
    <glyph glyph-name="uni0449.loclBGR" 
d="M591 80h50v-220h-88v140h-28l-1 48q-56 -59 -118 -59q-76 0 -103 55q-64 -55 -123 -55q-62 0 -91.5 36.5t-29.5 115.5v409h80v-376q0 -65 11.5 -89.5t49.5 -24.5q39 0 87 41q-2 24 -2 40v409h80v-376q0 -65 11.5 -89.5t49.5 -24.5q39 0 85 39v451h80v-470z" />
    <glyph glyph-name="uni045F.loclBGR" 
d="M453 550h90v-550h-76v61q-84 -72 -185 -72q-93 0 -136 46t-43 136v379h90v-366q0 -60 24.5 -87t75.5 -27q79 0 160 52v428zM283 -41h80l4 -139h-88z" />
    <glyph glyph-name="uni044C.loclBGR" 
d="M369 352q122 0 173 -43t51 -130q0 -85 -66.5 -137t-178.5 -52q-119 0 -174.5 52.5t-55.5 183.5v324h90v-123l-9 -91q93 16 170 16zM351 69q149 0 149 104q0 55 -30 77.5t-111 22.5q-71 0 -151 -8v-33q0 -97 34.5 -130t108.5 -33z" />
    <glyph glyph-name="uni044A.loclBGR" 
d="M408 352q100 0 145.5 -43.5t45.5 -129.5q0 -85 -58 -137t-153 -52q-104 0 -151.5 50.5t-47.5 175.5v254h-138v80h228v-123l-9 -90q88 15 138 15zM391 69q56 0 85.5 27t29.5 77q0 53 -24.5 76.5t-81.5 23.5q-46 0 -121 -8v-43q0 -91 26.5 -122t85.5 -31z" />
    <glyph glyph-name="hardsign_gravecombcy.loclBGR" 
d="M360 650h-93l-126 170h108zM408 352q100 0 145.5 -43.5t45.5 -129.5q0 -85 -58 -137t-153 -52q-104 0 -151.5 50.5t-47.5 175.5v254h-138v80h228v-123l-9 -90q88 15 138 15zM391 69q56 0 85.5 27t29.5 77q0 53 -24.5 76.5t-81.5 23.5q-46 0 -121 -8v-43q0 -91 26.5 -122
t85.5 -31z" />
    <glyph glyph-name="uni044B.loclBGR" 
d="M259 352q171 0 171 -173q0 -84 -53.5 -136.5t-133.5 -52.5q-87 0 -132.5 47.5t-45.5 158.5v354h84v-123l-9 -90q67 15 119 15zM585 550v-550h-84v472h-130v78h214zM246 67q43 0 69.5 28t26.5 78q0 55 -21.5 78.5t-69.5 23.5q-50 0 -102 -8v-65q0 -77 24.5 -106t72.5 -29z
" />
    <glyph glyph-name="yeru_gravecombcy.loclBGR" 
d="M378 650h-93l-126 170h108zM259 352q171 0 171 -173q0 -84 -53.5 -136.5t-133.5 -52.5q-87 0 -132.5 47.5t-45.5 158.5v354h84v-123l-9 -90q67 15 119 15zM585 550v-550h-84v472h-130v78h214zM246 67q43 0 69.5 28t26.5 78q0 55 -21.5 78.5t-69.5 23.5q-50 0 -102 -8v-65
q0 -77 24.5 -106t72.5 -29z" />
    <glyph glyph-name="uni0459.loclBGR" 
d="M472 352q169 0 167 -173q0 -91 -46.5 -140t-126.5 -49q-74 0 -112 40.5t-62 148.5l-33 150l-28 141h-20l-29 -141l-77 -329h-88l137 550h138l53 -215q72 17 127 17zM551 173q1 56 -19 80t-68 24q-46 0 -102 -11l18 -75q18 -76 38 -101t52 -25q81 0 81 108z" />
    <glyph glyph-name="uni045A.loclBGR" 
d="M476 352q82 0 123 -44.5t40 -128.5q0 -91 -47.5 -140t-129.5 -49q-79 0 -118.5 43t-39.5 143v62h-152v-238h-85v550h85v-238h152v238h84v-123l-9 -89q54 14 97 14zM551 173q1 56 -18.5 80t-64.5 24q-28 0 -80 -6v-89q0 -67 20.5 -92t57.5 -25q85 0 85 108z" />
    <glyph glyph-name="uni044E.loclBGR" 
d="M427 558q80 0 124.5 -61.5t44.5 -215.5q0 -158 -49 -223.5t-126 -65.5q-76 0 -117 56t-46 189h-88v-237h-82v820h82v-507h88q12 245 169 245zM423 70q21 0 35.5 6.5t28 27t20 63.5t6.5 109t-6.5 109t-19.5 62.5t-27 26t-35 6.5q-29 0 -46.5 -12t-30.5 -58t-13 -131
q0 -68 6.5 -112t19.5 -64t27 -26.5t35 -6.5z" />
    <glyph glyph-name="iu_gravecombcy.loclBGR" 
d="M427 558q80 0 124.5 -61.5t44.5 -215.5q0 -158 -49 -223.5t-126 -65.5q-76 0 -117 56t-46 189h-88v-237h-82v820h82v-507h88q12 245 169 245zM478 650h-93l-126 170h108zM423 70q21 0 35.5 6.5t28 27t20 63.5t6.5 109t-6.5 109t-19.5 62.5t-27 26t-35 6.5
q-29 0 -46.5 -12t-30.5 -58t-13 -131q0 -68 6.5 -112t19.5 -64t27 -26.5t35 -6.5z" />
    <glyph glyph-name="uni0463.loclBGR" 
d="M369 342q122 0 173 -42t51 -126q0 -82 -66.5 -133t-178.5 -51q-119 0 -174.5 52.5t-55.5 183.5v244h-82v80h82v130h93l-17 -130h214v-80h-200v-53l-9 -91q93 16 170 16zM351 69q73 0 111 26t38 73q0 51 -30 73t-111 22q-71 0 -151 -8v-23q0 -97 34.5 -130t108.5 -33z" />
    <glyph glyph-name="uni0493.loclBGR" 
d="M533 116l27 -84q-97 -42 -238 -42q-116 0 -174 33t-58 112q0 52 34 85.5t94 58.5l-104 38l27 75l195 -71q61 20 92 41t31 53q0 65 -134 65q-94 0 -183 -41l-26 82q97 39 214 39q115 0 167.5 -33.5t52.5 -105.5q0 -86 -116 -136l92 -34l-27 -75l-182 67q-68 -23 -102 -45
t-34 -57q0 -38 35.5 -54.5t119.5 -16.5q100 0 197 46z" />
    <glyph glyph-name="uni0497.loclBGR" 
d="M592 80h52v-220h-88v140h-32l-89 238h-74l6 -238h-84l6 238h-73l-93 -238h-97l121 274l-110 276h90l88 -238h74l-7 238v270h86v-270l-7 -238h76l92 238h86l-108 -267z" />
    <glyph glyph-name="uni049B.loclBGR" 
d="M512 80h56v-220h-88v140h-29l-150 247h-90v-247h-90v820h90v-497h92l151 227h97l-173 -256z" />
    <glyph glyph-name="uni049D.loclBGR" 
d="M483 0l-94 248h-57v-130h-80v130h-69v-248h-88v820h88v-498h69v130h80v-130h58l98 228h93l-112 -260l123 -290h-109z" />
    <glyph glyph-name="uni04C2.loclBGR" 
d="M485 766v-73h-320v73h320zM524 0l-89 238h-74l6 -238h-84l6 238h-73l-93 -238h-97l121 274l-110 276h90l88 -238h74l-6 238h84l-6 -238h76l92 238h86l-108 -267l119 -283h-102z" />
    <glyph glyph-name="uni04E3.loclBGR" 
d="M485 766v-73h-320v73h320zM453 550h90v-550h-76v61q-84 -72 -185 -72q-93 0 -136 46t-43 136v379h90v-366q0 -60 24.5 -87t75.5 -27q79 0 160 52v428z" />
    <glyph glyph-name="uni04E5.loclBGR" 
d="M220 654q-34 0 -57.5 24t-23.5 58t23.5 57.5t57.5 23.5t58 -23.5t24 -57.5t-24 -58t-58 -24zM429 654q-34 0 -57.5 24t-23.5 58t23.5 57.5t57.5 23.5t58 -23.5t24 -57.5t-23.5 -58t-58.5 -24zM453 550h90v-550h-76v61q-84 -72 -185 -72q-93 0 -136 46t-43 136v379h90
v-366q0 -60 24.5 -87t75.5 -27q79 0 160 52v428z" />
    <glyph glyph-name="uni04F9.loclBGR" 
d="M220 654q-34 0 -57.5 24t-23.5 58t23.5 57.5t57.5 23.5t58 -23.5t24 -57.5t-24 -58t-58 -24zM429 654q-34 0 -57.5 24t-23.5 58t23.5 57.5t57.5 23.5t58 -23.5t24 -57.5t-23.5 -58t-58.5 -24zM259 352q171 0 171 -173q0 -84 -53.5 -136.5t-133.5 -52.5q-87 0 -132.5 47.5
t-45.5 158.5v354h84v-123l-9 -90q67 15 119 15zM585 550v-550h-84v472h-130v78h214zM246 67q43 0 69.5 28t26.5 78q0 55 -21.5 78.5t-69.5 23.5q-50 0 -102 -8v-65q0 -77 24.5 -106t72.5 -29z" />
    <glyph glyph-name="uni0442.loclMKD" 
d="M470 561q62 0 91.5 -36.5t29.5 -115.5v-409h-80v376q0 65 -11.5 89.5t-49.5 24.5q-39 0 -87 -41q2 -24 2 -40v-409h-80v376q0 65 -11.5 89.5t-49.5 24.5q-39 0 -85 -39v-451h-80v550h66l1 -48q56 59 118 59q76 0 103 -55q64 55 123 55z" />
    <glyph glyph-name="uni0431.loclSRB" 
d="M194 661q0 -17 21 -32.5t54.5 -29.5t74.5 -30.5t81.5 -42t74 -58.5t54.5 -84.5t21 -115.5q0 -126 -70.5 -202.5t-182.5 -76.5q-115 0 -181 72t-66 191q0 187 167 268q-34 14 -55 24.5t-42.5 26.5t-32 37t-10.5 47q0 53 38.5 85t136.5 53.5t280 36.5v-82
q-118 -11 -192 -21t-110.5 -20.5t-48.5 -20.5t-12 -25zM324 70q79 0 119.5 52t40.5 138q0 88 -43 139t-118 87q-157 -75 -157 -229q0 -86 39.5 -136.5t118.5 -50.5z" />
    <glyph glyph-name="zero.osf" 
d="M328 610q249 0 249 -309q0 -153 -66.5 -232t-188.5 -79q-249 0 -249 304q0 156 66.5 236t188.5 80zM326 528q-89 0 -124 -54.5t-35 -174.5q0 -45 4 -74l288 231q-34 72 -133 72zM324 72q89 0 124 53.5t35 170.5q0 49 -4 81l-289 -232q34 -73 134 -73z" />
    <glyph glyph-name="one.osf" 
d="M416 82h172v-82h-476v82h212v350l-212 -81v89l212 81v79h92v-518z" />
    <glyph glyph-name="two.osf" 
d="M225 82h359v-82h-492v92q212 106 293.5 174.5t81.5 146.5q0 115 -148 115q-82 0 -115.5 -35.5t-33.5 -103.5q0 -39 8 -61l-95 7q-4 30 -4 64q0 95 64.5 153t180.5 58q69 0 118.5 -17.5t74 -47t34.5 -59.5t10 -63q0 -44 -16.5 -84.5t-40.5 -70t-65 -60.5t-75.5 -51.5
t-85.5 -47.5l-53 -17v-10z" />
    <glyph glyph-name="three.osf" 
d="M447 275q64 -23 92.5 -60.5t28.5 -98.5q0 -92 -70 -149t-214 -57q-136 0 -230 45l26 78q96 -42 212 -42q99 0 141.5 30t42.5 90q0 111 -174 111h-185v81h237h3q52 21 74.5 50t22.5 70q0 57 -38 81.5t-119 24.5q-113 0 -207 -47l-24 75q101 53 238 53q114 0 178 -45.5
t64 -136.5q0 -97 -99 -153z" />
    <glyph glyph-name="four.osf" 
d="M599 142v-82h-98v-140h-92v140h-342v92l247 448h95l-210 -381l-57 -77h267v458h92v-458h98z" />
    <glyph glyph-name="five.osf" 
d="M332 338q125 -21 182 -67.5t57 -138.5q0 -97 -68.5 -159.5t-205.5 -62.5q-135 0 -220 45l26 78q81 -42 202 -42q174 0 174 135q0 57 -42.5 87t-136.5 47l-177 32l4 308h422v-82h-332l-3 -159z" />
    <glyph glyph-name="six.osf" 
d="M339 393q120 -14 179.5 -61t59.5 -138q0 -90 -58 -147t-179 -57q-126 0 -191.5 75t-65.5 244q0 82 16.5 148.5t52 120.5t98 83.5t147.5 29.5q91 0 170 -25l-25 -80q-78 24 -153 24q-102 0 -149.5 -52.5t-59.5 -145.5zM349 71q137 0 137 115q0 59 -38 87.5t-131 39.5
l-141 17v-16q0 -136 40.5 -189.5t132.5 -53.5z" />
    <glyph glyph-name="seven.osf" 
d="M569 600v-92l-225 -506h155v-82h-402v82h146l200 439l53 77h-409v82h482z" />
    <glyph glyph-name="eight.osf" 
d="M406 335q70 -33 110 -73.5t40 -99.5q0 -86 -62.5 -132.5t-170.5 -46.5q-107 0 -168 41.5t-61 124.5q0 60 38.5 101t108.5 78q-82 36 -127.5 77t-45.5 104q0 88 69.5 138t191.5 50q253 0 253 -172q0 -63 -46 -106t-130 -84zM160 513q0 -25 12.5 -45.5t39.5 -38.5t51 -30
t65 -29q80 37 121 70t41 81q0 47 -39 71t-129 24q-162 0 -162 -103zM328 62q76 0 106 25t30 71q0 44 -37 74.5t-107 61.5q-65 -32 -99.5 -64.5t-34.5 -76.5q0 -91 142 -91z" />
    <glyph glyph-name="nine.osf" 
d="M309 611q126 0 191.5 -83.5t65.5 -245.5q0 -372 -284 -372q-111 0 -190 25l25 84q81 -28 173 -28q94 0 133.5 50t47.5 138l-160 19q-124 15 -181.5 61.5t-57.5 137.5q0 95 61.5 154.5t175.5 59.5zM333 278l141 -17v16q0 130 -40 191.5t-133 61.5q-70 0 -103.5 -35
t-33.5 -90q0 -59 36.5 -87t132.5 -40z" />
    <glyph glyph-name="zero.sc" 
d="M328 575q117 0 172.5 -69t55.5 -222q0 -293 -234 -293q-117 0 -172.5 68.5t-55.5 218.5q0 297 234 297zM326 496q-79 0 -110.5 -49t-31.5 -165q0 -34 1 -49l260 195q-28 68 -119 68zM324 70q79 0 110.5 48.5t31.5 161.5q0 40 -3 72l-265 -198q14 -44 44 -64t82 -20z" />
    <glyph glyph-name="one.sc" 
d="M413 79h155v-79h-436v79h191v333l-191 -72v85l191 72v69h90v-487z" />
    <glyph glyph-name="two.sc" 
d="M238 79h325v-79h-452v89q202 102 271.5 164.5t69.5 139.5q0 48 -32 75.5t-97 27.5q-136 0 -136 -116q0 -46 14 -72l-95 6q-10 35 -10 76q0 84 63 134.5t169 50.5q112 0 164.5 -51t52.5 -122q0 -55 -20 -100t-60.5 -81t-75 -58.5t-91.5 -52.5l-60 -22v-9z" />
    <glyph glyph-name="three.sc" 
d="M440 293q107 -31 107 -132q0 -76 -64.5 -123.5t-196.5 -47.5q-130 0 -211 38l24 75q73 -35 195 -35q158 0 158 89q0 86 -149 86h-164v78h211h8q74 34 74 96q0 78 -129 78q-110 0 -195 -39l-22 74q90 44 219 44q104 0 162.5 -38t58.5 -115q0 -88 -86 -128z" />
    <glyph glyph-name="four.sc" 
d="M577 195v-79h-84v-116h-90v116h-314v87l220 363h94l-186 -307l-55 -64h241v371h90v-371h84z" />
    <glyph glyph-name="five.sc" 
d="M331 353q117 -19 168 -58.5t51 -117.5q0 -81 -62.5 -133.5t-188.5 -52.5q-122 0 -201 38l25 76q76 -35 184 -35q80 0 117 23.5t37 74.5q0 44 -39.5 67.5t-119.5 37.5l-162 27l3 267h387v-79h-298l-3 -119z" />
    <glyph glyph-name="six.sc" 
d="M337 331q119 -13 169.5 -49.5t50.5 -109.5q0 -81 -59 -131t-167 -50q-226 0 -226 266q0 68 16.5 124t50.5 100.5t93 69.5t137 25q82 0 155 -21l-23 -76q-68 19 -140 19q-162 0 -192 -152zM338 73q129 0 129 90q0 41 -35 63.5t-124 31.5l-113 12v-9q0 -103 33.5 -145.5
t109.5 -42.5z" />
    <glyph glyph-name="seven.sc" 
d="M549 566v-87l-200 -400h136v-79h-369v79h140l176 344l49 64h-374v79h442z" />
    <glyph glyph-name="eight.sc" 
d="M411 285q59 -27 92.5 -60.5t33.5 -83.5q0 -73 -55 -111.5t-159 -38.5q-99 0 -154.5 36t-55.5 111q0 48 32.5 80.5t90.5 60.5q-69 29 -108 63.5t-39 87.5q0 74 62 115.5t178 41.5q232 0 232 -152q0 -51 -39.5 -85t-110.5 -65zM179 433q0 -27 24 -49.5t50 -34.5t77 -31
q34 14 54.5 23.5t43 23.5t33 30.5t10.5 36.5q0 38 -33.5 57.5t-115.5 19.5q-143 0 -143 -76zM328 67q70 0 94.5 19t24.5 51q0 36 -33 60.5t-96 49.5q-56 -25 -85.5 -48.5t-29.5 -57.5q0 -36 26 -55t99 -19z" />
    <glyph glyph-name="nine.sc" 
d="M310 576q111 0 173 -70.5t62 -204.5q0 -65 -13.5 -118.5t-43.5 -98t-83.5 -69t-128.5 -24.5q-101 0 -174 21l23 79q73 -22 158 -22q80 0 118 37.5t49 105.5l-137 15q-121 14 -170.5 51.5t-49.5 116.5q0 81 56 131t161 50zM342 300l113 -12v9q0 101 -36.5 151t-115.5 50
q-61 0 -90.5 -26t-29.5 -68q0 -48 34.5 -71t124.5 -33z" />
    <glyph glyph-name="uni0308.case" horiz-adv-x="0" 
d="M-430 728q-35 0 -56 20.5t-21 51.5t21 52t56 21t56.5 -21t21.5 -52t-21.5 -51.5t-56.5 -20.5zM-221 728q-35 0 -56 20.5t-21 51.5t21 52t56 21t56.5 -21t21.5 -52t-21.5 -51.5t-56.5 -20.5z" />
    <glyph glyph-name="uni0307.case" horiz-adv-x="0" 
d="M-325 720q-38 0 -61.5 23t-23.5 57t23.5 57t61.5 23t61.5 -23t23.5 -57t-23.5 -57t-61.5 -23z" />
    <glyph glyph-name="gravecomb.case" horiz-adv-x="0" 
d="M-259 730h-93l-136 140h108z" />
    <glyph glyph-name="acutecomb.case" horiz-adv-x="0" 
d="M-379 730l121 140h108l-136 -140h-93z" />
    <glyph glyph-name="uni030B.case" horiz-adv-x="0" 
d="M-487 730l101 140h106l-116 -140h-91zM-311 730l131 140h110l-146 -140h-95z" />
    <glyph glyph-name="uni0302.case" horiz-adv-x="0" 
d="M-253 730l-70 81h-8l-70 -81h-94l119 140h102l119 -140h-98z" />
    <glyph glyph-name="uni030C.case" horiz-adv-x="0" 
d="M-397 870l70 -81h8l70 81h94l-119 -140h-102l-119 140h98z" />
    <glyph glyph-name="uni0306.case" horiz-adv-x="0" 
d="M-351 730q-158 0 -162 140h86q6 -67 77 -67t77 67h86q-2 -70 -45 -105t-119 -35z" />
    <glyph glyph-name="uni030A.case" horiz-adv-x="0" 
d="M-353 624q-52 0 -83 25.5t-31 77.5q0 51 33 78.5t87 27.5q51 0 82.5 -26t31.5 -78q0 -51 -33 -78t-87 -27zM-350 680q45 0 45 47q0 49 -45 49t-45 -47q0 -49 45 -49z" />
    <glyph glyph-name="tildecomb.case" horiz-adv-x="0" 
d="M-229 872l67 -27l-22 -46q-32 -66 -79 -66q-36 0 -99 28l-74 32l-35 -65l-67 27l22 46q32 66 79 66q35 0 99 -28l74 -32z" />
    <glyph glyph-name="uni0304.case" horiz-adv-x="0" 
d="M-505 826h310v-73h-310v73z" />
    <glyph glyph-name="uni0338.case" horiz-adv-x="0" 
d="M-155 758l70 -40l-460 -796l-70 40z" />
    <glyph glyph-name="brevecombcy" horiz-adv-x="0" 
d="M-353 651q-78 0 -117.5 38.5t-41.5 121.5h95q2 -49 16 -70t51 -21t51 21t16 70h95q-4 -160 -165 -160z" />
    <glyph glyph-name="brevecombcy.case" horiz-adv-x="0" 
d="M-351 730q-155 0 -162 140h94q5 -40 20 -56.5t49 -16.5t49 16.5t20 56.5h94q-7 -140 -164 -140z" />
    <glyph glyph-name="brevecombcy.loclBGR.case" horiz-adv-x="0" 
d="M-505 826h310v-73h-310v73z" />
    <glyph glyph-name="brevecombcy.loclBGR" horiz-adv-x="0" 
d="M-510 693v73h320v-73h-320z" />
    <glyph glyph-name="caronalt.comb" 
d="M254 820h98l-37 -210h-84z" />
    <glyph glyph-name="arrow.right" 
d="M70 579l482 -226v-98l-482 -226h-75v550h75zM445 293v21l-359 161v-343z" />
    <glyph glyph-name="arrow.left" 
d="M580 579h75v-550h-75l-482 226v98zM205 315v-21l359 -161v343z" />
    <glyph glyph-name="RDGR" 
d="M0 -180v1000h650v-1000h-650zM132 114h160q8 0 15 7.5t7 15.5q0 10 -7 17.5t-17 7.5h-51l75 295l102 -52l-106 -65q-42 -25 -17 -62l103 -154q31 -47 62 -8l82 104q6 6 6 18q0 11 -8 18.5t-20 7.5q-14 0 -22 -12l-59 -87l-95 136l124 79q22 14 21.5 32t-23.5 30l-135 70
l21 86q3 12 -4.5 23t-19.5 11q-25 0 -30 -20l-18 -72l-59 32q-5 3 -13 3q-12 0 -20 -8.5t-8 -20.5q0 -17 14 -25l72 -36l-81 -323h-53q-10 0 -16.5 -7.5t-6.5 -17.5q0 -9 8 -16t17 -7z" />
  </font>
</defs>
</svg>
